<?xml version="1.0" encoding="UTF-8"?>
<svg id="uuid-217a2dab-13da-4e98-8fb2-76e8230fd934" data-name="Слой 1" xmlns="http://www.w3.org/2000/svg" viewBox="0 0 384 384">
  <defs>
    <style>
      .uuid-7065cc17-b32e-466c-b2b0-58ad90c8fc1f {
        fill: #fff;
      }
    </style>
  </defs>
  <path class="uuid-7065cc17-b32e-466c-b2b0-58ad90c8fc1f" d="M203.67,0l19.61,2.47c71.23,11.78,130.98,64.44,151.75,133.64,33.48,111.56-38.22,226.1-151.75,245.42l-19.61,2.47h-23.94c-4.31-1.16-9.24-1.01-13.74-1.61C81.34,371.14,12.83,302.73,1.75,217.77c-.59-4.51-.46-9.45-1.6-13.77.34-7.93-.46-16.09,0-24C5.71,84.68,84.63,5.58,179.73,0h23.94ZM178.83,27.22C66.98,34.79-4.36,154.57,40.42,257.76c52.34,120.6,219.22,134.57,290.01,23.43,73.62-115.58-16.09-263.13-151.61-253.96Z"/>
  <path class="uuid-7065cc17-b32e-466c-b2b0-58ad90c8fc1f" d="M190.08,159.93c7.43-.28,20.32,2.35,21.11,11.4l-.07,98.25c-5.05,15.17-37.36,14.23-38.9-2.18l.08-96.73c1.15-7.48,11.36-10.5,17.79-10.74Z"/>
  <path class="uuid-7065cc17-b32e-466c-b2b0-58ad90c8fc1f" d="M207.15,106.77c5.95,6.09,6.52,15.43,1.32,22.17-9.31,12.08-31.73,9.66-36.59-5.19-6.36-19.42,21.76-30.79,35.27-16.98Z"/>
</svg>