<svg xmlns="http://www.w3.org/2000/svg" viewBox="0 0 6209.15 3600.35"><defs><pattern id="uuid-2b6dc14e-b145-4271-833f-f8aeda0aeb9b" data-name="Новый образец узора 7" x="0" y="0" width="245.56" height="245.56" patternUnits="userSpaceOnUse"><path class="uuid-c3b553d6-6f88-4ac0-b914-7b767b1b330b" d="M0 0h245.56v245.56H0z"/><path class="uuid-f317d477-12c4-4e74-a015-81ad4466e50d" d="M245.56 245.56v-4.82l-4.82 4.82h4.82zM229.91 245.56l15.65-15.65v-9.64l-25.29 25.29h9.64zM209.45 245.56l36.11-36.11v-9.64l-45.75 45.75h9.64zM188.99 245.56l56.57-56.57v-9.64l-66.21 66.21h9.64zM168.52 245.56l77.04-77.04v-9.63l-86.67 86.67h9.63zM148.06 245.56l97.5-97.5v-9.64L138.42 245.56h9.64zM127.6 245.56 245.56 127.6v-9.64l-127.6 127.6h9.64zM107.13 245.56l138.43-138.43V97.5L97.5 245.56h9.63zM86.67 245.56 245.56 86.67v-9.64L77.03 245.56h9.64zM66.21 245.56 245.56 66.21v-9.64L56.57 245.56h9.64zM45.74 245.56 245.56 45.74v-9.63L36.11 245.56h9.63zM25.28 245.56 245.56 25.28v-9.64L15.64 245.56h9.64zM0 245.56h4.82L245.56 4.82V0h-4.82L0 240.74v4.82zM0 229.91 229.91 0h-9.64L0 220.27v9.64zM0 209.45 209.45 0h-9.64L0 199.81v9.64zM0 188.99 188.99 0h-9.64L0 179.35v9.64zM0 168.52 168.52 0h-9.63L0 158.89v9.63zM0 148.06 148.06 0h-9.64L0 138.42v9.64zM0 127.6 127.6 0h-9.64L0 117.96v9.64zM0 107.13 107.13 0H97.5L0 97.5v9.63zM0 86.67 86.67 0h-9.64L0 77.03v9.64zM0 66.21 66.21 0h-9.64L0 56.57v9.64zM0 45.74 45.74 0h-9.63L0 36.11v9.63zM0 25.28 25.28 0h-9.64L0 15.64v9.64zM0 4.82 4.82 0H0v4.82z"/></pattern><pattern id="uuid-73a957b2-b4a8-4917-9161-4b6026ebd965" data-name="Новый образец узора 12" x="0" y="0" width="245.56" height="245.56" patternUnits="userSpaceOnUse"><path class="uuid-c3b553d6-6f88-4ac0-b914-7b767b1b330b" d="M0 0h245.56v245.56H0z"/><path class="uuid-239fe3a9-7ed7-462c-ac47-b0958d7e3041" d="M245.56 245.56v-4.82l-4.82 4.82h4.82zM229.91 245.56l15.65-15.65v-9.64l-25.29 25.29h9.64zM209.45 245.56l36.11-36.11v-9.64l-45.75 45.75h9.64zM188.99 245.56l56.57-56.57v-9.64l-66.21 66.21h9.64zM168.52 245.56l77.04-77.04v-9.63l-86.67 86.67h9.63zM148.06 245.56l97.5-97.5v-9.64L138.42 245.56h9.64zM127.6 245.56 245.56 127.6v-9.64l-127.6 127.6h9.64zM107.13 245.56l138.43-138.43V97.5L97.5 245.56h9.63zM86.67 245.56 245.56 86.67v-9.64L77.03 245.56h9.64zM66.21 245.56 245.56 66.21v-9.64L56.57 245.56h9.64zM45.74 245.56 245.56 45.74v-9.63L36.11 245.56h9.63zM25.28 245.56 245.56 25.28v-9.64L15.64 245.56h9.64zM0 245.56h4.82L245.56 4.82V0h-4.82L0 240.74v4.82zM0 229.91 229.91 0h-9.64L0 220.27v9.64zM0 209.45 209.45 0h-9.64L0 199.81v9.64zM0 188.99 188.99 0h-9.64L0 179.35v9.64zM0 168.52 168.52 0h-9.63L0 158.89v9.63zM0 148.06 148.06 0h-9.64L0 138.42v9.64zM0 127.6 127.6 0h-9.64L0 117.96v9.64zM0 107.13 107.13 0H97.5L0 97.5v9.63zM0 86.67 86.67 0h-9.64L0 77.03v9.64zM0 66.21 66.21 0h-9.64L0 56.57v9.64zM0 45.74 45.74 0h-9.63L0 36.11v9.63zM0 25.28 25.28 0h-9.64L0 15.64v9.64zM0 4.82 4.82 0H0v4.82z"/></pattern><pattern id="uuid-4fbfef73-8c52-49fb-b716-fe73f99bcde1" data-name="Новый образец узора 10" x="0" y="0" width="245.56" height="245.56" patternUnits="userSpaceOnUse"><path class="uuid-c3b553d6-6f88-4ac0-b914-7b767b1b330b" d="M0 0h245.56v245.56H0z"/><path class="uuid-8befe4d1-20e7-4909-b285-a338ea936ec4" d="M245.56 245.56v-4.82l-4.82 4.82h4.82zM229.91 245.56l15.65-15.65v-9.64l-25.29 25.29h9.64zM209.45 245.56l36.11-36.11v-9.64l-45.75 45.75h9.64zM188.99 245.56l56.57-56.57v-9.64l-66.21 66.21h9.64zM168.52 245.56l77.04-77.04v-9.63l-86.67 86.67h9.63zM148.06 245.56l97.5-97.5v-9.64L138.42 245.56h9.64zM127.6 245.56 245.56 127.6v-9.64l-127.6 127.6h9.64zM107.13 245.56l138.43-138.43V97.5L97.5 245.56h9.63zM86.67 245.56 245.56 86.67v-9.64L77.03 245.56h9.64zM66.21 245.56 245.56 66.21v-9.64L56.57 245.56h9.64zM45.74 245.56 245.56 45.74v-9.63L36.11 245.56h9.63zM25.28 245.56 245.56 25.28v-9.64L15.64 245.56h9.64zM0 245.56h4.82L245.56 4.82V0h-4.82L0 240.74v4.82zM0 229.91 229.91 0h-9.64L0 220.27v9.64zM0 209.45 209.45 0h-9.64L0 199.81v9.64zM0 188.99 188.99 0h-9.64L0 179.35v9.64zM0 168.52 168.52 0h-9.63L0 158.89v9.63zM0 148.06 148.06 0h-9.64L0 138.42v9.64zM0 127.6 127.6 0h-9.64L0 117.96v9.64zM0 107.13 107.13 0H97.5L0 97.5v9.63zM0 86.67 86.67 0h-9.64L0 77.03v9.64zM0 66.21 66.21 0h-9.64L0 56.57v9.64zM0 45.74 45.74 0h-9.63L0 36.11v9.63zM0 25.28 25.28 0h-9.64L0 15.64v9.64zM0 4.82 4.82 0H0v4.82z"/></pattern><pattern id="uuid-8def63c0-7fe8-4c86-a353-d3be3efb5fa4" data-name="Новый образец узора 16" x="0" y="0" width="245.56" height="245.56" patternUnits="userSpaceOnUse"><path class="uuid-c3b553d6-6f88-4ac0-b914-7b767b1b330b" d="M0 0h245.56v245.56H0z"/><path class="uuid-8b4b1dbc-b313-4e59-96f1-c62fbe3da5d2" d="M245.56 245.56v-4.82l-4.82 4.82h4.82zM229.91 245.56l15.65-15.65v-9.64l-25.29 25.29h9.64zM209.45 245.56l36.11-36.11v-9.64l-45.75 45.75h9.64zM188.99 245.56l56.57-56.57v-9.64l-66.21 66.21h9.64zM168.52 245.56l77.04-77.04v-9.63l-86.67 86.67h9.63zM148.06 245.56l97.5-97.5v-9.64L138.42 245.56h9.64zM127.6 245.56 245.56 127.6v-9.64l-127.6 127.6h9.64zM107.13 245.56l138.43-138.43V97.5L97.5 245.56h9.63zM86.67 245.56 245.56 86.67v-9.64L77.03 245.56h9.64zM66.21 245.56 245.56 66.21v-9.64L56.57 245.56h9.64zM45.74 245.56 245.56 45.74v-9.63L36.11 245.56h9.63zM25.28 245.56 245.56 25.28v-9.64L15.64 245.56h9.64zM0 245.56h4.82L245.56 4.82V0h-4.82L0 240.74v4.82zM0 229.91 229.91 0h-9.64L0 220.27v9.64zM0 209.45 209.45 0h-9.64L0 199.81v9.64zM0 188.99 188.99 0h-9.64L0 179.35v9.64zM0 168.52 168.52 0h-9.63L0 158.89v9.63zM0 148.06 148.06 0h-9.64L0 138.42v9.64zM0 127.6 127.6 0h-9.64L0 117.96v9.64zM0 107.13 107.13 0H97.5L0 97.5v9.63zM0 86.67 86.67 0h-9.64L0 77.03v9.64zM0 66.21 66.21 0h-9.64L0 56.57v9.64zM0 45.74 45.74 0h-9.63L0 36.11v9.63zM0 25.28 25.28 0h-9.64L0 15.64v9.64zM0 4.82 4.82 0H0v4.82z"/></pattern><pattern id="uuid-89decbe6-c1b0-46b2-9b06-b3b1a0d46e97" data-name="Новый образец узора 8" x="0" y="0" width="245.56" height="245.56" patternUnits="userSpaceOnUse"><path class="uuid-c3b553d6-6f88-4ac0-b914-7b767b1b330b" d="M0 0h245.56v245.56H0z"/><path class="uuid-5696180a-06e8-499c-b7fb-08d9bc726e61" d="M245.56 245.56v-4.82l-4.82 4.82h4.82zM229.91 245.56l15.65-15.65v-9.64l-25.29 25.29h9.64zM209.45 245.56l36.11-36.11v-9.64l-45.75 45.75h9.64zM188.99 245.56l56.57-56.57v-9.64l-66.21 66.21h9.64zM168.52 245.56l77.04-77.04v-9.63l-86.67 86.67h9.63zM148.06 245.56l97.5-97.5v-9.64L138.42 245.56h9.64zM127.6 245.56 245.56 127.6v-9.64l-127.6 127.6h9.64zM107.13 245.56l138.43-138.43V97.5L97.5 245.56h9.63zM86.67 245.56 245.56 86.67v-9.64L77.03 245.56h9.64zM66.21 245.56 245.56 66.21v-9.64L56.57 245.56h9.64zM45.74 245.56 245.56 45.74v-9.63L36.11 245.56h9.63zM25.28 245.56 245.56 25.28v-9.64L15.64 245.56h9.64zM0 245.56h4.82L245.56 4.82V0h-4.82L0 240.74v4.82zM0 229.91 229.91 0h-9.64L0 220.27v9.64zM0 209.45 209.45 0h-9.64L0 199.81v9.64zM0 188.99 188.99 0h-9.64L0 179.35v9.64zM0 168.52 168.52 0h-9.63L0 158.89v9.63zM0 148.06 148.06 0h-9.64L0 138.42v9.64zM0 127.6 127.6 0h-9.64L0 117.96v9.64zM0 107.13 107.13 0H97.5L0 97.5v9.63zM0 86.67 86.67 0h-9.64L0 77.03v9.64zM0 66.21 66.21 0h-9.64L0 56.57v9.64zM0 45.74 45.74 0h-9.63L0 36.11v9.63zM0 25.28 25.28 0h-9.64L0 15.64v9.64zM0 4.82 4.82 0H0v4.82z"/></pattern><pattern id="uuid-88bebbf7-557d-438a-8a57-1fd03a81856e" data-name="Новый образец узора 14" x="0" y="0" width="245.56" height="245.56" patternUnits="userSpaceOnUse"><path class="uuid-c3b553d6-6f88-4ac0-b914-7b767b1b330b" d="M0 0h245.56v245.56H0z"/><path class="uuid-36dd17e2-a2e4-4a57-9818-830626696931" d="M245.56 245.56v-4.82l-4.82 4.82h4.82zM229.91 245.56l15.65-15.65v-9.64l-25.29 25.29h9.64zM209.45 245.56l36.11-36.11v-9.64l-45.75 45.75h9.64zM188.99 245.56l56.57-56.57v-9.64l-66.21 66.21h9.64zM168.52 245.56l77.04-77.04v-9.63l-86.67 86.67h9.63zM148.06 245.56l97.5-97.5v-9.64L138.42 245.56h9.64zM127.6 245.56 245.56 127.6v-9.64l-127.6 127.6h9.64zM107.13 245.56l138.43-138.43V97.5L97.5 245.56h9.63zM86.67 245.56 245.56 86.67v-9.64L77.03 245.56h9.64zM66.21 245.56 245.56 66.21v-9.64L56.57 245.56h9.64zM45.74 245.56 245.56 45.74v-9.63L36.11 245.56h9.63zM25.28 245.56 245.56 25.28v-9.64L15.64 245.56h9.64zM0 245.56h4.82L245.56 4.82V0h-4.82L0 240.74v4.82zM0 229.91 229.91 0h-9.64L0 220.27v9.64zM0 209.45 209.45 0h-9.64L0 199.81v9.64zM0 188.99 188.99 0h-9.64L0 179.35v9.64zM0 168.52 168.52 0h-9.63L0 158.89v9.63zM0 148.06 148.06 0h-9.64L0 138.42v9.64zM0 127.6 127.6 0h-9.64L0 117.96v9.64zM0 107.13 107.13 0H97.5L0 97.5v9.63zM0 86.67 86.67 0h-9.64L0 77.03v9.64zM0 66.21 66.21 0h-9.64L0 56.57v9.64zM0 45.74 45.74 0h-9.63L0 36.11v9.63zM0 25.28 25.28 0h-9.64L0 15.64v9.64zM0 4.82 4.82 0H0v4.82z"/></pattern><pattern id="uuid-5497456d-5d02-468d-a950-ff0969aae704" data-name="Новый образец узора 13" x="0" y="0" width="245.56" height="245.56" patternUnits="userSpaceOnUse"><path class="uuid-c3b553d6-6f88-4ac0-b914-7b767b1b330b" d="M0 0h245.56v245.56H0z"/><path class="uuid-9e62374e-b58c-4b83-952e-9aa8a5b1aa30" d="M245.56 245.56v-4.82l-4.82 4.82h4.82zM229.91 245.56l15.65-15.65v-9.64l-25.29 25.29h9.64zM209.45 245.56l36.11-36.11v-9.64l-45.75 45.75h9.64zM188.99 245.56l56.57-56.57v-9.64l-66.21 66.21h9.64zM168.52 245.56l77.04-77.04v-9.63l-86.67 86.67h9.63zM148.06 245.56l97.5-97.5v-9.64L138.42 245.56h9.64zM127.6 245.56 245.56 127.6v-9.64l-127.6 127.6h9.64zM107.13 245.56l138.43-138.43V97.5L97.5 245.56h9.63zM86.67 245.56 245.56 86.67v-9.64L77.03 245.56h9.64zM66.21 245.56 245.56 66.21v-9.64L56.57 245.56h9.64zM45.74 245.56 245.56 45.74v-9.63L36.11 245.56h9.63zM25.28 245.56 245.56 25.28v-9.64L15.64 245.56h9.64zM0 245.56h4.82L245.56 4.82V0h-4.82L0 240.74v4.82zM0 229.91 229.91 0h-9.64L0 220.27v9.64zM0 209.45 209.45 0h-9.64L0 199.81v9.64zM0 188.99 188.99 0h-9.64L0 179.35v9.64zM0 168.52 168.52 0h-9.63L0 158.89v9.63zM0 148.06 148.06 0h-9.64L0 138.42v9.64zM0 127.6 127.6 0h-9.64L0 117.96v9.64zM0 107.13 107.13 0H97.5L0 97.5v9.63zM0 86.67 86.67 0h-9.64L0 77.03v9.64zM0 66.21 66.21 0h-9.64L0 56.57v9.64zM0 45.74 45.74 0h-9.63L0 36.11v9.63zM0 25.28 25.28 0h-9.64L0 15.64v9.64zM0 4.82 4.82 0H0v4.82z"/></pattern><style>.uuid-d5b8ed96-e632-414d-9638-6857ced0d5b9{fill:url(#uuid-8def63c0-7fe8-4c86-a353-d3be3efb5fa4);stroke-miterlimit:10;stroke-width:2px}.uuid-23b5bd7e-b557-4d6a-b7c3-f5dabdae93bc,.uuid-2d9f0009-cc72-49dd-8f0f-a9d8635093c2,.uuid-5467bed2-98c8-43ab-9e05-314bc7bff8c5,.uuid-5dd181b5-ff5a-4f8a-9e24-5d1c70cd2d38,.uuid-629d4732-c0f3-4e63-918d-dfad623cdf33,.uuid-693fc52f-b4fb-4fb9-a656-e1381571bd4b,.uuid-887494c4-8fcd-46b4-95db-baafd8058d85,.uuid-9596a0ce-3c4e-45d9-a608-47ab43e7339d,.uuid-a32bc501-01ec-48ba-b0c2-8fbcb3118761,.uuid-ad959328-6c8e-446f-9052-4bcf716b29e9,.uuid-c6fd8b8b-57fe-42d9-b181-15938c20a49c,.uuid-cd60f838-2d9b-42a6-bf7c-db08bc2336d9,.uuid-ec21547f-0e7f-4e23-bdb3-3f6f9f1b7633,.uuid-f666a578-412b-4718-8206-ce53631109f5,.uuid-f7ba1562-531a-438b-bdf0-cd43ea4cb782{stroke-miterlimit:10;stroke-width:2px}.uuid-693fc52f-b4fb-4fb9-a656-e1381571bd4b,.uuid-d5b8ed96-e632-414d-9638-6857ced0d5b9{stroke:#c69c6d}.uuid-2d9f0009-cc72-49dd-8f0f-a9d8635093c2{fill:url(#uuid-88bebbf7-557d-438a-8a57-1fd03a81856e);stroke:#9dff78}.uuid-629d4732-c0f3-4e63-918d-dfad623cdf33{stroke:#9dff78}.uuid-23b5bd7e-b557-4d6a-b7c3-f5dabdae93bc,.uuid-5467bed2-98c8-43ab-9e05-314bc7bff8c5,.uuid-5dd181b5-ff5a-4f8a-9e24-5d1c70cd2d38,.uuid-629d4732-c0f3-4e63-918d-dfad623cdf33,.uuid-693fc52f-b4fb-4fb9-a656-e1381571bd4b,.uuid-887494c4-8fcd-46b4-95db-baafd8058d85,.uuid-9596a0ce-3c4e-45d9-a608-47ab43e7339d,.uuid-a32bc501-01ec-48ba-b0c2-8fbcb3118761,.uuid-c3b553d6-6f88-4ac0-b914-7b767b1b330b,.uuid-cd60f838-2d9b-42a6-bf7c-db08bc2336d9,.uuid-f666a578-412b-4718-8206-ce53631109f5{fill:none}.uuid-a32bc501-01ec-48ba-b0c2-8fbcb3118761{stroke:#ffc550}.uuid-0057c76f-0f51-422a-b624-373af1079129{fill:#91d4f5}.uuid-8b4b1dbc-b313-4e59-96f1-c62fbe3da5d2{fill:#c69c6d}.uuid-3f42bde7-a509-4f96-86df-b88d4b30b37d{opacity:.7;fill:#1b0b18}.uuid-ae853ba9-fd01-4f6d-8232-6f8ca9c9cc0f{fill:#6987f2}.uuid-5467bed2-98c8-43ab-9e05-314bc7bff8c5{stroke:#6987f2}.uuid-ec21547f-0e7f-4e23-bdb3-3f6f9f1b7633,.uuid-f666a578-412b-4718-8206-ce53631109f5{stroke:#ffa043}.uuid-9596a0ce-3c4e-45d9-a608-47ab43e7339d,.uuid-ad959328-6c8e-446f-9052-4bcf716b29e9{stroke:#e84242}.uuid-887494c4-8fcd-46b4-95db-baafd8058d85,.uuid-c6fd8b8b-57fe-42d9-b181-15938c20a49c{stroke:#f2f2f2}.uuid-8befe4d1-20e7-4909-b285-a338ea936ec4{fill:#e84242}.uuid-9e62374e-b58c-4b83-952e-9aa8a5b1aa30{fill:#f2f2f2}.uuid-23b5bd7e-b557-4d6a-b7c3-f5dabdae93bc{stroke:gray}.uuid-cd60f838-2d9b-42a6-bf7c-db08bc2336d9{stroke:#91d4f5}.uuid-5696180a-06e8-499c-b7fb-08d9bc726e61{fill:#ffc550}.uuid-239fe3a9-7ed7-462c-ac47-b0958d7e3041{fill:#ccc}.uuid-f317d477-12c4-4e74-a015-81ad4466e50d{fill:#ffa043}.uuid-ad959328-6c8e-446f-9052-4bcf716b29e9{fill:url(#uuid-4fbfef73-8c52-49fb-b716-fe73f99bcde1)}.uuid-36dd17e2-a2e4-4a57-9818-830626696931{fill:#9dff78}.uuid-5dd181b5-ff5a-4f8a-9e24-5d1c70cd2d38,.uuid-f7ba1562-531a-438b-bdf0-cd43ea4cb782{stroke:#ccc}.uuid-c32fbc01-566a-4c49-86d3-d75000d93e97{fill:gray}.uuid-f7ba1562-531a-438b-bdf0-cd43ea4cb782{fill:url(#uuid-73a957b2-b4a8-4917-9161-4b6026ebd965)}.uuid-ec21547f-0e7f-4e23-bdb3-3f6f9f1b7633{fill:url(#uuid-2b6dc14e-b145-4271-833f-f8aeda0aeb9b)}.uuid-c6fd8b8b-57fe-42d9-b181-15938c20a49c{fill:url(#uuid-5497456d-5d02-468d-a950-ff0969aae704)}</style></defs><path style="fill:#1b0b18" d="M-.55 0H6208.6v3600.35H-.55z" id="uuid-b3b022cf-b27d-44fa-9ee3-d672942c8e56" data-name="Фон"/><g id="uuid-8c0737f7-5108-41cd-9455-591d96b1bffa" data-name="-2-1 Уровень"><path class="uuid-3f42bde7-a509-4f96-86df-b88d4b30b37d" d="M0-.25h6209.15v3600.61H0z"/><path class="uuid-ec21547f-0e7f-4e23-bdb3-3f6f9f1b7633" d="M1226.99 2973.82v27.97h-10.93v1.13h-10.09v-1.13h-87.7v4.03h12.7v40.97h24.17v32.89h-56.85v-73.86h9.89v-4.03h-9.89v-27.97h63.34v-1.23h10.08v1.23h55.28zM1171.71 2969.58h25.73v-26.19h-8.28v-7.84l2.92-2.93h5.36v-15.21h-5.36l-2.92-2.93v-4.47h-44.53v59.57h17v1.23h10.08v-1.23z"/><path class="uuid-ec21547f-0e7f-4e23-bdb3-3f6f9f1b7633" d="M1216.06 3005.82h10.93v54.85h-55.3v-54.85h34.28v-1.13h10.09v1.13z"/><path class="uuid-f7ba1562-531a-438b-bdf0-cd43ea4cb782" d="M3706.3 1198.44v205.7h-190.47v-89.54h-13.66l-271.82 271.82v485.15h-93.34v-523.29l272.27-272.27v-77.57l10.33.01v6.27h12.28v-13.82h47.52v13.82h12.03v-6.27l214.86-.01z"/><path style="stroke-width:3px;fill:url(#uuid-4fbfef73-8c52-49fb-b716-fe73f99bcde1);stroke:#e84242;stroke-miterlimit:10" d="M4095.32 1079.05v103.27h-603.88v-2.46h-12.03v11.39h-47.52v-11.39h-12.28v2.46H3160.4v-103.26h5.14l107.85-269.7 281.42 204.35h147.25l280.36-204.35 108.09 269.69h4.81z"/><path class="uuid-d5b8ed96-e632-414d-9638-6857ced0d5b9" d="M3873.5 1623.91v149.75h-163.59v-2.24h-13.44v2.24h-118.65v-2.24h-13.44v2.24h-119.06l-7.39 7.39v47.45h-2.24v13.44h2.24v118.64h-2.24v13.44h2.24v119.72h-40.06V1990.6h-1.24v-10.08h1.24v-199.24l-7.6-7.6h-32.02v-39.62h51.71v2.24h49.02v-2.24h142.35v-143.92h14.76v-4.25H3587v-65.58h29.09v-4.25h-19.46v-37.15h-43.43v-37.16h135.85v37.16h-43.19v37.15h-19.69v4.25h28.87v65.58h-28.87v4.25h14.77v143.92h10.56v2.24h49.02v-2.24h133.13v-89.12h2.24v-49.02h-2.24v-41.37h39.84v59.28h1.13v10.08h-1.13z"/><path class="uuid-d5b8ed96-e632-414d-9638-6857ced0d5b9" d="M3393.63 1980.51v-8.75h-20.6v-51.71h-45.2v77.89h65.8v-7.34h1.23v-10.09h-1.23zm-47.91-8.75v-25.52h9.42v25.52h-9.42zM3928.69 1606.42v-51.71h-45.21v51.71h-5.94v7.4h-1.14v10.09h1.14v8.7h72.73v-26.19h-21.58zm-27.31 0v-25.52h9.41v25.52h-9.41z"/><g id="uuid-6c3e1b1f-7746-4c67-81b8-19b27f7971c7" data-name="Образцы 2"><path class="uuid-5467bed2-98c8-43ab-9e05-314bc7bff8c5" d="M9.42 9.91h151.27v151.27H9.42z"/><path class="uuid-ae853ba9-fd01-4f6d-8232-6f8ca9c9cc0f" d="M9.42 161.18h2.97l-2.97-2.97v2.97zM9.42 151.54l9.64 9.64h5.93L9.42 145.6v5.94zM9.42 138.93l22.24 22.25h5.94L9.42 133v5.93zM9.42 126.33l34.85 34.85h5.93L9.42 120.39v5.94zM9.42 113.72l47.45 47.46h5.94L9.42 107.79v5.93zM9.42 101.12l60.06 60.06h5.94l-66-66v5.94zM9.42 88.51l72.67 72.67h5.93l-78.6-78.6v5.93zM9.42 75.91l85.27 85.27h5.94L9.42 69.97v5.94zM9.42 63.3l97.88 97.88h5.93L9.42 57.37v5.93zM9.42 50.7 119.9 161.18h5.94L9.42 44.76v5.94zM9.42 38.09l123.09 123.09h5.93L9.42 32.15v5.94zM9.42 25.49l135.69 135.69h5.94L9.42 19.55v5.94zM9.42 9.91v2.97l148.3 148.3h2.97v-2.97L12.39 9.91H9.42zM19.06 9.91l141.63 141.63v-5.94L24.99 9.91h-5.93zM31.66 9.91l129.03 129.02V133L37.6 9.91h-5.94zM44.27 9.91l116.42 116.42v-5.94L50.2 9.91h-5.93zM56.87 9.91l103.82 103.81v-5.93L62.81 9.91h-5.94zM69.48 9.91l91.21 91.21v-5.94L75.42 9.91h-5.94zM82.09 9.91l78.6 78.6v-5.93L88.02 9.91h-5.93zM94.69 9.91l66 66v-5.94L100.63 9.91h-5.94zM107.3 9.91l53.39 53.39v-5.93L113.23 9.91h-5.93zM119.9 9.91l40.79 40.79v-5.94L125.84 9.91h-5.94zM132.51 9.91l28.18 28.18v-5.94L138.44 9.91h-5.93zM145.11 9.91l15.58 15.58v-5.94l-9.64-9.64h-5.94zM157.72 9.91l2.97 2.97V9.91h-2.97z"/><g><path class="uuid-a32bc501-01ec-48ba-b0c2-8fbcb3118761" d="M9.09 172.56h151.27v151.27H9.09z"/><path class="uuid-5696180a-06e8-499c-b7fb-08d9bc726e61" d="M9.42 323.82h2.97l-2.97-2.96v2.96zM9.42 314.19l9.64 9.63h5.93L9.42 308.25v5.94zM9.42 301.58l22.24 22.24h5.94L9.42 295.64v5.94zM9.42 288.98l34.85 34.84h5.93L9.42 283.04v5.94zM9.42 276.37l47.45 47.45h5.94L9.42 270.43v5.94zM9.42 263.76l60.06 60.06h5.94l-66-65.99v5.93zM9.42 251.16l72.67 72.66h5.93l-78.6-78.6v5.94zM9.42 238.55l85.27 85.27h5.94l-91.21-91.2v5.93zM9.42 225.95l97.88 97.87h5.93L9.42 220.01v5.94zM9.42 213.34 119.9 323.82h5.94L9.42 207.41v5.93zM9.42 200.74l123.09 123.08h5.93L9.42 194.8v5.94zM9.42 188.13l135.69 135.69h5.94L9.42 182.2v5.93zM9.42 172.56v2.97l148.3 148.29h2.97v-2.96l-148.3-148.3H9.42zM19.06 172.56l141.63 141.63v-5.94L24.99 172.56h-5.93zM31.66 172.56l129.03 129.02v-5.94L37.6 172.56h-5.94zM44.27 172.56l116.42 116.42v-5.94L50.2 172.56h-5.93zM56.87 172.56l103.82 103.81v-5.94l-97.88-97.87h-5.94zM69.48 172.56l91.21 91.2v-5.93l-85.27-85.27h-5.94zM82.09 172.56l78.6 78.6v-5.94l-72.67-72.66h-5.93zM94.69 172.56l66 65.99v-5.93l-60.06-60.06h-5.94zM107.3 172.56l53.39 53.39v-5.94l-47.46-47.45h-5.93zM119.9 172.56l40.79 40.78v-5.93l-34.85-34.85h-5.94zM132.51 172.56l28.18 28.18v-5.94l-22.25-22.24h-5.93zM145.11 172.56l15.58 15.57v-5.93l-9.64-9.64h-5.94zM157.72 172.56l2.97 2.97v-2.97h-2.97z"/></g><g><path class="uuid-f666a578-412b-4718-8206-ce53631109f5" d="M9.09 335.2h151.27v151.27H9.09z"/><path class="uuid-f317d477-12c4-4e74-a015-81ad4466e50d" d="M9.09 486.47h2.97l-2.97-2.97v2.97zM9.09 476.83l9.64 9.64h5.94L9.09 470.9v5.93zM9.09 464.23l22.25 22.24h5.93L9.09 458.29v5.94zM9.09 451.62l34.85 34.85h5.94L9.09 445.69v5.93zM9.09 439.02l47.46 47.45h5.93L9.09 433.08v5.94zM9.09 426.41l60.06 60.06h5.94l-66-66v5.94zM9.09 413.81l72.67 72.66h5.94l-78.61-78.6v5.94zM9.09 401.2l85.27 85.27h5.94L9.09 395.26v5.94zM9.09 388.59l97.88 97.88h5.94L9.09 382.66v5.93zM9.09 375.99l110.49 110.48h5.93L9.09 370.05v5.94zM9.09 363.38l123.09 123.09h5.94L9.09 357.45v5.93zM9.09 350.78l135.7 135.69h5.93L9.09 344.84v5.94zM9.09 335.2v2.97l148.3 148.3h2.97v-2.97L12.06 335.2H9.09zM18.73 335.2l141.63 141.63v-5.93L24.67 335.2h-5.94zM31.34 335.2l129.02 129.03v-5.94L37.27 335.2h-5.93zM43.94 335.2l116.42 116.42v-5.93L49.88 335.2h-5.94zM56.55 335.2l103.81 103.82v-5.94L62.48 335.2h-5.93zM69.15 335.2l91.21 91.21v-5.94L75.09 335.2h-5.94zM81.76 335.2l78.6 78.61v-5.94L87.7 335.2h-5.94zM94.36 335.2l66 66v-5.94L100.3 335.2h-5.94zM106.97 335.2l53.39 53.39v-5.93l-47.45-47.46h-5.94zM119.58 335.2l40.78 40.79v-5.94l-34.85-34.85h-5.93zM132.18 335.2l28.18 28.18v-5.93l-22.24-22.25h-5.94zM144.79 335.2l15.57 15.58v-5.94l-9.64-9.64h-5.93zM157.39 335.2l2.97 2.97v-2.97h-2.97z"/></g><g><path class="uuid-cd60f838-2d9b-42a6-bf7c-db08bc2336d9" d="M9.09 497.85h151.27v151.27H9.09z"/><path class="uuid-0057c76f-0f51-422a-b624-373af1079129" d="M9.09 649.12h2.97l-2.97-2.97v2.97zM9.09 639.48l9.64 9.64h5.94L9.09 633.54v5.94zM9.09 626.87l22.25 22.25h5.93L9.09 620.94v5.93zM9.09 614.27l34.85 34.85h5.94L9.09 608.33v5.94zM9.09 601.66l47.46 47.46h5.93L9.09 595.73v5.93zM9.09 589.06l60.06 60.06h5.94l-66-66v5.94zM9.09 576.45l72.67 72.67h5.94l-78.61-78.6v5.93zM9.09 563.85l85.27 85.27h5.94L9.09 557.91v5.94zM9.09 551.24l97.88 97.88h5.94L9.09 545.3v5.94zM9.09 538.64l110.49 110.48h5.93L9.09 532.7v5.94zM9.09 526.03l123.09 123.09h5.94L9.09 520.09v5.94zM9.09 513.42l135.7 135.7h5.93L9.09 507.49v5.93zM9.09 497.85v2.97l148.3 148.3h2.97v-2.97l-148.3-148.3H9.09zM18.73 497.85l141.63 141.63v-5.94L24.67 497.85h-5.94zM31.34 497.85l129.02 129.02v-5.93L37.27 497.85h-5.93zM43.94 497.85l116.42 116.42v-5.94L49.88 497.85h-5.94zM56.55 497.85l103.81 103.81v-5.93l-97.88-97.88h-5.93zM69.15 497.85l91.21 91.21v-5.94l-85.27-85.27h-5.94zM81.76 497.85l78.6 78.6v-5.93L87.7 497.85h-5.94zM94.36 497.85l66 66v-5.94l-60.06-60.06h-5.94zM106.97 497.85l53.39 53.39v-5.94l-47.45-47.45h-5.94zM119.58 497.85l40.78 40.79v-5.94l-34.85-34.85h-5.93zM132.18 497.85l28.18 28.18v-5.94l-22.24-22.24h-5.94zM144.79 497.85l15.57 15.57v-5.93l-9.64-9.64h-5.93zM157.39 497.85l2.97 2.97v-2.97h-2.97z"/></g><g><path class="uuid-9596a0ce-3c4e-45d9-a608-47ab43e7339d" d="M9.09 660.5h151.27v151.27H9.09z"/><path class="uuid-8befe4d1-20e7-4909-b285-a338ea936ec4" d="M9.09 811.76h2.97l-2.97-2.97v2.97zM9.09 802.13l9.64 9.63h5.94L9.09 796.19v5.94zM9.09 789.52l22.25 22.24h5.93L9.09 783.58v5.94zM9.09 776.91l34.85 34.85h5.94L9.09 770.98v5.93zM9.09 764.31l47.46 47.45h5.93L9.09 758.37v5.94zM9.09 751.7l60.06 60.06h5.94l-66-65.99v5.93zM9.09 739.1l72.67 72.66h5.94l-78.61-78.6v5.94zM9.09 726.49l85.27 85.27h5.94l-91.21-91.2v5.93zM9.09 713.89l97.88 97.87h5.94L9.09 707.95v5.94zM9.09 701.28l110.49 110.48h5.93L9.09 695.35v5.93zM9.09 688.68l123.09 123.08h5.94L9.09 682.74v5.94zM9.09 676.07l135.7 135.69h5.93L9.09 670.13v5.94zM9.09 660.5v2.96l148.3 148.3h2.97v-2.97L12.06 660.5H9.09zM18.73 660.5l141.63 141.63v-5.94L24.67 660.5h-5.94zM31.34 660.5l129.02 129.02v-5.94L37.27 660.5h-5.93zM43.94 660.5l116.42 116.41v-5.93L49.88 660.5h-5.94zM56.55 660.5l103.81 103.81v-5.94L62.48 660.5h-5.93zM69.15 660.5l91.21 91.2v-5.93L75.09 660.5h-5.94zM81.76 660.5l78.6 78.6v-5.94L87.7 660.5h-5.94zM94.36 660.5l66 65.99v-5.93L100.3 660.5h-5.94zM106.97 660.5l53.39 53.39v-5.94l-47.45-47.45h-5.94zM119.58 660.5l40.78 40.78v-5.93l-34.85-34.85h-5.93zM132.18 660.5l28.18 28.18v-5.94l-22.24-22.24h-5.94zM144.79 660.5l15.57 15.57v-5.94l-9.64-9.63h-5.93zM157.39 660.5l2.97 2.96v-2.96h-2.97z"/></g><g><path class="uuid-23b5bd7e-b557-4d6a-b7c3-f5dabdae93bc" d="M9.09 823.14h151.27v151.27H9.09z"/><path class="uuid-c32fbc01-566a-4c49-86d3-d75000d93e97" d="M9.09 974.41h2.97l-2.97-2.97v2.97zM9.09 964.77l9.64 9.64h5.94L9.09 958.84v5.93zM9.09 952.17l22.25 22.24h5.93L9.09 946.23v5.94zM9.09 939.56l34.85 34.85h5.94L9.09 933.62v5.94zM9.09 926.96l47.46 47.45h5.93L9.09 921.02v5.94zM9.09 914.35l60.06 60.06h5.94l-66-66v5.94zM9.09 901.74l72.67 72.67h5.94l-78.61-78.6v5.93zM9.09 889.14l85.27 85.27h5.94L9.09 883.2v5.94zM9.09 876.53l97.88 97.88h5.94L9.09 870.6v5.93zM9.09 863.93l110.49 110.48h5.93L9.09 857.99v5.94zM9.09 851.32l123.09 123.09h5.94L9.09 845.39v5.93zM9.09 838.72l135.7 135.69h5.93L9.09 832.78v5.94zM9.09 823.14v2.97l148.3 148.3h2.97v-2.97l-148.3-148.3H9.09zM18.73 823.14l141.63 141.63v-5.93L24.67 823.14h-5.94zM31.34 823.14l129.02 129.03v-5.94L37.27 823.14h-5.93zM43.94 823.14l116.42 116.42v-5.94L49.88 823.14h-5.94zM56.55 823.14l103.81 103.82v-5.94l-97.88-97.88h-5.93zM69.15 823.14l91.21 91.21v-5.94l-85.27-85.27h-5.94zM81.76 823.14l78.6 78.6v-5.93L87.7 823.14h-5.94zM94.36 823.14l66 66v-5.94l-60.06-60.06h-5.94zM106.97 823.14l53.39 53.39v-5.93l-47.45-47.46h-5.94zM119.58 823.14l40.78 40.79v-5.94l-34.85-34.85h-5.93zM132.18 823.14l28.18 28.18v-5.93l-22.24-22.25h-5.94zM144.79 823.14l15.57 15.58v-5.94l-9.64-9.64h-5.93zM157.39 823.14l2.97 2.97v-2.97h-2.97z"/></g><g><path class="uuid-5dd181b5-ff5a-4f8a-9e24-5d1c70cd2d38" d="M9.09 985.79h151.27v151.27H9.09z"/><path class="uuid-239fe3a9-7ed7-462c-ac47-b0958d7e3041" d="M9.09 1137.06h2.97l-2.97-2.97v2.97zM9.09 1127.42l9.64 9.64h5.94l-15.58-15.58v5.94zM9.09 1114.81l22.25 22.25h5.93l-28.18-28.18v5.93zM9.09 1102.21l34.85 34.85h5.94l-40.79-40.79v5.94zM9.09 1089.6l47.46 47.46h5.93l-53.39-53.39v5.93zM9.09 1077l60.06 60.06h5.94l-66-66v5.94zM9.09 1064.39l72.67 72.67h5.94l-78.61-78.61v5.94zM9.09 1051.79l85.27 85.27h5.94l-91.21-91.21v5.94zM9.09 1039.18l97.88 97.88h5.94L9.09 1033.24v5.94zM9.09 1026.57l110.49 110.49h5.93L9.09 1020.64v5.93zM9.09 1013.97l123.09 123.09h5.94L9.09 1008.03v5.94zM9.09 1001.36l135.7 135.7h5.93L9.09 995.43v5.93zM9.09 985.79v2.97l148.3 148.3h2.97v-2.97l-148.3-148.3H9.09zM18.73 985.79l141.63 141.63v-5.94L24.67 985.79h-5.94zM31.34 985.79l129.02 129.02v-5.93L37.27 985.79h-5.93zM43.94 985.79l116.42 116.42v-5.94L49.88 985.79h-5.94zM56.55 985.79l103.81 103.81v-5.93l-97.88-97.88h-5.93zM69.15 985.79l91.21 91.21v-5.94l-85.27-85.27h-5.94zM81.76 985.79l78.6 78.6v-5.94L87.7 985.79h-5.94zM94.36 985.79l66 66v-5.94l-60.06-60.06h-5.94zM106.97 985.79l53.39 53.39v-5.94l-47.45-47.45h-5.94zM119.58 985.79l40.78 40.78v-5.93l-34.85-34.85h-5.93zM132.18 985.79l28.18 28.18v-5.94l-22.24-22.24h-5.94zM144.79 985.79l15.57 15.57v-5.93l-9.64-9.64h-5.93zM157.39 985.79l2.97 2.97v-2.97h-2.97z"/></g><g><path class="uuid-887494c4-8fcd-46b4-95db-baafd8058d85" d="M9.09 1148.44h151.27v151.27H9.09z"/><path class="uuid-9e62374e-b58c-4b83-952e-9aa8a5b1aa30" d="M9.09 1299.7h2.97l-2.97-2.97v2.97zM9.09 1290.06l9.64 9.64h5.94l-15.58-15.57v5.93zM9.09 1277.46l22.25 22.24h5.93l-28.18-28.18v5.94zM9.09 1264.85l34.85 34.85h5.94l-40.79-40.78v5.93zM9.09 1252.25l47.46 47.45h5.93l-53.39-53.39v5.94zM9.09 1239.64l60.06 60.06h5.94l-66-65.99v5.93zM9.09 1227.04l72.67 72.66h5.94l-78.61-78.6v5.94zM9.09 1214.43l85.27 85.27h5.94l-91.21-91.2v5.93zM9.09 1201.83l97.88 97.87h5.94L9.09 1195.89v5.94zM9.09 1189.22l110.49 110.48h5.93L9.09 1183.28v5.94zM9.09 1176.61l123.09 123.09h5.94L9.09 1170.68v5.93zM9.09 1164.01l135.7 135.69h5.93L9.09 1158.07v5.94zM9.09 1148.44v2.96l148.3 148.3h2.97v-2.97l-148.3-148.29H9.09zM18.73 1148.44l141.63 141.62v-5.93L24.67 1148.44h-5.94zM31.34 1148.44l129.02 129.02v-5.94L37.27 1148.44h-5.93zM43.94 1148.44l116.42 116.41v-5.93L49.88 1148.44h-5.94zM56.55 1148.44l103.81 103.81v-5.94l-97.88-97.87h-5.93zM69.15 1148.44l91.21 91.2v-5.93l-85.27-85.27h-5.94zM81.76 1148.44l78.6 78.6v-5.94l-72.66-72.66h-5.94zM94.36 1148.44l66 65.99v-5.93l-60.06-60.06h-5.94zM106.97 1148.44l53.39 53.39v-5.94l-47.45-47.45h-5.94zM119.58 1148.44l40.78 40.78v-5.94l-34.85-34.84h-5.93zM132.18 1148.44l28.18 28.17v-5.93l-22.24-22.24h-5.94zM144.79 1148.44l15.57 15.57v-5.94l-9.64-9.63h-5.93zM157.39 1148.44l2.97 2.96v-2.96h-2.97z"/></g><g><path class="uuid-629d4732-c0f3-4e63-918d-dfad623cdf33" d="M9.09 1311.08h151.27v151.27H9.09z"/><path class="uuid-36dd17e2-a2e4-4a57-9818-830626696931" d="M9.09 1462.35h2.97l-2.97-2.97v2.97zM9.09 1452.71l9.64 9.64h5.94l-15.58-15.58v5.94zM9.09 1440.11l22.25 22.24h5.93l-28.18-28.18v5.94zM9.09 1427.5l34.85 34.85h5.94l-40.79-40.79v5.94zM9.09 1414.89l47.46 47.46h5.93l-53.39-53.39v5.93zM9.09 1402.29l60.06 60.06h5.94l-66-66v5.94zM9.09 1389.68l72.67 72.67h5.94l-78.61-78.6v5.93zM9.09 1377.08l85.27 85.27h5.94l-91.21-91.21v5.94zM9.09 1364.47l97.88 97.88h5.94L9.09 1358.54v5.93zM9.09 1351.87l110.49 110.48h5.93L9.09 1345.93v5.94zM9.09 1339.26l123.09 123.09h5.94L9.09 1333.32v5.94zM9.09 1326.66l135.7 135.69h5.93L9.09 1320.72v5.94zM9.09 1311.08v2.97l148.3 148.3h2.97v-2.97l-148.3-148.3H9.09zM18.73 1311.08l141.63 141.63v-5.94L24.67 1311.08h-5.94zM31.34 1311.08l129.02 129.03v-5.94L37.27 1311.08h-5.93zM43.94 1311.08l116.42 116.42v-5.94L49.88 1311.08h-5.94zM56.55 1311.08l103.81 103.81v-5.93l-97.88-97.88h-5.93zM69.15 1311.08l91.21 91.21v-5.94l-85.27-85.27h-5.94zM81.76 1311.08l78.6 78.6v-5.93l-72.66-72.67h-5.94zM94.36 1311.08l66 66v-5.94l-60.06-60.06h-5.94zM106.97 1311.08l53.39 53.39v-5.93l-47.45-47.46h-5.94zM119.58 1311.08l40.78 40.79v-5.94l-34.85-34.85h-5.93zM132.18 1311.08l28.18 28.18v-5.94l-22.24-22.24h-5.94zM144.79 1311.08l15.57 15.58v-5.94l-9.64-9.64h-5.93zM157.39 1311.08l2.97 2.97v-2.97h-2.97z"/></g><g><path class="uuid-693fc52f-b4fb-4fb9-a656-e1381571bd4b" d="M9.09 1473.73h151.27V1625H9.09z"/><path class="uuid-8b4b1dbc-b313-4e59-96f1-c62fbe3da5d2" d="M9.09 1624.99h2.97l-2.97-2.96v2.96zM9.09 1615.36l9.64 9.63h5.94l-15.58-15.57v5.94zM9.09 1602.75l22.25 22.24h5.93l-28.18-28.17v5.93zM9.09 1590.15l34.85 34.84h5.94l-40.79-40.78v5.94zM9.09 1577.54l47.46 47.45h5.93L9.09 1571.6v5.94zM9.09 1564.94l60.06 60.05h5.94l-66-65.99v5.94zM9.09 1552.33l72.67 72.66h5.94l-78.61-78.6v5.94zM9.09 1539.72l85.27 85.27h5.94l-91.21-91.2v5.93zM9.09 1527.12l97.88 97.87h5.94L9.09 1521.18v5.94zM9.09 1514.51l110.49 110.48h5.93L9.09 1508.58v5.93zM9.09 1501.91l123.09 123.08h5.94L9.09 1495.97v5.94zM9.09 1489.3l135.7 135.69h5.93L9.09 1483.37v5.93zM9.09 1473.73v2.97l148.3 148.29h2.97v-2.96l-148.3-148.3H9.09zM18.73 1473.73l141.63 141.63v-5.94L24.67 1473.73h-5.94zM31.34 1473.73l129.02 129.02v-5.93L37.27 1473.73h-5.93zM43.94 1473.73l116.42 116.42v-5.94L49.88 1473.73h-5.94zM56.55 1473.73l103.81 103.81v-5.94l-97.88-97.87h-5.93zM69.15 1473.73l91.21 91.21V1559l-85.27-85.27h-5.94zM81.76 1473.73l78.6 78.6v-5.94l-72.66-72.66h-5.94zM94.36 1473.73l66 65.99v-5.93l-60.06-60.06h-5.94zM106.97 1473.73l53.39 53.39v-5.94l-47.45-47.45h-5.94zM119.58 1473.73l40.78 40.78v-5.93l-34.85-34.85h-5.93zM132.18 1473.73l28.18 28.18v-5.94l-22.24-22.24h-5.94zM144.79 1473.73l15.57 15.57v-5.93l-9.64-9.64h-5.93zM157.39 1473.73l2.97 2.97v-2.97h-2.97z"/></g><g><path class="uuid-ae853ba9-fd01-4f6d-8232-6f8ca9c9cc0f" d="M177.59 101.12v-35.5h7.23v29.47h17.97v6.03h-25.2zM230.83 87.96l7.01 2.22c-1.07 3.91-2.86 6.81-5.36 8.7-2.5 1.9-5.67 2.84-9.51 2.84-4.75 0-8.66-1.62-11.72-4.87-3.06-3.25-4.59-7.69-4.59-13.32 0-5.96 1.54-10.58 4.61-13.88 3.08-3.3 7.12-4.94 12.13-4.94 4.38 0 7.93 1.29 10.67 3.88 1.63 1.53 2.85 3.73 3.66 6.59l-7.15 1.71c-.42-1.86-1.31-3.32-2.65-4.39-1.34-1.07-2.97-1.61-4.89-1.61-2.65 0-4.81.95-6.46 2.86-1.65 1.9-2.48 4.99-2.48 9.25 0 4.53.81 7.75 2.44 9.67s3.74 2.88 6.35 2.88c1.92 0 3.57-.61 4.96-1.83 1.38-1.22 2.38-3.14 2.98-5.76zM240.94 101.12V94.6l18.8-23.22h-16.67v-6.05h26.2v5.62l-19.6 24.15h20.36v6.03h-29.08z"/></g><g><path class="uuid-5696180a-06e8-499c-b7fb-08d9bc726e61" d="M177.42 259.31v-35.79h7.23v14.09h14.16v-14.09h7.23v35.79h-7.23v-15.65h-14.16v15.65h-7.23zM236.4 246.15l7.01 2.22c-1.07 3.91-2.86 6.81-5.36 8.7-2.5 1.9-5.67 2.84-9.51 2.84-4.75 0-8.66-1.62-11.72-4.87-3.06-3.25-4.59-7.69-4.59-13.32 0-5.96 1.54-10.58 4.61-13.88 3.08-3.3 7.12-4.94 12.13-4.94 4.38 0 7.93 1.29 10.67 3.88 1.63 1.53 2.85 3.73 3.66 6.59l-7.15 1.71c-.42-1.86-1.31-3.32-2.65-4.39-1.34-1.07-2.97-1.61-4.89-1.61-2.65 0-4.81.95-6.46 2.86-1.65 1.9-2.48 4.99-2.48 9.25 0 4.53.81 7.75 2.44 9.67s3.74 2.88 6.35 2.88c1.92 0 3.57-.61 4.96-1.83 1.38-1.22 2.38-3.14 2.98-5.76zM246.51 259.31v-6.52l18.8-23.22h-16.67v-6.05h26.2v5.62l-19.6 24.15h20.36v6.03h-29.08zM279.32 249.77v-6.86h13.48v6.86h-13.48zM296.82 223.52h14.31c2.83 0 4.94.12 6.34.35 1.39.24 2.64.73 3.73 1.48 1.1.75 2.01 1.75 2.75 2.99.73 1.24 1.1 2.64 1.1 4.19 0 1.68-.45 3.21-1.36 4.61-.9 1.4-2.13 2.45-3.67 3.15 2.18.63 3.86 1.72 5.03 3.25 1.17 1.53 1.76 3.33 1.76 5.4 0 1.63-.38 3.21-1.13 4.75-.76 1.54-1.79 2.77-3.1 3.69-1.31.92-2.93 1.49-4.85 1.7-1.21.13-4.11.21-8.72.24h-12.18v-35.79zm7.23 5.96v8.28h4.74c2.82 0 4.57-.04 5.25-.12 1.24-.15 2.21-.57 2.92-1.28s1.06-1.64 1.06-2.8-.3-2.01-.92-2.7c-.61-.69-1.52-1.11-2.72-1.26-.72-.08-2.78-.12-6.18-.12h-4.15zm0 14.23v9.57h6.69c2.6 0 4.26-.07 4.96-.22 1.07-.2 1.95-.67 2.62-1.43.68-.76 1.01-1.77 1.01-3.04 0-1.07-.26-1.99-.78-2.73-.52-.75-1.27-1.29-2.26-1.64-.99-.34-3.12-.51-6.41-.51h-5.83z"/></g><g><path class="uuid-f317d477-12c4-4e74-a015-81ad4466e50d" d="M177.42 420.47v-35.79h7.23v14.09h14.16v-14.09h7.23v35.79h-7.23v-15.65h-14.16v15.65h-7.23zM236.4 407.32l7.01 2.22c-1.07 3.91-2.86 6.81-5.36 8.7-2.5 1.9-5.67 2.84-9.51 2.84-4.75 0-8.66-1.62-11.72-4.87-3.06-3.25-4.59-7.69-4.59-13.32 0-5.96 1.54-10.58 4.61-13.88 3.08-3.3 7.12-4.94 12.13-4.94 4.38 0 7.93 1.29 10.67 3.88 1.63 1.53 2.85 3.73 3.66 6.59l-7.15 1.71c-.42-1.86-1.31-3.32-2.65-4.39-1.34-1.07-2.97-1.61-4.89-1.61-2.65 0-4.81.95-6.46 2.86-1.65 1.9-2.48 4.99-2.48 9.25 0 4.53.81 7.75 2.44 9.67s3.74 2.88 6.35 2.88c1.92 0 3.57-.61 4.96-1.83 1.38-1.22 2.38-3.14 2.98-5.76zM246.51 420.47v-6.52l18.8-23.22h-16.67v-6.05h26.2v5.62l-19.6 24.15h20.36v6.03h-29.08zM279.32 410.93v-6.86h13.48v6.86h-13.48zM329.08 420.47h-7.86l-3.12-8.13h-14.31l-2.95 8.13h-7.67l13.94-35.79h7.64l14.33 35.79zm-13.31-14.16-4.93-13.28-4.83 13.28h9.77z"/></g><g><path class="uuid-0057c76f-0f51-422a-b624-373af1079129" d="M177.39 583.12v-35.79h26.54v6.05h-19.31v7.93h17.97v6.03h-17.97v9.74h20v6.03H177.4zM207.64 583.12v-6.52l18.8-23.22h-16.67v-6.05h26.2v5.62l-19.6 24.15h20.36v6.03h-29.08z"/></g><g><path class="uuid-8befe4d1-20e7-4909-b285-a338ea936ec4" d="m175.56 734.12 7.03-.68c.42 2.36 1.28 4.09 2.58 5.2 1.29 1.11 3.04 1.66 5.24 1.66 2.33 0 4.08-.49 5.26-1.48 1.18-.99 1.77-2.14 1.77-3.46 0-.85-.25-1.57-.74-2.16-.5-.59-1.36-1.11-2.6-1.55-.85-.29-2.78-.81-5.79-1.56-3.87-.96-6.59-2.14-8.15-3.54-2.2-1.97-3.3-4.37-3.3-7.2 0-1.82.52-3.53 1.55-5.12 1.03-1.59 2.52-2.79 4.47-3.62 1.94-.83 4.29-1.25 7.04-1.25 4.49 0 7.87.99 10.14 2.95 2.27 1.97 3.46 4.6 3.58 7.89l-7.23.32c-.31-1.84-.97-3.16-1.99-3.97s-2.54-1.21-4.58-1.21-3.74.43-4.93 1.29c-.77.55-1.15 1.29-1.15 2.22 0 .85.36 1.57 1.07 2.17.91.77 3.12 1.56 6.64 2.39s6.12 1.69 7.8 2.58c1.68.89 3 2.1 3.96 3.64.95 1.54 1.43 3.44 1.43 5.7 0 2.05-.57 3.97-1.71 5.76-1.14 1.79-2.75 3.12-4.83 3.99-2.08.87-4.68 1.31-7.79 1.31-4.53 0-8-1.05-10.42-3.14-2.43-2.09-3.87-5.14-4.35-9.14zM210.76 745.77v-35.79h7.23v14.09h14.16v-14.09h7.23v35.79h-7.23v-15.65h-14.16v15.65h-7.23zM269.75 732.61l7.01 2.22c-1.07 3.91-2.86 6.81-5.36 8.7-2.5 1.9-5.67 2.84-9.51 2.84-4.75 0-8.66-1.62-11.72-4.87-3.06-3.25-4.59-7.69-4.59-13.32 0-5.96 1.54-10.58 4.61-13.88 3.08-3.3 7.12-4.94 12.13-4.94 4.38 0 7.93 1.29 10.67 3.88 1.63 1.53 2.85 3.73 3.66 6.59l-7.15 1.71c-.42-1.86-1.31-3.32-2.65-4.39-1.34-1.07-2.97-1.61-4.89-1.61-2.65 0-4.81.95-6.46 2.86-1.65 1.9-2.48 4.99-2.48 9.25 0 4.53.81 7.75 2.44 9.67s3.74 2.88 6.35 2.88c1.92 0 3.57-.61 4.96-1.83 1.38-1.22 2.38-3.14 2.98-5.76zM279.86 745.77v-6.52l18.8-23.22h-16.67v-6.05h26.2v5.62l-19.6 24.15h20.36v6.03h-29.08z"/></g><g><path class="uuid-c32fbc01-566a-4c49-86d3-d75000d93e97" d="M176.8 872.62h7.23v8.54c0 2.77.1 4.6.31 5.51.2.9.81 1.69 1.82 2.36 1.01.67 2.49 1 4.44 1 1.55 0 2.92-.17 4.13-.5 1.2-.33 2.25-.83 3.12-1.48v-15.43h7.23v35.79h-7.23v-14.4c-1.46.65-2.91 1.14-4.32 1.48-1.42.33-2.81.5-4.17.5-3.56 0-6.55-.84-8.95-2.53-2.4-1.69-3.6-4.6-3.6-8.75v-12.08zM227.49 900.16l6.84 1.15c-.88 2.51-2.27 4.42-4.16 5.73-1.9 1.31-4.27 1.96-7.12 1.96-4.51 0-7.85-1.47-10.01-4.42-1.71-2.36-2.56-5.34-2.56-8.94 0-4.3 1.12-7.66 3.37-10.09 2.25-2.43 5.09-3.65 8.52-3.65 3.86 0 6.9 1.27 9.13 3.82 2.23 2.55 3.3 6.45 3.2 11.71h-17.19c.05 2.04.6 3.62 1.66 4.75s2.38 1.7 3.96 1.7c1.07 0 1.98-.29 2.71-.88s1.29-1.53 1.66-2.83zm.39-6.93c-.05-1.99-.56-3.5-1.54-4.53-.98-1.03-2.17-1.55-3.56-1.55-1.5 0-2.73.55-3.71 1.64-.98 1.09-1.46 2.57-1.44 4.44h10.25zM240.01 882.49h6.84v10.6c1.14-.13 1.94-.48 2.42-1.05.47-.57 1.04-1.81 1.71-3.74.88-2.55 1.84-4.19 2.88-4.91 1.04-.72 2.41-1.07 4.1-1.07.52 0 1.42.04 2.71.12l.02 4.54c-1.81 0-2.96.17-3.47.51-.5.36-1.05 1.42-1.64 3.2-.8 2.39-1.95 3.87-3.44 4.42 2.16.6 4 2.48 5.49 5.64.08.16.17.33.27.51l3.83 7.15h-7.37l-3.42-7.5c-.7-1.51-1.31-2.49-1.82-2.92-.51-.43-1.27-.65-2.28-.65v11.06H240v-25.93zM265.04 882.49h23.02v25.93h-6.86v-20.39h-9.3v20.39h-6.86v-25.93zM293.92 895.08c0-2.28.56-4.48 1.68-6.62 1.12-2.13 2.71-3.76 4.77-4.88 2.06-1.12 4.36-1.68 6.9-1.68 3.92 0 7.14 1.27 9.64 3.82 2.51 2.55 3.76 5.77 3.76 9.66s-1.27 7.17-3.8 9.75-5.72 3.87-9.56 3.87c-2.38 0-4.64-.54-6.8-1.61s-3.8-2.65-4.92-4.72-1.68-4.6-1.68-7.58zm7.03.37c0 2.57.61 4.54 1.83 5.91s2.73 2.05 4.52 2.05 3.29-.68 4.5-2.05c1.21-1.37 1.82-3.35 1.82-5.96s-.61-4.49-1.82-5.86-2.71-2.05-4.5-2.05-3.3.68-4.52 2.05-1.83 3.34-1.83 5.91zM325.88 882.49h6.59v16.28l10.55-16.28h6.74v25.93h-6.59v-16.58l-10.69 16.58h-6.59v-25.93zM356.52 882.49h6.86v9.5h9.81v-9.5h6.88v25.93h-6.88v-10.89h-9.81v10.89h-6.86v-25.93zM383.91 882.49h23.46v5.54h-8.3v20.39h-6.86v-20.39h-8.3v-5.54zM411.52 882.49h6.86v10.77h6.88c2.7 0 4.76.19 6.19.57 1.42.38 2.63 1.22 3.61 2.5.98 1.29 1.48 2.8 1.48 4.54 0 2.51-.86 4.39-2.59 5.65-1.73 1.26-4.31 1.89-7.76 1.89h-14.67v-25.93zm6.86 21.58h6.37c1.66 0 2.86-.26 3.61-.78s1.12-1.37 1.12-2.54c0-1.25-.48-2.11-1.45-2.58-.97-.46-2.71-.7-5.21-.7h-4.44v6.59zm22.07-21.58h6.86v25.93h-6.86v-25.93z"/></g><g><path class="uuid-239fe3a9-7ed7-462c-ac47-b0958d7e3041" d="M185.45 1071.06v-29.74h-10.62v-6.05h28.44v6.05h-10.6v29.74h-7.23zM208.03 1035.27h28.47v35.79h-7.23v-29.79h-14.01v29.79h-7.23v-35.79z"/></g><g><path class="uuid-9e62374e-b58c-4b83-952e-9aa8a5b1aa30" d="M177.49 1197.92h28.47v35.79h-7.23v-29.79h-14.01v29.79h-7.23v-35.79zM211.69 1220.38c0-2.28.56-4.48 1.68-6.62 1.12-2.13 2.71-3.76 4.77-4.88 2.06-1.12 4.36-1.68 6.9-1.68 3.92 0 7.14 1.27 9.64 3.82 2.51 2.55 3.76 5.77 3.76 9.66s-1.27 7.17-3.8 9.75-5.72 3.87-9.56 3.87c-2.38 0-4.64-.54-6.8-1.61s-3.8-2.65-4.92-4.72-1.68-4.6-1.68-7.58zm7.03.36c0 2.57.61 4.54 1.83 5.91s2.73 2.05 4.52 2.05 3.29-.68 4.5-2.05c1.21-1.37 1.82-3.35 1.82-5.96s-.61-4.49-1.82-5.86-2.71-2.05-4.5-2.05-3.3.68-4.52 2.05-1.83 3.34-1.83 5.91zM243.89 1207.78h15.01c3.08 0 5.38.56 6.91 1.68 1.53 1.12 2.29 2.82 2.29 5.08 0 1.45-.42 2.71-1.26 3.78-.84 1.07-1.89 1.79-3.16 2.15 1.79.44 3.12 1.26 4 2.47.88 1.21 1.32 2.52 1.32 3.96 0 2.02-.74 3.66-2.22 4.92-1.48 1.26-3.67 1.89-6.57 1.89h-16.33v-25.93zm6.91 10.76h4.42c2.13 0 3.67-.27 4.63-.81.95-.54 1.43-1.38 1.43-2.54 0-1.09-.44-1.87-1.33-2.33-.89-.46-2.46-.7-4.72-.7h-4.42v6.37zm0 10.77h5.42c1.95 0 3.38-.24 4.27-.71.89-.47 1.34-1.32 1.34-2.54s-.51-2.14-1.54-2.62-3.02-.72-5.98-.72h-3.52v6.59zM288.91 1225.45l6.84 1.15c-.88 2.51-2.27 4.42-4.16 5.73-1.9 1.31-4.27 1.96-7.12 1.96-4.51 0-7.85-1.47-10.01-4.42-1.71-2.36-2.56-5.34-2.56-8.94 0-4.3 1.12-7.66 3.37-10.09 2.25-2.43 5.09-3.65 8.52-3.65 3.86 0 6.9 1.27 9.13 3.82 2.23 2.55 3.3 6.45 3.2 11.71h-17.19c.05 2.04.6 3.62 1.66 4.75s2.38 1.7 3.96 1.7c1.07 0 1.98-.29 2.71-.88s1.29-1.53 1.66-2.83zm.39-6.93c-.05-1.99-.56-3.5-1.54-4.53-.98-1.03-2.17-1.55-3.56-1.55-1.5 0-2.73.55-3.71 1.64-.98 1.09-1.46 2.57-1.44 4.44h10.25zM301.51 1207.78h6.4v3.81c.83-1.3 1.95-2.36 3.37-3.17 1.42-.81 2.99-1.22 4.71-1.22 3.01 0 5.57 1.18 7.67 3.54 2.1 2.36 3.15 5.65 3.15 9.86s-1.06 7.69-3.17 10.09c-2.12 2.4-4.68 3.6-7.69 3.6-1.43 0-2.73-.29-3.89-.85-1.16-.57-2.39-1.55-3.67-2.93v13.06h-6.86v-35.79zm6.79 12.52c0 2.91.58 5.07 1.73 6.46 1.16 1.39 2.56 2.09 4.22 2.09s2.92-.64 3.98-1.92c1.06-1.28 1.59-3.37 1.59-6.29 0-2.72-.55-4.74-1.64-6.05-1.09-1.32-2.44-1.98-4.05-1.98s-3.07.65-4.17 1.94c-1.11 1.29-1.66 3.21-1.66 5.75zM328.29 1233.71l9.35-13.35-8.96-12.57h8.37l4.59 7.13 4.83-7.13h8.06l-8.79 12.28 9.59 13.65h-8.42l-5.27-8.03-5.32 8.03h-8.03zM359.13 1207.78h6.86v9.5h9.81v-9.5h6.88v25.93h-6.88v-10.89h-9.81v10.89h-6.86v-25.93zM388.01 1220.38c0-2.28.56-4.48 1.68-6.62 1.12-2.13 2.71-3.76 4.77-4.88 2.06-1.12 4.36-1.68 6.9-1.68 3.92 0 7.14 1.27 9.64 3.82 2.51 2.55 3.76 5.77 3.76 9.66s-1.27 7.17-3.8 9.75-5.72 3.87-9.56 3.87c-2.38 0-4.64-.54-6.8-1.61s-3.8-2.65-4.92-4.72-1.68-4.6-1.68-7.58zm7.03.36c0 2.57.61 4.54 1.83 5.91s2.73 2.05 4.52 2.05 3.29-.68 4.5-2.05c1.21-1.37 1.82-3.35 1.82-5.96s-.61-4.49-1.82-5.86-2.71-2.05-4.5-2.05-3.3.68-4.52 2.05-1.83 3.34-1.83 5.91zM442.09 1215.44l-6.76 1.22c-.23-1.35-.74-2.37-1.55-3.05-.8-.68-1.85-1.03-3.14-1.03-1.71 0-3.07.59-4.09 1.77-1.02 1.18-1.53 3.15-1.53 5.92 0 3.08.52 5.25 1.55 6.52 1.03 1.27 2.42 1.9 4.16 1.9 1.3 0 2.37-.37 3.2-1.11.83-.74 1.42-2.01 1.76-3.82l6.74 1.15c-.7 3.09-2.04 5.43-4.03 7.01-1.99 1.58-4.65 2.37-7.98 2.37-3.79 0-6.82-1.2-9.07-3.59-2.25-2.39-3.38-5.7-3.38-9.94s1.13-7.61 3.39-10c2.26-2.38 5.32-3.58 9.18-3.58 3.16 0 5.67.68 7.53 2.04 1.86 1.36 3.2 3.43 4.02 6.21zM444.21 1207.78h23.46v5.54h-8.3v20.39h-6.86v-20.39h-8.3v-5.54zM471.92 1207.78h6.86v10.77h6.88c2.7 0 4.78.2 6.23.59 1.45.39 2.65 1.23 3.61 2.53.96 1.29 1.44 2.8 1.44 4.5 0 2.51-.86 4.39-2.58 5.65-1.72 1.26-4.29 1.89-7.73 1.89h-14.72v-25.93zm6.86 21.58h6.4c2 0 3.28-.33 3.85-.98.56-.65.84-1.42.84-2.32 0-1.25-.48-2.12-1.45-2.59-.97-.47-2.69-.71-5.16-.71h-4.47v6.59z"/></g><g><path class="uuid-36dd17e2-a2e4-4a57-9818-830626696931" d="m200.29 1383.19 7.01 2.22c-1.07 3.91-2.86 6.81-5.36 8.7-2.5 1.9-5.67 2.84-9.51 2.84-4.75 0-8.66-1.62-11.72-4.87-3.06-3.25-4.59-7.69-4.59-13.32 0-5.96 1.54-10.58 4.61-13.88 3.08-3.3 7.12-4.94 12.13-4.94 4.38 0 7.93 1.29 10.67 3.88 1.63 1.53 2.85 3.73 3.66 6.59l-7.15 1.71c-.42-1.86-1.31-3.32-2.65-4.39-1.34-1.07-2.97-1.61-4.89-1.61-2.65 0-4.81.95-6.46 2.86-1.65 1.9-2.48 4.99-2.48 9.25 0 4.53.81 7.75 2.44 9.67s3.74 2.88 6.35 2.88c1.92 0 3.57-.61 4.96-1.83 1.38-1.22 2.38-3.14 2.98-5.76zM213.18 1370.42h6.84v10.6c1.14-.13 1.94-.48 2.42-1.05.47-.57 1.04-1.81 1.71-3.74.88-2.55 1.84-4.19 2.88-4.91 1.04-.72 2.41-1.07 4.1-1.07.52 0 1.42.04 2.71.12l.02 4.54c-1.81 0-2.96.17-3.47.51-.5.36-1.05 1.42-1.64 3.2-.8 2.39-1.95 3.87-3.44 4.42 2.16.6 4 2.48 5.49 5.64.08.16.17.33.27.51l3.83 7.15h-7.37l-3.42-7.5c-.7-1.51-1.31-2.49-1.82-2.92-.51-.43-1.27-.65-2.28-.65v11.06h-6.84v-25.93zM240.94 1370.42h22.97v25.93h-6.84v-20.36h-9.35v11.65c0 2.96-.34 5.04-1.03 6.24-.68 1.2-1.44 1.98-2.27 2.36s-2.17.56-4 .56c-1.09 0-2.53-.15-4.32-.44v-5.05c.15 0 .53.02 1.15.05.72.05 1.27.07 1.66.07.93 0 1.5-.3 1.71-.92.21-.61.32-2.31.32-5.09v-14.99zM275.97 1378.33l-6.23-1.12c.7-2.51 1.9-4.36 3.61-5.57 1.71-1.2 4.25-1.81 7.62-1.81 3.06 0 5.34.36 6.84 1.09 1.5.72 2.55 1.64 3.16 2.76.61 1.11.92 3.16.92 6.14l-.07 8.01c0 2.28.11 3.96.33 5.04.22 1.08.63 2.24 1.23 3.48h-6.79c-.18-.46-.4-1.13-.66-2.03-.11-.41-.2-.67-.24-.81-1.17 1.14-2.43 1.99-3.76 2.56-1.33.57-2.76.85-4.27.85-2.67 0-4.77-.72-6.31-2.17s-2.31-3.28-2.31-5.49c0-1.46.35-2.77 1.05-3.92.7-1.15 1.68-2.03 2.94-2.64 1.26-.61 3.08-1.14 5.46-1.6 3.21-.6 5.43-1.16 6.67-1.68v-.68c0-1.32-.33-2.26-.98-2.82-.65-.56-1.88-.84-3.69-.84-1.22 0-2.17.24-2.86.72-.68.48-1.24 1.32-1.66 2.53zm9.18 5.57c-.88.29-2.27.64-4.17 1.05-1.9.41-3.15.81-3.74 1.2-.9.63-1.34 1.44-1.34 2.42s.36 1.79 1.07 2.49c.72.7 1.63 1.05 2.73 1.05 1.24 0 2.42-.41 3.54-1.22.83-.62 1.38-1.38 1.64-2.27.18-.59.27-1.7.27-3.34v-1.37zM320.09 1396.35h-19.63v6.84h-5.57v-12.45h2.81c1.17-1.3 2.14-3.34 2.91-6.1.76-2.77 1.22-7.5 1.37-14.21h20.92v20.31h2.78v12.45h-5.59v-6.84zm-3.98-5.61.02-14.67h-8.3c-.28 7.16-1.42 12.05-3.42 14.67h11.69z"/></g><g><path class="uuid-8b4b1dbc-b313-4e59-96f1-c62fbe3da5d2" d="M179.41 1522.78h28.47v35.79h-7.23v-29.79h-14.01v29.79h-7.23v-35.79zM213.61 1545.24c0-2.28.56-4.48 1.68-6.62 1.12-2.13 2.71-3.76 4.77-4.88 2.06-1.12 4.36-1.68 6.9-1.68 3.92 0 7.14 1.27 9.64 3.82 2.51 2.55 3.76 5.77 3.76 9.66s-1.27 7.17-3.8 9.75-5.72 3.87-9.56 3.87c-2.38 0-4.64-.54-6.8-1.61s-3.8-2.65-4.92-4.72-1.68-4.6-1.68-7.58zm7.03.36c0 2.57.61 4.54 1.83 5.91s2.73 2.05 4.52 2.05 3.29-.68 4.5-2.05c1.21-1.37 1.82-3.35 1.82-5.96s-.61-4.49-1.82-5.86-2.71-2.05-4.5-2.05-3.3.68-4.52 2.05-1.83 3.34-1.83 5.91zM266.51 1558.57h-19.63v6.84h-5.57v-12.45h2.81c1.17-1.3 2.14-3.34 2.91-6.1.76-2.77 1.22-7.5 1.37-14.21h20.92v20.31h2.78v12.45h-5.59v-6.84zm-3.97-5.62.02-14.67h-8.3c-.28 7.16-1.42 12.05-3.42 14.67h11.69zM276.89 1532.64h15.01c3.08 0 5.38.56 6.91 1.68 1.53 1.12 2.29 2.82 2.29 5.08 0 1.45-.42 2.71-1.26 3.79-.84 1.07-1.89 1.79-3.16 2.15 1.79.44 3.12 1.26 4 2.46.88 1.21 1.32 2.52 1.32 3.96 0 2.02-.74 3.66-2.22 4.92-1.48 1.26-3.67 1.89-6.57 1.89h-16.33v-25.93zm6.91 10.76h4.42c2.13 0 3.67-.27 4.63-.8.95-.54 1.43-1.38 1.43-2.54 0-1.09-.44-1.87-1.33-2.33-.89-.46-2.46-.7-4.72-.7h-4.42v6.37zm0 10.77h5.42c1.95 0 3.38-.24 4.27-.71.89-.47 1.34-1.32 1.34-2.54s-.51-2.14-1.54-2.62-3.02-.72-5.98-.72h-3.52v6.59zM312.02 1540.55l-6.23-1.12c.7-2.51 1.9-4.36 3.61-5.57s4.25-1.81 7.62-1.81c3.06 0 5.34.36 6.84 1.09 1.5.72 2.55 1.64 3.16 2.76.61 1.11.92 3.16.92 6.14l-.07 8.01c0 2.28.11 3.96.33 5.04.22 1.08.63 2.24 1.23 3.48h-6.79c-.18-.46-.4-1.13-.66-2.03-.11-.41-.2-.67-.24-.8-1.17 1.14-2.43 1.99-3.76 2.56-1.33.57-2.76.86-4.27.86-2.67 0-4.77-.72-6.31-2.17s-2.31-3.28-2.31-5.49c0-1.46.35-2.77 1.05-3.92.7-1.15 1.68-2.03 2.94-2.64 1.26-.61 3.08-1.14 5.46-1.6 3.21-.6 5.43-1.16 6.67-1.69v-.68c0-1.32-.33-2.26-.98-2.82-.65-.56-1.88-.84-3.69-.84-1.22 0-2.17.24-2.86.72s-1.24 1.32-1.66 2.53zm9.18 5.57c-.88.29-2.27.64-4.17 1.05-1.9.41-3.15.81-3.74 1.2-.9.63-1.34 1.44-1.34 2.42s.36 1.79 1.07 2.49c.72.7 1.63 1.05 2.73 1.05 1.24 0 2.42-.41 3.54-1.22.83-.62 1.38-1.38 1.64-2.27.18-.59.27-1.7.27-3.34v-1.37zM336.56 1532.64h22.97v25.93h-6.84v-20.36h-9.35v11.64c0 2.96-.34 5.04-1.03 6.24-.68 1.2-1.44 1.98-2.27 2.36-.83.38-2.17.56-4 .56-1.09 0-2.53-.15-4.32-.44v-5.05c.15 0 .53.02 1.15.05.72.05 1.27.07 1.66.07.93 0 1.5-.3 1.71-.92.21-.61.32-2.31.32-5.09v-14.99z"/></g></g></g><g id="uuid-5a25da13-3a28-4863-9893-14e331a48075" data-name="-1-1 Уровень"><path class="uuid-3f42bde7-a509-4f96-86df-b88d4b30b37d" d="M-8.28-13.04h6209.15v3492.65H-8.28z"/><g id="uuid-f815559a-9768-4881-948a-3a0303ec6f38" data-name="Подвал"><path class="uuid-d5b8ed96-e632-414d-9638-6857ced0d5b9" d="M3373.73 1920.06v67.03h-17.89v-40.84h-9.42v25.52h9.16v26.18h-27.05v-77.89h45.2zM3928.69 1554.72v67.03h-17.9v-40.84h-9.41v25.52h9.01v26.19h-26.91v-77.9h45.21z"/></g><path id="uuid-60e44534-3094-4c99-90af-9fcc67b81455" data-name="HCZ-B" style="stroke:#ffc550;fill:url(#uuid-89decbe6-c1b0-46b2-9b06-b3b1a0d46e97);stroke-width:2px;stroke-miterlimit:10" d="M3950.2 1686.67v3.13h3.13v38.27h-7.54v1.45h-10.09v-1.45h-6.99v-38.27h-17.91v-3.13h-3.13v-14.16h3.13v-50.75h39.4v50.75h3.13v14.16h-3.13z"/><g id="uuid-9729ddb1-bb74-4659-8a0f-ca8599233e74" data-name="Склад"><path class="uuid-2d9f0009-cc72-49dd-8f0f-a9d8635093c2" d="M3395.24 2051.99v3.14h3.13v38.27h-7.54v1.44h-10.09v-1.44h-6.99v-38.27h-17.91v-3.14h-3.13v-14.15h3.13v-50.75h39.4v50.75h3.13v14.15h-3.13z"/><path class="uuid-2d9f0009-cc72-49dd-8f0f-a9d8635093c2" d="M3520.97 1865.52v346.91h-93.12v-58.41H3403v58.41h-8.05v.98h-10.08v-.98h-8.05v-58.41h-13.65v-56.18h17.57v-1.23h10.09v1.23h10.62v-232.32h119.52z"/></g><g id="uuid-511aa4ea-739a-488e-b5b8-46391c188f86" data-name="ТП"><path id="uuid-14b506ec-66f9-4476-a31d-12067e62e500" data-name="ТП" class="uuid-f7ba1562-531a-438b-bdf0-cd43ea4cb782" d="M4431.99 2077.41v105.14l-126.98 126.98-133.14-.01h-868.63l-72.18 72.18v483.23l-126.8 126.8h-487.51v-10.3h4.49v-12.34h-6.06v-47.52h6.06v-11.97h-4.49v-10.52h61.03v-1.24h10.08v1.24h377.67l72.18-72.19.01-445.19-72.18-72.18h-556.9l-240.38-75.91h-510.02v-92.66h535.99l240.15 75.23h531.16l72.18-72.18-.01-526.79h93.35V2144l72.18 72.18h81.63v-1h10.08v1h871.87l72.28-72.28v-66.49h92.89z"/><path class="uuid-f7ba1562-531a-438b-bdf0-cd43ea4cb782" d="M2687.86 2894.83h24.24v-32.91h-95.35v32.91h61.03v1.24h10.08v-1.24z"/></g><g id="uuid-9a637897-f6ca-49ab-af93-5de788f2552f" data-name="Gate-B"><path class="uuid-c6fd8b8b-57fe-42d9-b181-15938c20a49c" d="M2484.71 2921.57v-22.49h117.95v10.52h-4.26v11.97h5.83v47.52h-5.83v12.34h4.26v67.6h-45.45v-43.44l-20.12-20.12h-52.38v-16.38h-6.06v-47.52h6.06zM2467.7 2921.57v47.52h-6.05v83.53l-144.36 144.35 15.79 15.79 2.78-2.78 9.38 9.38-39.16 39.16-9.38-9.38 2.78-2.78-15.78-15.79-2.69 2.69v79.47l-37.13 37.13h-57.76V3036.3h-25.52v-113.73h25.52v-56.41h275.53v55.41h6.05z"/></g><g id="uuid-6699e415-aa5c-40ff-8dfc-a88e0573f83d" data-name="HCZ-A"><path class="uuid-ec21547f-0e7f-4e23-bdb3-3f6f9f1b7633" d="M1139.66 3053h15.4c0 14.1-11.43 25.53-25.53 25.53s-25.52-11.43-25.52-25.52h15.39c0 5.59 4.54 10.12 10.13 10.12s10.13-4.53 10.13-10.13zM1153.4 3045.67v1.16h1.66v6.17h-15.4v-6.17h2.75v-1.16h-29.54v-39.84h58.86v39.84h-18.33z"/></g><g id="uuid-b7e8466b-83eb-49b0-87cc-85d59ed41104" data-name="SHCZ"><path class="uuid-ad959328-6c8e-446f-9052-4bcf716b29e9" d="M3459.61 1186.5h-75.43v82.14h10.68v1.03h10.08v-1.03h140.38v-82.14h-75.62v-1.25h-10.09v1.25zM4007.23 1779.37h13.23v55.71h-14.51l-.45-1.79h-3.58v5.15h-11.86v-5.15h-3.59s-.48 1.79-.45 1.79h-109.2v-20.35l1.79-.45v-3.67h-5.03v-11.86h5.03v-3.5s-1.79-.48-1.79-.45v-62.43h59.58v-1.08h10.08v1.08h10.42v47.01h40.24v-4.03h-35.96v-42.97h59.3v42.97h-13.26v4.03zM3506.51 1763.03h6.62l1.8 1.79h38.7v-10.87h3.82v27.41h19.2v1.33h10.09v-1.33h9.18v3.82h27.09v-104.74h-68.93v56.84h3.37v6.59h-3.82v-63.43h-88.39v84.38h21.04l1.79-1.79h6.58v5.12h11.86v-5.12zM3618.99 1413.18h-3.81l-3.34 3.35-.62-.62-3.83 3.83.62.62-3.35 3.35v4.02h-1.8l-1.79-1.79h-6.62v-.01h3.94v-6.04l12.95-12.95h5.84v2.67l1.8 1.79.01 1.78zM3648.95 1268.86h-9.17v-53.75h.43c.18-.17.27-.27.44-.44v-7.87c-.17-.17-.26-.27-.44-.44h-.43v-17.46h9.17c0 .11.45 1.8.45 1.8h3.46v-4.89h11.86v4.89h3.72s.45-1.73.45-1.8h8.92v17.46h-.44c-.17.17-.26.27-.43.44v7.87c.17.17.26.27.43.44h.44v23.51h-3.33v6.04h3.33v24.2h-8.92c0-.07-.45-1.79-.45-1.79h-3.73c.03.22 0 4.89 0 4.89h-11.86v-4.89h-3.45s-.45 1.68-.45 1.79z"/><path class="uuid-ad959328-6c8e-446f-9052-4bcf716b29e9" d="M3763.52 1648.43v27.29h-1.8l-1.79-1.79h-25.06l-1.79 1.79-1.79.02v-3.81l-3.34-3.35.62-.62-3.83-3.83-.62.63-3.35-3.36h-4.02v-1.79l1.79-1.79v-2.68h-.01v-3.91c-.18.03-12.06 0-12.49 0v6.61l1.79 1.8.02 1.78h-17.25v-.9h-7.16v.9h-30.88v-.9h-7.16v.9h-17.23v-1.78l1.78-1.8v-1.58h-.01v-5.03h-12.79v6.6l1.79 1.79v1.8h-60.82v-1.8l1.79-1.79v-2.71h-.01v-3.89h-12.79v6.61l1.79 1.8.02 1.78h-17.25v-.9h-7.16v.9h-30.88v-.9h-7.16v.9h-17.23v-1.78l1.78-1.8v-1.58h-.01v-5.03h-12.99v6.63l1.79 1.79v1.76h-4.02l-3.35 3.35-.62-.62-3.83 3.82.62.62-3.35 3.35v3.81l-1.78-.02-1.79-1.79h-6.62v12.95h5.04l2.27.01 1.79-1.79h1.8v17.24h-.9v7.16h.89v30.88h-.89v7.16h.89v17.23h-1.79l-1.79-1.79h-7.31V1776h3.96l3.37.01 1.79-1.79h1.78v3.8l3.35 3.34-.62.62 3.82 3.83.62-.62 3.36 3.35h4.02v1.8l-1.79 1.79v6.58h12.51v-3.95h.72v-2.65l-1.8-1.79v-1.78h3.8l3.34-3.35.62.62 3.83-3.82-.62-.63 3.35-3.35v-4.02h1.8l1.79 1.79h1.95l3.91-.01v-4.93h11.86v4.93h3.91l3.43.01 1.8-1.79h1.75v4.02l3.35 3.35-.62.63 3.82 3.82.62-.62 3.35 3.35h3.81l-.02 1.78-1.79 1.79v6.6h4.78v11.86h-4.78v6.61l1.79 1.79v1.8h-60.83v-1.8l1.8-1.79v-2.71h-.72v-3.9h-12.51v6.62l1.79 1.79.02 1.79h-27.55l-6.59-6.61.63-.63-6.15-6.15-.64.63-6.5-6.5v-27.29h1.8l1.79 1.79h1.98l3.9-.01v-13.02h-5.9l-1.79 1.79-1.78.02v-17.25h.89v-7.16h-.89v-30.88h.89v-7.16h-.89v-17.22l1.78-.02 1.79 1.79h.86l5.04-.01s-.03-12.37 0-12.95h-6.58l-1.8 1.79h-1.79v-60.83h1.79l1.8 1.79h6.58v-12.79h-6.6l-1.79 1.79-1.78.02v-17.25h.89v-7.16h-.89v-30.88h.89v-7.16h-.89v-17.22l1.78-.02 1.79 1.79h1.56l5.04-.01v-13h-6.6l-1.8 1.79-1.78.02v-3.81l-3.34-3.35.62-.62-3.83-3.82-.62.62-3.35-3.35h-4.02v-1.8l1.79-1.79V1496h-.01v-3.9h-3.78v-11.86h3.78v-3.71h.01v-2.92l-1.79-1.79-.02-1.78h27.54l6.6 6.6-.64.63 6.16 6.16.63-.64 6.5 6.5v27.29h-1.8l-1.79-1.79h-6.6v13h5.04l1.57.01 1.79-1.79h1.79v17.24h-.9v7.16h.9v30.88h-.9v7.16h.9v17.23h-1.79l-1.79-1.79h-6.61v12.79h6.62l1.79-1.79h1.78v3.8l3.35 3.34-.62.62 3.83 3.83.62-.62 3.35 3.35h4.02v1.8l-1.79 1.79v6.57h12.99v-5.04h.01v-1.55l-1.79-1.79v-1.8h17.24v.9h7.16v-.89h30.88v.89h7.16v-.89h17.23v1.79l-1.79 1.79v6.59h12.79v-3.96h.01v-2.65l-1.79-1.79-.02-1.78h3.81l3.35-3.35.62.62 3.82-3.83-.62-.62 3.35-3.35v-4.02h1.8l1.79 1.79h2.66l3.91-.01v-12.55h-6.58l-1.8 1.79-1.78.02v-17.25h.9v-7.16h-.9v-30.88h.9v-7.16h-.9v-17.22l1.78-.02 1.8 1.79h1.56l5.02-.01v-12.73h-6.58l-1.8 1.79-1.78.02v-17.25h.9v-7.16h-.9v-30.88h.9v-7.16h-.9v-17.23h1.78l1.8 1.78h1.56l5.02-.01v-13h-6.58l-1.8 1.79-1.78.02v-27.54l6.6-6.6.63.63 6.16-6.15-.63-.63 6.5-6.5h27.29v1.79l-1.8 1.79v6.84h12.72v-3.91h.01v-2.66l-1.79-1.79v-1.8h4.02l3.36-3.35.62.62 3.82-3.83-.62-.62 3.35-3.34v-3.81h1.8l1.79 1.8h2.63l3.95-.01v-13.03h-6.6l-1.79 1.79-1.78.02v-17.25h.89v-7.16h-.89v-30.88h.89v-7.16h-.89v-17.22l1.78-.02 1.79 1.79h1.56l5.04-.01v-4.89h11.86v4.89h5.04l1.57.01 1.79-1.79h1.8v17.24h-.9v7.16h.89v30.88h-.89v7.16h.89v17.23h-1.79l-1.79-1.79h-6.61v13.03h3.96l2.67.01 1.79-1.79h1.78v3.8l3.35 3.34-.62.62 3.82 3.83.62-.62 3.36 3.35h4.02v1.8l-1.79 1.79v25.06l1.79 1.79v1.76h-4.02l-3.36 3.35-.62-.63-3.82 3.83.62.62-3.35 3.35v3.81l-1.78-.02-1.79-1.79h-25.07l-1.79 1.79-1.8.02v-3.81l-3.35-3.35.62-.62-3.82-3.83-.62.63-3.36-3.36h-4.02v-1.75l1.79-1.79v-2.72h-.01v-3.91h-12.72v3.7h-5.84l-12.95 12.95v6.04h-3.94v13.01h5.05l1.57.01 1.79-1.79h1.8v17.24h-.9v7.16h.89v30.88h-.89v7.16h.89v17.23h-1.79l-1.79-1.79h-6.62v12.73h5.05l1.57.01 1.79-1.79h1.8v17.24h-.9v7.16h.89v30.88h-.89v7.16h.89v17.23h-1.79l-1.79-1.79h-6.62v12.55h3.91l2.73.01 1.79-1.79h1.75v4.02l3.35 3.35-.62.62 3.82 3.83.62-.62 3.35 3.35h3.81l-.02 1.78-1.79 1.79v6.61h12.79v-5.04h.01v-1.55l-1.79-1.79v-1.8h17.24v.9h7.16v-.89h30.88v.89h7.16v-.89h17.23v1.79l-1.79 1.79v6.59h12.49v-3.7h.01v-2.92l-1.79-1.79-.02-1.78h27.54l6.6 6.6-.64.63 6.16 6.15.63-.63 6.5 6.5zM3388.22 1480.25h5.57v11.86h-5.57v3.69s1.72.45 1.79.45v8.95h-17.45v-.44l-.44-.44h-7.87l-.44.44v.44h-23.51v-3.33h-6.04v3.33h-24.2v-8.95c.07 0 1.79-.45 1.79-.45v-3.69h-5.2v-11.86h5.2v-3.49s-1.68-.45-1.79-.45v-9.15h53.75v.44l.44.44h7.87l.44-.44v-.44h17.45v9.15c-.11 0-1.79.45-1.79.45v3.49zM3432.98 1314.29v14.15h-3.13v50.75h-39.4v-50.75h-3.14v-14.15h3.14v-3.13h-3.14v-38.28h7.55v-1.44h10.08v1.44h6.99v38.28h17.92v3.13h3.13z"/><path class="uuid-ad959328-6c8e-446f-9052-4bcf716b29e9" d="M2929.04 310.76v-5h-6.28l-12.95 12.95v6.04h1.36v76.09h18.91v17.45h-18.91v75.15h18.91v17.45h-18.91v76.09h-1.12v5.83l12.95 12.95h6.04v-4.6l1.31-3.38 10.9-16.54 2.71-2.49 113.09-51.1 2.85.72 5.62 11.92-.68 2.87-113.31 51.54-2.66 2.14-1.16 1.86-.64 2.85v28.98l.64 2.86 1.16 1.85 2.66 2.15 113.31 51.54.68 2.86-5.62 11.93-2.85.71-113.09-51.1-2.71-2.48-10.9-16.54-1.31-3.39v-5.47H2923l-12.95 12.94v5.84h1.12v76.09h18.91v17.45h-18.91v76.09h-21.94v-76.09h.79v-17.45h-.79v-76.09h1.11v-57.25h-1.11v-76.09h.79v-17.45h-.79v-75.15h.79v-17.45h-.79v-76.09h1.11v-20.83l17.88-17.87h20.82V281l1.31-3.38 10.9-16.54 2.71-2.49 113.09-51.1 2.85.72 5.62 11.92-.68 2.87-113.31 51.54-2.66 2.14-1.16 1.86-.64 2.85v28.98l.64 2.86 1.16 1.85 2.66 2.15 113.31 51.54.68 2.86-5.62 11.93-2.85.71-113.09-51.1-2.71-2.48-10.9-16.54-1.31-3.39z" id="uuid-946850c2-66c6-4ac8-838e-79caaac8295f" data-name="Эрорки"/><g id="uuid-32ba98a1-2cd8-4456-9f5f-2866409f2df0" data-name="Тропика"><path class="uuid-ad959328-6c8e-446f-9052-4bcf716b29e9" d="M4366.13 400.84v17.45h.79v75.15h-.79v17.45h.79v76.09h-1.11v57.25h1.11v76.09h-.79v17.45h.79v76.09h-21.93v-76.09h-18.91v-17.45h18.91v-76.09h1.11v-5.84l-12.95-12.94h-6.04v5.47l-1.3 3.39-10.91 16.54-2.7 2.48-113.1 51.1-2.84-.71-5.63-11.93.68-2.86 113.32-51.54 2.66-2.15 1.15-1.85.65-2.86v-28.98l-.65-2.85-1.15-1.86-2.66-2.14-113.32-51.54-.68-2.87 5.63-11.92 2.84-.72 113.1 51.1 2.7 2.49 10.91 16.54 1.3 3.38v4.6h6.04l12.95-12.95v-5.83h-1.11v-76.09h-18.91v-17.45h18.91v-75.15h-18.91v-17.45h18.91v-76.09h1.35v-6.04l-12.95-12.95h-6.28v5l-1.3 3.39-10.91 16.54-2.7 2.48-113.1 51.1-2.84-.71-5.63-11.93.68-2.86 113.32-51.54 2.66-2.15 1.15-1.85.65-2.86v-28.98l-.65-2.85-1.15-1.86-2.66-2.14L4191.31 223l-.68-2.87 5.63-11.92 2.84-.72 113.1 51.1 2.7 2.49 10.91 16.54 1.3 3.38v5.05h20.82l17.88 17.87v20.83h1.11v76.09h-.79z"/></g><g><path class="uuid-ad959328-6c8e-446f-9052-4bcf716b29e9" d="M3299.13 1480.24h4.81v11.86h-4.81v6.59l1.79 1.79v1.8h-60.82v-1.8l1.79-1.79v-2.71h-.01v-19.71h.01v-2.65l-1.79-1.79-.02-1.78h3.81l3.34-3.35.63.62 3.82-3.83-.62-.62 3.35-3.35v-4.02h1.8l1.79 1.79h2.66l3.91-.01v-12.77h-6.61l-1.79 1.79-1.78.02v-17.25h.89v-7.16h-.89v-30.88h.89v-7.16h-.89v-17.23l1.78-.02 1.79 1.79h6.61v-12.75h-6.61l-1.79 1.79-1.78.02v-17.25h.89v-7.16h-.89v-30.88h.89v-7.16h-.89v-17.23l1.78-.02 1.79 1.8h1.57l5.04-.01v-4.9h11.86s-.03 4.54 0 4.9h5.03l1.57.01 1.79-1.8h1.8v17.25h-.9v7.16h.89v30.88h-.89v7.16h.89v17.23h-1.79l-1.79-1.79h-6.6v12.75h6.6l1.79-1.79h1.8v17.25h-.9v7.16h.89v30.88h-.89v7.16h.89v17.23h-1.79l-1.79-1.79h-6.6v12.77h3.91l2.73.01 1.79-1.79h1.75v4.02l3.35 3.35-.62.62 3.82 3.83.62-.62 3.35 3.35h3.81l-.02 1.78-1.79 1.79v6.62zM3252.36 1214.67v-7.87l-.44-.44h-.44v-17.46h9.15c0 .11.45 1.8.45 1.8h3.49v-4.89h11.86v4.89h3.69s.45-1.73.45-1.8h8.95v17.46h-.44l-.44.44v7.87l.44.44h.44v23.51h-3.34v6.04h3.34v24.2h-8.95c0-.07-.45-1.79-.45-1.79h-3.68v4.89h-11.86v-4.89h-3.5s-.42 1.79-.45 1.79h-9.15v-53.75h.44l.44-.44z"/><path class="uuid-ad959328-6c8e-446f-9052-4bcf716b29e9" d="M4376.46 1144.29v91.31h-83.27v-53.35h-611.11v-2.47h-13.19c0-.07-.45-1.8-.45-1.8h-3.72v5.12h-11.86v-5.12h-3.46s-.45 1.69-.45 1.8h-13.44v2.47H3469.7v1.23h-10.09v-1.23h-165.84v-2.47h-13.2c0-.07-.46-1.8-.46-1.8h-3.68v5.12h-11.86v-5.12h-3.49s-.45 1.69-.45 1.8h-13.41v2.47h-284.68v53.35h-83.27v-91.31h4.26v12.3h6.04v-22.37h-.34v-76.09h.79v-17.21h-.79v-76.09h1.11v-57.25h-1.11v-76.09h.79v-17.45h40.06v17.45h-18.91v76.09h-1.12v5.83l12.95 12.95h6.04v-5.04l1.31-3.38 10.9-16.54 2.71-2.49 113.09-51.1 2.85.72 5.62 11.93-.68 2.86-113.31 51.54-2.66 2.14-1.16 1.86-.64 2.85v28.98l.64 2.86 1.16 1.85 2.66 2.15 113.31 51.54.68 2.86-5.62 11.93-2.85.71-113.09-51.1-2.71-2.48-10.9-16.54-1.31-3.39v-5.04H2923l-12.95 12.95v5.84h1.12v76.05h18.91v17.45h-18.91v75.89h-.34v22.37h5.82v-12.31h4.02v-48.36h41.87v48.5h641.47v-37.53h47.89v37.53h641.29v-48.5h41.86v48.36h4.02v12.31h6.26v-22.37h-.34v-75.89h-18.91v-17.45h18.91v-76.05h1.11v-5.84l-12.95-12.95h-6.04v5.04l-1.3 3.39-10.91 16.54-2.7 2.48-113.1 51.1-2.84-.71-5.63-11.93.68-2.86 113.32-51.54 2.66-2.15 1.15-1.85.65-2.86v-28.98l-.65-2.85-1.15-1.86-2.66-2.14-113.32-51.54-.68-2.86 5.63-11.93 2.84-.72 113.1 51.1 2.7 2.49 10.91 16.54 1.3 3.38v5.04h6.04l12.95-12.95v-5.83h-1.11v-76.09h-18.91v-17.45h40.05v17.45h.79v76.09h-1.11v57.25h1.11v76.09h-.79v17.21h.79v76.09h-.34v22.37h5.61v-12.3h4.26zM3618.08 1798.72h5.93v11.86h-5.93v3.27s1.68.45 1.79.45v9.38h-53.56v-.44l-.44-.44h-7.85c-.17.17-.26.27-.44.44v.44h-17.39v-9.38c.11 0 1.8-.45 1.8-.45v-3.27h-4.6v-11.86h4.6v-3.91s-1.69-.45-1.8-.45v-8.72h17.39v.44c.18.17.27.26.44.44h7.85c.17-.18.27-.27.44-.44v-.44h10.34v-1.18h10.09v1.18h3v3.33h6.01v-3.33h24.12v8.72c-.11 0-1.79.45-1.79.45v3.91zM3865.85 1957.85h5.93v11.86h-5.93v3.48s1.69.45 1.8.45v9.15h-53.71v-.44c-.17-.17-.27-.26-.44-.43h-7.87c-.17.17-.27.26-.44.43v.44h-17.43v-9.15l1.79-.45v-3.48h-4.87v-11.86h4.87v-3.7s-1.68-.45-1.79-.45v-8.94h17.43v.43l.44.44h7.87c.17-.17.27-.26.44-.44v-.43h23.49v3.33h6.04v-3.33h24.18v8.94c-.11 0-1.8.45-1.8.45v3.7zM4014.03 1862.14v7.87l.44.44h.44v23.49h-3.34v6.04h3.34v24.18h-9.05c0-.11-.45-1.8-.45-1.8h-3.48v5.82h-11.87v-5.82h-3.69s-.45 1.69-.45 1.8h-9.05v-53.71h.44l.44-.44v-7.87l-.44-.44h-.44v-17.44h9.05c0 .11.45 1.8.45 1.8h3.69v-4.92h11.87v4.92h3.48s.45-1.69.45-1.8h9.05v17.44h-.44l-.44.44zM3777.01 1798.74h4.69v11.86h-4.69v6.61l1.79 1.79v1.75h-4.02l-3.35 3.35-.62-.62-3.83 3.83.62.62-3.34 3.34v3.81h-1.78l-1.8-1.8h-7.32v12.75h5.03l1.58.01 1.79-1.79 1.79-.02v17.25h-.19v7.15h.19v30.89h-.9v7.15h.9v17.23l-1.79.02-1.79-1.79h-6.61v13.03h7.32l1.79-1.79h1.78v3.8l3.35 3.34-.62.62 3.82 3.83.63-.62 3.35 3.35h4.02v1.8l-1.79 1.79v6.59c1.41.02 4.25-.03 4.25-.03v11.86h-4.25v6.64l1.79 1.79v1.76h-4.02l-3.35 3.35-.63-.62-3.82 3.82.62.62-3.35 3.35v3.81l-1.78-.02-1.79-1.79h-7.32v13.01h5.03l2.29.01 1.79-1.79 1.78-.02v17.25h-.89v7.15h.89v30.89h-.89v7.16h.89v17.22l-1.78.02-1.79-1.79h-25.07l-1.79 1.79h-1.8v-17.24h.9v-7.16h-.89v-30.89h.89v-7.15h-.89v-17.23h1.79l1.79 1.79h.85l5.04-.01v-13.01h-5.89l-1.79 1.79h-1.8v-60.83h1.8l1.79 1.79h5.89v-13.03h-6.59l-1.79 1.79h-1.8v-17.25h.9v-7.15h-.9v-30.89h.9v-7.15h-.9v-17.23h1.8l1.79 1.79h1.55l5.04-.01v-12.75h-5.88l-1.79 1.79h-1.8v-3.8l-3.35-3.34.62-.62-3.82-3.83-.63.62-3.35-3.35h-4.02V1819l1.79-1.79v-2.73h-.71v-3.91h-11.62v6.63l1.79 1.79.02 1.78h-17.25v-.9h-7.16v.9h-30.89v-.9h-7.15v.9h-17.23l-.02-1.78 1.79-1.79v-1.58h-.71v-5.05h-4.14v-11.86h4.14v-5.03h.71v-1.55l-1.79-1.79v-1.8h17.25v.9h7.15v-.89h30.89v.89h7.16v-.89h17.23v1.79l-1.79 1.79v6.58h11.62v-3.91h.71v-2.66l-1.79-1.79v-1.8h4.02l3.35-3.35.63.62 3.82-3.82-.62-.62 3.35-3.35v-3.81l1.8.02 1.79 1.79h1.92l3.96-.01v-13h-5.9l-1.8 1.79h-1.79v-17.24h.9v-7.16h-.9v-30.88h.9v-7.16h-.9v-17.23h1.79l1.8 1.79h.84l5.04-.01v-12.99h11.86v12.99h5.04l2.28.01 1.79-1.79 1.78-.02v17.25h-.89v7.16h.89v30.88h-.89v7.16h.89v17.23h-1.78l-1.79-1.78h-7.3v13h3.95l3.37.01 1.8-1.79 1.78-.02v3.81l3.34 3.35-.62.62 3.83 3.82.62-.62 3.35 3.35h4.02v1.8l-1.79 1.79v6.6zM4010.44 1933.12l1.78-.02v27.55l-6.6 6.59-.63-.63-6.15 6.16.63.63-6.5 6.5h-27.29v-1.8l1.79-1.79v-2.71h-.71v-3.9h-12.05v6.61l1.79 1.79v1.8l-17.25-.01v-.89h-7.15v.89h-30.89v-.89h-7.15v.89l-17.24.01v-1.8l1.79-1.79v-1.57h-.71v-5.04h-4.13v-11.86h4.13v-5.04h.71v-1.56l-1.79-1.79-.01-1.78h17.25v.89h7.15v-.89h30.89v.89h7.15v-.89h17.23l.02 1.78-1.79 1.79v6.6h12.05v-3.95h.71v-2.65l-1.79-1.79-.02-1.78h3.81l3.35-3.35.62.62 3.83-3.82-.62-.62 3.35-3.36v-4.02h1.79l1.8 1.79h1.95v-.01h3.81v-4.02h11.86v4.02h3.8v.01h3.64l1.79-1.79zM3865.85 1810.61v3.67s1.68.45 1.79.45v8.94h-17.43v-.44c-.18-.17-.27-.27-.44-.44h-7.87l-.44.44v.44h-23.49v-3.33h-6.04v3.33h-24.18v-8.94c.11 0 1.79-.45 1.79-.45v-3.67h-4.42v-11.87h4.42v-3.49s-1.72-.46-1.79-.46v-9.16h53.71v.44l.44.44h7.87c.17-.17.26-.27.44-.44v-.44h17.43v9.16c-.07 0-1.79.46-1.79.46v3.49h5.03v11.87h-5.03z"/></g></g><g id="uuid-b5fe0831-f891-4c14-9040-999de3626f4e" data-name="Образцы 2"><path class="uuid-5467bed2-98c8-43ab-9e05-314bc7bff8c5" d="M9.22 9.91h151.27v151.27H9.22z"/><path class="uuid-ae853ba9-fd01-4f6d-8232-6f8ca9c9cc0f" d="M9.22 161.18h2.97l-2.97-2.97v2.97zM9.22 151.54l9.64 9.64h5.93L9.22 145.6v5.94zM9.22 138.93l22.24 22.25h5.94L9.22 133v5.93zM9.22 126.33l34.85 34.85H50L9.22 120.39v5.94zM9.22 113.72l47.45 47.46h5.94L9.22 107.79v5.93zM9.22 101.12l60.06 60.06h5.93l-65.99-66v5.94zM9.22 88.51l72.66 72.67h5.94l-78.6-78.6v5.93zM9.22 75.91l85.27 85.27h5.94L9.22 69.97v5.94zM9.22 63.3l97.87 97.88h5.94L9.22 57.37v5.93zM9.22 50.7 119.7 161.18h5.94L9.22 44.76v5.94zM9.22 38.09l123.09 123.09h5.93L9.22 32.15v5.94zM9.22 25.49l135.69 135.69h5.94L9.22 19.55v5.94zM9.22 9.91v2.97l148.3 148.3h2.97v-2.97L12.19 9.91H9.22zM18.86 9.91l141.63 141.63v-5.94L24.79 9.91h-5.93zM31.46 9.91l129.03 129.02V133L37.4 9.91h-5.94zM44.07 9.91l116.42 116.42v-5.94L50 9.91h-5.93zM56.67 9.91l103.82 103.81v-5.93L62.61 9.91h-5.94zM69.28 9.91l91.21 91.21v-5.94L75.21 9.91h-5.93zM81.88 9.91l78.61 78.6v-5.93L87.82 9.91h-5.94zM94.49 9.91l66 66v-5.94L100.43 9.91h-5.94zM107.09 9.91l53.4 53.39v-5.93L113.03 9.91h-5.94zM119.7 9.91l40.79 40.79v-5.94L125.64 9.91h-5.94zM132.31 9.91l28.18 28.18v-5.94L138.24 9.91h-5.93zM144.91 9.91l15.58 15.58v-5.94l-9.64-9.64h-5.94zM157.52 9.91l2.97 2.97V9.91h-2.97z"/><g><path class="uuid-a32bc501-01ec-48ba-b0c2-8fbcb3118761" d="M8.89 172.56h151.27v151.27H8.89z"/><path class="uuid-5696180a-06e8-499c-b7fb-08d9bc726e61" d="M9.22 323.82h2.97l-2.97-2.96v2.96zM9.22 314.19l9.64 9.63h5.93L9.22 308.25v5.94zM9.22 301.58l22.24 22.24h5.94L9.22 295.64v5.94zM9.22 288.98l34.85 34.84H50L9.22 283.04v5.94zM9.22 276.37l47.45 47.45h5.94L9.22 270.43v5.94zM9.22 263.76l60.06 60.06h5.93L9.22 257.83v5.93zM9.22 251.16l72.66 72.66h5.94l-78.6-78.6v5.94zM9.22 238.55l85.27 85.27h5.94l-91.21-91.2v5.93zM9.22 225.95l97.87 97.87h5.94L9.22 220.01v5.94zM9.22 213.34 119.7 323.82h5.94L9.22 207.41v5.93zM9.22 200.74l123.09 123.08h5.93L9.22 194.8v5.94zM9.22 188.13l135.69 135.69h5.94L9.22 182.2v5.93zM9.22 172.56v2.97l148.3 148.29h2.97v-2.96l-148.3-148.3H9.22zM18.86 172.56l141.63 141.63v-5.94L24.79 172.56h-5.93zM31.46 172.56l129.03 129.02v-5.94L37.4 172.56h-5.94zM44.07 172.56l116.42 116.42v-5.94L50 172.56h-5.93zM56.67 172.56l103.82 103.81v-5.94l-97.88-97.87h-5.94zM69.28 172.56l91.21 91.2v-5.93l-85.28-85.27h-5.93zM81.88 172.56l78.61 78.6v-5.94l-72.67-72.66h-5.94zM94.49 172.56l66 65.99v-5.93l-60.06-60.06h-5.94zM107.09 172.56l53.4 53.39v-5.94l-47.46-47.45h-5.94zM119.7 172.56l40.79 40.78v-5.93l-34.85-34.85h-5.94zM132.31 172.56l28.18 28.18v-5.94l-22.25-22.24h-5.93zM144.91 172.56l15.58 15.57v-5.93l-9.64-9.64h-5.94zM157.52 172.56l2.97 2.97v-2.97h-2.97z"/></g><g><path class="uuid-f666a578-412b-4718-8206-ce53631109f5" d="M8.89 335.2h151.27v151.27H8.89z"/><path class="uuid-f317d477-12c4-4e74-a015-81ad4466e50d" d="M8.89 486.47h2.97l-2.97-2.97v2.97zM8.89 476.83l9.64 9.64h5.94L8.89 470.9v5.93zM8.89 464.23l22.25 22.24h5.93L8.89 458.29v5.94zM8.89 451.62l34.85 34.85h5.94L8.89 445.69v5.93zM8.89 439.02l47.46 47.45h5.93L8.89 433.08v5.94zM8.89 426.41l60.06 60.06h5.94l-66-66v5.94zM8.89 413.81l72.67 72.66h5.93l-78.6-78.6v5.94zM8.89 401.2l85.27 85.27h5.94L8.89 395.26v5.94zM8.89 388.59l97.88 97.88h5.93L8.89 382.66v5.93zM8.89 375.99l110.48 110.48h5.94L8.89 370.05v5.94zM8.89 363.38l123.09 123.09h5.94L8.89 357.45v5.93zM8.89 350.78l135.7 135.69h5.93L8.89 344.84v5.94zM8.89 335.2v2.97l148.3 148.3h2.97v-2.97L11.86 335.2H8.89zM18.53 335.2l141.63 141.63v-5.93L24.47 335.2h-5.94zM31.14 335.2l129.02 129.03v-5.94L37.07 335.2h-5.93zM43.74 335.2l116.42 116.42v-5.93L49.68 335.2h-5.94zM56.35 335.2l103.81 103.82v-5.94L62.28 335.2h-5.93zM68.95 335.2l91.21 91.21v-5.94L74.89 335.2h-5.94zM81.56 335.2l78.6 78.61v-5.94L87.49 335.2h-5.93zM94.16 335.2l66 66v-5.94L100.1 335.2h-5.94zM106.77 335.2l53.39 53.39v-5.93L112.7 335.2h-5.93zM119.37 335.2l40.79 40.79v-5.94l-34.85-34.85h-5.94zM131.98 335.2l28.18 28.18v-5.93l-22.24-22.25h-5.94zM144.59 335.2l15.57 15.58v-5.94l-9.64-9.64h-5.93zM157.19 335.2l2.97 2.97v-2.97h-2.97z"/></g><g><path class="uuid-cd60f838-2d9b-42a6-bf7c-db08bc2336d9" d="M8.89 497.85h151.27v151.27H8.89z"/><path class="uuid-0057c76f-0f51-422a-b624-373af1079129" d="M8.89 649.12h2.97l-2.97-2.97v2.97zM8.89 639.48l9.64 9.64h5.94L8.89 633.54v5.94zM8.89 626.87l22.25 22.25h5.93L8.89 620.94v5.93zM8.89 614.27l34.85 34.85h5.94L8.89 608.33v5.94zM8.89 601.66l47.46 47.46h5.93L8.89 595.73v5.93zM8.89 589.06l60.06 60.06h5.94l-66-66v5.94zM8.89 576.45l72.67 72.67h5.93l-78.6-78.6v5.93zM8.89 563.85l85.27 85.27h5.94L8.89 557.91v5.94zM8.89 551.24l97.88 97.88h5.93L8.89 545.3v5.94zM8.89 538.64l110.48 110.48h5.94L8.89 532.7v5.94zM8.89 526.03l123.09 123.09h5.94L8.89 520.09v5.94zM8.89 513.42l135.7 135.7h5.93L8.89 507.49v5.93zM8.89 497.85v2.97l148.3 148.3h2.97v-2.97l-148.3-148.3H8.89zM18.53 497.85l141.63 141.63v-5.94L24.47 497.85h-5.94zM31.14 497.85l129.02 129.02v-5.93L37.07 497.85h-5.93zM43.74 497.85l116.42 116.42v-5.94L49.68 497.85h-5.94zM56.35 497.85l103.81 103.81v-5.93l-97.88-97.88h-5.93zM68.95 497.85l91.21 91.21v-5.94l-85.27-85.27h-5.94zM81.56 497.85l78.6 78.6v-5.93l-72.67-72.67h-5.93zM94.16 497.85l66 66v-5.94l-60.06-60.06h-5.94zM106.77 497.85l53.39 53.39v-5.94l-47.46-47.45h-5.93zM119.37 497.85l40.79 40.79v-5.94l-34.85-34.85h-5.94zM131.98 497.85l28.18 28.18v-5.94l-22.24-22.24h-5.94zM144.59 497.85l15.57 15.57v-5.93l-9.64-9.64h-5.93zM157.19 497.85l2.97 2.97v-2.97h-2.97z"/></g><g><path class="uuid-9596a0ce-3c4e-45d9-a608-47ab43e7339d" d="M8.89 660.5h151.27v151.27H8.89z"/><path class="uuid-8befe4d1-20e7-4909-b285-a338ea936ec4" d="M8.89 811.76h2.97l-2.97-2.97v2.97zM8.89 802.13l9.64 9.63h5.94L8.89 796.19v5.94zM8.89 789.52l22.25 22.24h5.93L8.89 783.58v5.94zM8.89 776.91l34.85 34.85h5.94L8.89 770.98v5.93zM8.89 764.31l47.46 47.45h5.93L8.89 758.37v5.94zM8.89 751.7l60.06 60.06h5.94l-66-65.99v5.93zM8.89 739.1l72.67 72.66h5.93l-78.6-78.6v5.94zM8.89 726.49l85.27 85.27h5.94l-91.21-91.2v5.93zM8.89 713.89l97.88 97.87h5.93L8.89 707.95v5.94zM8.89 701.28l110.48 110.48h5.94L8.89 695.35v5.93zM8.89 688.68l123.09 123.08h5.94L8.89 682.74v5.94zM8.89 676.07l135.7 135.69h5.93L8.89 670.13v5.94zM8.89 660.5v2.96l148.3 148.3h2.97v-2.97L11.86 660.5H8.89zM18.53 660.5l141.63 141.63v-5.94L24.47 660.5h-5.94zM31.14 660.5l129.02 129.02v-5.94L37.07 660.5h-5.93zM43.74 660.5l116.42 116.41v-5.93L49.68 660.5h-5.94zM56.35 660.5l103.81 103.81v-5.94L62.28 660.5h-5.93zM68.95 660.5l91.21 91.2v-5.93L74.89 660.5h-5.94zM81.56 660.5l78.6 78.6v-5.94L87.49 660.5h-5.93zM94.16 660.5l66 65.99v-5.93L100.1 660.5h-5.94zM106.77 660.5l53.39 53.39v-5.94L112.7 660.5h-5.93zM119.37 660.5l40.79 40.78v-5.93l-34.85-34.85h-5.94zM131.98 660.5l28.18 28.18v-5.94l-22.24-22.24h-5.94zM144.59 660.5l15.57 15.57v-5.94l-9.64-9.63h-5.93zM157.19 660.5l2.97 2.96v-2.96h-2.97z"/></g><g><path class="uuid-23b5bd7e-b557-4d6a-b7c3-f5dabdae93bc" d="M8.89 823.14h151.27v151.27H8.89z"/><path class="uuid-c32fbc01-566a-4c49-86d3-d75000d93e97" d="M8.89 974.41h2.97l-2.97-2.97v2.97zM8.89 964.77l9.64 9.64h5.94L8.89 958.84v5.93zM8.89 952.17l22.25 22.24h5.93L8.89 946.23v5.94zM8.89 939.56l34.85 34.85h5.94L8.89 933.62v5.94zM8.89 926.96l47.46 47.45h5.93L8.89 921.02v5.94zM8.89 914.35l60.06 60.06h5.94l-66-66v5.94zM8.89 901.74l72.67 72.67h5.93l-78.6-78.6v5.93zM8.89 889.14l85.27 85.27h5.94L8.89 883.2v5.94zM8.89 876.53l97.88 97.88h5.93L8.89 870.6v5.93zM8.89 863.93l110.48 110.48h5.94L8.89 857.99v5.94zM8.89 851.32l123.09 123.09h5.94L8.89 845.39v5.93zM8.89 838.72l135.7 135.69h5.93L8.89 832.78v5.94zM8.89 823.14v2.97l148.3 148.3h2.97v-2.97l-148.3-148.3H8.89zM18.53 823.14l141.63 141.63v-5.93L24.47 823.14h-5.94zM31.14 823.14l129.02 129.03v-5.94L37.07 823.14h-5.93zM43.74 823.14l116.42 116.42v-5.94L49.68 823.14h-5.94zM56.35 823.14l103.81 103.82v-5.94l-97.88-97.88h-5.93zM68.95 823.14l91.21 91.21v-5.94l-85.27-85.27h-5.94zM81.56 823.14l78.6 78.6v-5.93l-72.67-72.67h-5.93zM94.16 823.14l66 66v-5.94l-60.06-60.06h-5.94zM106.77 823.14l53.39 53.39v-5.93l-47.46-47.46h-5.93zM119.37 823.14l40.79 40.79v-5.94l-34.85-34.85h-5.94zM131.98 823.14l28.18 28.18v-5.93l-22.24-22.25h-5.94zM144.59 823.14l15.57 15.58v-5.94l-9.64-9.64h-5.93zM157.19 823.14l2.97 2.97v-2.97h-2.97z"/></g><g><path class="uuid-5dd181b5-ff5a-4f8a-9e24-5d1c70cd2d38" d="M8.89 985.79h151.27v151.27H8.89z"/><path class="uuid-239fe3a9-7ed7-462c-ac47-b0958d7e3041" d="M8.89 1137.06h2.97l-2.97-2.97v2.97zM8.89 1127.42l9.64 9.64h5.94l-15.58-15.58v5.94zM8.89 1114.81l22.25 22.25h5.93l-28.18-28.18v5.93zM8.89 1102.21l34.85 34.85h5.94l-40.79-40.79v5.94zM8.89 1089.6l47.46 47.46h5.93l-53.39-53.39v5.93zM8.89 1077l60.06 60.06h5.94l-66-66v5.94zM8.89 1064.39l72.67 72.67h5.93l-78.6-78.61v5.94zM8.89 1051.79l85.27 85.27h5.94l-91.21-91.21v5.94zM8.89 1039.18l97.88 97.88h5.93L8.89 1033.24v5.94zM8.89 1026.57l110.48 110.49h5.94L8.89 1020.64v5.93zM8.89 1013.97l123.09 123.09h5.94L8.89 1008.03v5.94zM8.89 1001.36l135.7 135.7h5.93L8.89 995.43v5.93zM8.89 985.79v2.97l148.3 148.3h2.97v-2.97l-148.3-148.3H8.89zM18.53 985.79l141.63 141.63v-5.94L24.47 985.79h-5.94zM31.14 985.79l129.02 129.02v-5.93L37.07 985.79h-5.93zM43.74 985.79l116.42 116.42v-5.94L49.68 985.79h-5.94zM56.35 985.79l103.81 103.81v-5.93l-97.88-97.88h-5.93zM68.95 985.79l91.21 91.21v-5.94l-85.27-85.27h-5.94zM81.56 985.79l78.6 78.6v-5.94l-72.67-72.66h-5.93zM94.16 985.79l66 66v-5.94l-60.06-60.06h-5.94zM106.77 985.79l53.39 53.39v-5.94l-47.46-47.45h-5.93zM119.37 985.79l40.79 40.78v-5.93l-34.85-34.85h-5.94zM131.98 985.79l28.18 28.18v-5.94l-22.24-22.24h-5.94zM144.59 985.79l15.57 15.57v-5.93l-9.64-9.64h-5.93zM157.19 985.79l2.97 2.97v-2.97h-2.97z"/></g><g><path class="uuid-887494c4-8fcd-46b4-95db-baafd8058d85" d="M8.89 1148.44h151.27v151.27H8.89z"/><path class="uuid-9e62374e-b58c-4b83-952e-9aa8a5b1aa30" d="M8.89 1299.7h2.97l-2.97-2.97v2.97zM8.89 1290.06l9.64 9.64h5.94l-15.58-15.57v5.93zM8.89 1277.46l22.25 22.24h5.93l-28.18-28.18v5.94zM8.89 1264.85l34.85 34.85h5.94l-40.79-40.78v5.93zM8.89 1252.25l47.46 47.45h5.93l-53.39-53.39v5.94zM8.89 1239.64l60.06 60.06h5.94l-66-65.99v5.93zM8.89 1227.04l72.67 72.66h5.93l-78.6-78.6v5.94zM8.89 1214.43l85.27 85.27h5.94l-91.21-91.2v5.93zM8.89 1201.83l97.88 97.87h5.93L8.89 1195.89v5.94zM8.89 1189.22l110.48 110.48h5.94L8.89 1183.28v5.94zM8.89 1176.61l123.09 123.09h5.94L8.89 1170.68v5.93zM8.89 1164.01l135.7 135.69h5.93L8.89 1158.07v5.94zM8.89 1148.44v2.96l148.3 148.3h2.97v-2.97l-148.3-148.29H8.89zM18.53 1148.44l141.63 141.62v-5.93L24.47 1148.44h-5.94zM31.14 1148.44l129.02 129.02v-5.94L37.07 1148.44h-5.93zM43.74 1148.44l116.42 116.41v-5.93L49.68 1148.44h-5.94zM56.35 1148.44l103.81 103.81v-5.94l-97.88-97.87h-5.93zM68.95 1148.44l91.21 91.2v-5.93l-85.27-85.27h-5.94zM81.56 1148.44l78.6 78.6v-5.94l-72.67-72.66h-5.93zM94.16 1148.44l66 65.99v-5.93l-60.06-60.06h-5.94zM106.77 1148.44l53.39 53.39v-5.94l-47.46-47.45h-5.93zM119.37 1148.44l40.79 40.78v-5.94l-34.85-34.84h-5.94zM131.98 1148.44l28.18 28.17v-5.93l-22.24-22.24h-5.94zM144.59 1148.44l15.57 15.57v-5.94l-9.64-9.63h-5.93zM157.19 1148.44l2.97 2.96v-2.96h-2.97z"/></g><g><path class="uuid-629d4732-c0f3-4e63-918d-dfad623cdf33" d="M8.89 1311.08h151.27v151.27H8.89z"/><path class="uuid-36dd17e2-a2e4-4a57-9818-830626696931" d="M8.89 1462.35h2.97l-2.97-2.97v2.97zM8.89 1452.71l9.64 9.64h5.94l-15.58-15.58v5.94zM8.89 1440.11l22.25 22.24h5.93l-28.18-28.18v5.94zM8.89 1427.5l34.85 34.85h5.94l-40.79-40.79v5.94zM8.89 1414.89l47.46 47.46h5.93l-53.39-53.39v5.93zM8.89 1402.29l60.06 60.06h5.94l-66-66v5.94zM8.89 1389.68l72.67 72.67h5.93l-78.6-78.6v5.93zM8.89 1377.08l85.27 85.27h5.94l-91.21-91.21v5.94zM8.89 1364.47l97.88 97.88h5.93L8.89 1358.54v5.93zM8.89 1351.87l110.48 110.48h5.94L8.89 1345.93v5.94zM8.89 1339.26l123.09 123.09h5.94L8.89 1333.32v5.94zM8.89 1326.66l135.7 135.69h5.93L8.89 1320.72v5.94zM8.89 1311.08v2.97l148.3 148.3h2.97v-2.97l-148.3-148.3H8.89zM18.53 1311.08l141.63 141.63v-5.94L24.47 1311.08h-5.94zM31.14 1311.08l129.02 129.03v-5.94L37.07 1311.08h-5.93zM43.74 1311.08l116.42 116.42v-5.94L49.68 1311.08h-5.94zM56.35 1311.08l103.81 103.81v-5.93l-97.88-97.88h-5.93zM68.95 1311.08l91.21 91.21v-5.94l-85.27-85.27h-5.94zM81.56 1311.08l78.6 78.6v-5.93l-72.67-72.67h-5.93zM94.16 1311.08l66 66v-5.94l-60.06-60.06h-5.94zM106.77 1311.08l53.39 53.39v-5.93l-47.46-47.46h-5.93zM119.37 1311.08l40.79 40.79v-5.94l-34.85-34.85h-5.94zM131.98 1311.08l28.18 28.18v-5.94l-22.24-22.24h-5.94zM144.59 1311.08l15.57 15.58v-5.94l-9.64-9.64h-5.93zM157.19 1311.08l2.97 2.97v-2.97h-2.97z"/></g><g><path class="uuid-693fc52f-b4fb-4fb9-a656-e1381571bd4b" d="M8.89 1473.73h151.27V1625H8.89z"/><path class="uuid-8b4b1dbc-b313-4e59-96f1-c62fbe3da5d2" d="M8.89 1624.99h2.97l-2.97-2.96v2.96zM8.89 1615.36l9.64 9.63h5.94l-15.58-15.57v5.94zM8.89 1602.75l22.25 22.24h5.93l-28.18-28.17v5.93zM8.89 1590.15l34.85 34.84h5.94l-40.79-40.78v5.94zM8.89 1577.54l47.46 47.45h5.93L8.89 1571.6v5.94zM8.89 1564.94l60.06 60.05h5.94l-66-65.99v5.94zM8.89 1552.33l72.67 72.66h5.93l-78.6-78.6v5.94zM8.89 1539.72l85.27 85.27h5.94l-91.21-91.2v5.93zM8.89 1527.12l97.88 97.87h5.93L8.89 1521.18v5.94zM8.89 1514.51l110.48 110.48h5.94L8.89 1508.58v5.93zM8.89 1501.91l123.09 123.08h5.94L8.89 1495.97v5.94zM8.89 1489.3l135.7 135.69h5.93L8.89 1483.37v5.93zM8.89 1473.73v2.97l148.3 148.29h2.97v-2.96l-148.3-148.3H8.89zM18.53 1473.73l141.63 141.63v-5.94L24.47 1473.73h-5.94zM31.14 1473.73l129.02 129.02v-5.93L37.07 1473.73h-5.93zM43.74 1473.73l116.42 116.42v-5.94L49.68 1473.73h-5.94zM56.35 1473.73l103.81 103.81v-5.94l-97.88-97.87h-5.93zM68.95 1473.73l91.21 91.21V1559l-85.27-85.27h-5.94zM81.56 1473.73l78.6 78.6v-5.94l-72.67-72.66h-5.93zM94.16 1473.73l66 65.99v-5.93l-60.06-60.06h-5.94zM106.77 1473.73l53.39 53.39v-5.94l-47.46-47.45h-5.93zM119.37 1473.73l40.79 40.78v-5.93l-34.85-34.85h-5.94zM131.98 1473.73l28.18 28.18v-5.94l-22.24-22.24h-5.94zM144.59 1473.73l15.57 15.57v-5.93l-9.64-9.64h-5.93zM157.19 1473.73l2.97 2.97v-2.97h-2.97z"/></g><g><path class="uuid-ae853ba9-fd01-4f6d-8232-6f8ca9c9cc0f" d="M177.38 101.12v-35.5h7.23v29.47h17.97v6.03h-25.2zM230.63 87.96l7.01 2.22c-1.07 3.91-2.86 6.81-5.36 8.7-2.5 1.9-5.67 2.84-9.51 2.84-4.75 0-8.66-1.62-11.72-4.87-3.06-3.25-4.59-7.69-4.59-13.32 0-5.96 1.54-10.58 4.61-13.88 3.08-3.3 7.12-4.94 12.13-4.94 4.38 0 7.93 1.29 10.67 3.88 1.63 1.53 2.85 3.73 3.66 6.59l-7.15 1.71c-.42-1.86-1.31-3.32-2.65-4.39-1.34-1.07-2.97-1.61-4.89-1.61-2.65 0-4.81.95-6.46 2.86-1.65 1.9-2.48 4.99-2.48 9.25 0 4.53.81 7.75 2.44 9.67s3.74 2.88 6.35 2.88c1.92 0 3.57-.61 4.96-1.83 1.38-1.22 2.38-3.14 2.98-5.76zM240.74 101.12V94.6l18.8-23.22h-16.67v-6.05h26.2v5.62l-19.6 24.15h20.36v6.03h-29.08z"/></g><g><path class="uuid-5696180a-06e8-499c-b7fb-08d9bc726e61" d="M177.21 259.31v-35.79h7.23v14.09h14.16v-14.09h7.23v35.79h-7.23v-15.65h-14.16v15.65h-7.23zM236.2 246.15l7.01 2.22c-1.07 3.91-2.86 6.81-5.36 8.7-2.5 1.9-5.67 2.84-9.51 2.84-4.75 0-8.66-1.62-11.72-4.87-3.06-3.25-4.59-7.69-4.59-13.32 0-5.96 1.54-10.58 4.61-13.88 3.08-3.3 7.12-4.94 12.13-4.94 4.38 0 7.93 1.29 10.67 3.88 1.63 1.53 2.85 3.73 3.66 6.59l-7.15 1.71c-.42-1.86-1.31-3.32-2.65-4.39-1.34-1.07-2.97-1.61-4.89-1.61-2.65 0-4.81.95-6.46 2.86-1.65 1.9-2.48 4.99-2.48 9.25 0 4.53.81 7.75 2.44 9.67s3.74 2.88 6.35 2.88c1.92 0 3.57-.61 4.96-1.83 1.38-1.22 2.38-3.14 2.98-5.76zM246.31 259.31v-6.52l18.8-23.22h-16.67v-6.05h26.2v5.62l-19.6 24.15h20.36v6.03h-29.08zM279.12 249.77v-6.86h13.48v6.86h-13.48zM296.62 223.52h14.31c2.83 0 4.94.12 6.34.35 1.39.24 2.64.73 3.73 1.48 1.1.75 2.01 1.75 2.75 2.99.73 1.24 1.1 2.64 1.1 4.19 0 1.68-.45 3.21-1.36 4.61-.9 1.4-2.13 2.45-3.67 3.15 2.18.63 3.86 1.72 5.03 3.25 1.17 1.53 1.76 3.33 1.76 5.4 0 1.63-.38 3.21-1.13 4.75-.76 1.54-1.79 2.77-3.1 3.69-1.31.92-2.93 1.49-4.85 1.7-1.21.13-4.11.21-8.72.24h-12.18v-35.79zm7.23 5.96v8.28h4.74c2.82 0 4.57-.04 5.25-.12 1.24-.15 2.21-.57 2.92-1.28s1.06-1.64 1.06-2.8-.3-2.01-.92-2.7c-.61-.69-1.52-1.11-2.72-1.26-.72-.08-2.78-.12-6.18-.12h-4.15zm0 14.23v9.57h6.69c2.6 0 4.26-.07 4.96-.22 1.07-.2 1.95-.67 2.62-1.43.68-.76 1.01-1.77 1.01-3.04 0-1.07-.26-1.99-.78-2.73-.52-.75-1.27-1.29-2.26-1.64-.99-.34-3.12-.51-6.41-.51h-5.83z"/></g><g><path class="uuid-f317d477-12c4-4e74-a015-81ad4466e50d" d="M177.21 420.47v-35.79h7.23v14.09h14.16v-14.09h7.23v35.79h-7.23v-15.65h-14.16v15.65h-7.23zM236.2 407.32l7.01 2.22c-1.07 3.91-2.86 6.81-5.36 8.7-2.5 1.9-5.67 2.84-9.51 2.84-4.75 0-8.66-1.62-11.72-4.87-3.06-3.25-4.59-7.69-4.59-13.32 0-5.96 1.54-10.58 4.61-13.88 3.08-3.3 7.12-4.94 12.13-4.94 4.38 0 7.93 1.29 10.67 3.88 1.63 1.53 2.85 3.73 3.66 6.59l-7.15 1.71c-.42-1.86-1.31-3.32-2.65-4.39-1.34-1.07-2.97-1.61-4.89-1.61-2.65 0-4.81.95-6.46 2.86-1.65 1.9-2.48 4.99-2.48 9.25 0 4.53.81 7.75 2.44 9.67s3.74 2.88 6.35 2.88c1.92 0 3.57-.61 4.96-1.83 1.38-1.22 2.38-3.14 2.98-5.76zM246.31 420.47v-6.52l18.8-23.22h-16.67v-6.05h26.2v5.62l-19.6 24.15h20.36v6.03h-29.08zM279.12 410.93v-6.86h13.48v6.86h-13.48zM328.87 420.47h-7.86l-3.12-8.13h-14.31l-2.95 8.13h-7.67l13.94-35.79h7.64l14.33 35.79zm-13.3-14.16-4.93-13.28-4.83 13.28h9.77z"/></g><g><path class="uuid-0057c76f-0f51-422a-b624-373af1079129" d="M177.19 583.12v-35.79h26.54v6.05h-19.31v7.93h17.97v6.03h-17.97v9.74h20v6.03H177.2zM207.44 583.12v-6.52l18.8-23.22h-16.67v-6.05h26.2v5.62l-19.6 24.15h20.36v6.03h-29.08z"/></g><g><path class="uuid-8befe4d1-20e7-4909-b285-a338ea936ec4" d="m175.36 734.12 7.03-.68c.42 2.36 1.28 4.09 2.58 5.2 1.29 1.11 3.04 1.66 5.24 1.66 2.33 0 4.08-.49 5.26-1.48 1.18-.99 1.77-2.14 1.77-3.46 0-.85-.25-1.57-.74-2.16-.5-.59-1.36-1.11-2.6-1.55-.85-.29-2.78-.81-5.79-1.56-3.87-.96-6.59-2.14-8.15-3.54-2.2-1.97-3.3-4.37-3.3-7.2 0-1.82.52-3.53 1.55-5.12 1.03-1.59 2.52-2.79 4.47-3.62 1.94-.83 4.29-1.25 7.04-1.25 4.49 0 7.87.99 10.14 2.95 2.27 1.97 3.46 4.6 3.58 7.89l-7.23.32c-.31-1.84-.97-3.16-1.99-3.97s-2.54-1.21-4.58-1.21-3.74.43-4.93 1.29c-.77.55-1.15 1.29-1.15 2.22 0 .85.36 1.57 1.07 2.17.91.77 3.12 1.56 6.64 2.39s6.12 1.69 7.8 2.58c1.68.89 3 2.1 3.96 3.64.95 1.54 1.43 3.44 1.43 5.7 0 2.05-.57 3.97-1.71 5.76-1.14 1.79-2.75 3.12-4.83 3.99-2.08.87-4.68 1.31-7.79 1.31-4.53 0-8-1.05-10.42-3.14-2.43-2.09-3.87-5.14-4.35-9.14zM210.56 745.77v-35.79h7.23v14.09h14.16v-14.09h7.23v35.79h-7.23v-15.65h-14.16v15.65h-7.23zM269.55 732.61l7.01 2.22c-1.07 3.91-2.86 6.81-5.36 8.7-2.5 1.9-5.67 2.84-9.51 2.84-4.75 0-8.66-1.62-11.72-4.87-3.06-3.25-4.59-7.69-4.59-13.32 0-5.96 1.54-10.58 4.61-13.88 3.08-3.3 7.12-4.94 12.13-4.94 4.38 0 7.93 1.29 10.67 3.88 1.63 1.53 2.85 3.73 3.66 6.59l-7.15 1.71c-.42-1.86-1.31-3.32-2.65-4.39-1.34-1.07-2.97-1.61-4.89-1.61-2.65 0-4.81.95-6.46 2.86-1.65 1.9-2.48 4.99-2.48 9.25 0 4.53.81 7.75 2.44 9.67s3.74 2.88 6.35 2.88c1.92 0 3.57-.61 4.96-1.83 1.38-1.22 2.38-3.14 2.98-5.76zM279.66 745.77v-6.52l18.8-23.22h-16.67v-6.05h26.2v5.62l-19.6 24.15h20.36v6.03h-29.08z"/></g><g><path class="uuid-c32fbc01-566a-4c49-86d3-d75000d93e97" d="M176.6 872.62h7.23v8.54c0 2.77.1 4.6.31 5.51.2.9.81 1.69 1.82 2.36 1.01.67 2.49 1 4.44 1 1.55 0 2.92-.17 4.13-.5 1.2-.33 2.25-.83 3.12-1.48v-15.43h7.23v35.79h-7.23v-14.4c-1.46.65-2.91 1.14-4.32 1.48-1.42.33-2.81.5-4.17.5-3.56 0-6.55-.84-8.95-2.53-2.4-1.69-3.6-4.6-3.6-8.75v-12.08zM227.29 900.16l6.84 1.15c-.88 2.51-2.27 4.42-4.16 5.73-1.9 1.31-4.27 1.96-7.12 1.96-4.51 0-7.85-1.47-10.01-4.42-1.71-2.36-2.56-5.34-2.56-8.94 0-4.3 1.12-7.66 3.37-10.09 2.25-2.43 5.09-3.65 8.52-3.65 3.86 0 6.9 1.27 9.13 3.82 2.23 2.55 3.3 6.45 3.2 11.71h-17.19c.05 2.04.6 3.62 1.66 4.75s2.38 1.7 3.96 1.7c1.07 0 1.98-.29 2.71-.88s1.29-1.53 1.66-2.83zm.39-6.93c-.05-1.99-.56-3.5-1.54-4.53-.98-1.03-2.17-1.55-3.56-1.55-1.5 0-2.73.55-3.71 1.64-.98 1.09-1.46 2.57-1.44 4.44h10.25zM239.81 882.49h6.84v10.6c1.14-.13 1.94-.48 2.42-1.05.47-.57 1.04-1.81 1.71-3.74.88-2.55 1.84-4.19 2.88-4.91 1.04-.72 2.41-1.07 4.1-1.07.52 0 1.42.04 2.71.12l.02 4.54c-1.81 0-2.96.17-3.47.51-.5.36-1.05 1.42-1.64 3.2-.8 2.39-1.95 3.87-3.44 4.42 2.16.6 4 2.48 5.49 5.64.08.16.17.33.27.51l3.83 7.15h-7.37l-3.42-7.5c-.7-1.51-1.31-2.49-1.82-2.92-.51-.43-1.27-.65-2.28-.65v11.06h-6.84v-25.93zM264.84 882.49h23.02v25.93H281v-20.39h-9.3v20.39h-6.86v-25.93zM293.72 895.08c0-2.28.56-4.48 1.68-6.62 1.12-2.13 2.71-3.76 4.77-4.88 2.06-1.12 4.36-1.68 6.9-1.68 3.92 0 7.14 1.27 9.64 3.82 2.51 2.55 3.76 5.77 3.76 9.66s-1.27 7.17-3.8 9.75-5.72 3.87-9.56 3.87c-2.38 0-4.64-.54-6.8-1.61s-3.8-2.65-4.92-4.72-1.68-4.6-1.68-7.58zm7.03.37c0 2.57.61 4.54 1.83 5.91s2.73 2.05 4.52 2.05 3.29-.68 4.5-2.05c1.21-1.37 1.82-3.35 1.82-5.96s-.61-4.49-1.82-5.86-2.71-2.05-4.5-2.05-3.3.68-4.52 2.05-1.83 3.34-1.83 5.91zM325.68 882.49h6.59v16.28l10.55-16.28h6.74v25.93h-6.59v-16.58l-10.69 16.58h-6.59v-25.93zM356.32 882.49h6.86v9.5h9.81v-9.5h6.88v25.93h-6.88v-10.89h-9.81v10.89h-6.86v-25.93zM383.71 882.49h23.46v5.54h-8.3v20.39h-6.86v-20.39h-8.3v-5.54zM411.32 882.49h6.86v10.77h6.88c2.7 0 4.76.19 6.19.57 1.42.38 2.63 1.22 3.61 2.5.98 1.29 1.48 2.8 1.48 4.54 0 2.51-.86 4.39-2.59 5.65-1.73 1.26-4.31 1.89-7.76 1.89h-14.67v-25.93zm6.86 21.58h6.37c1.66 0 2.86-.26 3.61-.78s1.12-1.37 1.12-2.54c0-1.25-.48-2.11-1.45-2.58-.97-.46-2.71-.7-5.21-.7h-4.44v6.59zm22.07-21.58h6.86v25.93h-6.86v-25.93z"/></g><g><path class="uuid-239fe3a9-7ed7-462c-ac47-b0958d7e3041" d="M185.25 1071.06v-29.74h-10.62v-6.05h28.44v6.05h-10.6v29.74h-7.23zM207.83 1035.27h28.47v35.79h-7.23v-29.79h-14.01v29.79h-7.23v-35.79z"/></g><g><path class="uuid-9e62374e-b58c-4b83-952e-9aa8a5b1aa30" d="M177.29 1197.92h28.47v35.79h-7.23v-29.79h-14.01v29.79h-7.23v-35.79zM211.49 1220.38c0-2.28.56-4.48 1.68-6.62 1.12-2.13 2.71-3.76 4.77-4.88 2.06-1.12 4.36-1.68 6.9-1.68 3.92 0 7.14 1.27 9.64 3.82 2.51 2.55 3.76 5.77 3.76 9.66s-1.27 7.17-3.8 9.75-5.72 3.87-9.56 3.87c-2.38 0-4.64-.54-6.8-1.61s-3.8-2.65-4.92-4.72-1.68-4.6-1.68-7.58zm7.03.36c0 2.57.61 4.54 1.83 5.91s2.73 2.05 4.52 2.05 3.29-.68 4.5-2.05c1.21-1.37 1.82-3.35 1.82-5.96s-.61-4.49-1.82-5.86-2.71-2.05-4.5-2.05-3.3.68-4.52 2.05-1.83 3.34-1.83 5.91zM243.69 1207.78h15.01c3.08 0 5.38.56 6.91 1.68 1.53 1.12 2.29 2.82 2.29 5.08 0 1.45-.42 2.71-1.26 3.78-.84 1.07-1.89 1.79-3.16 2.15 1.79.44 3.12 1.26 4 2.47.88 1.21 1.32 2.52 1.32 3.96 0 2.02-.74 3.66-2.22 4.92-1.48 1.26-3.67 1.89-6.57 1.89h-16.33v-25.93zm6.91 10.76h4.42c2.13 0 3.67-.27 4.63-.81.95-.54 1.43-1.38 1.43-2.54 0-1.09-.44-1.87-1.33-2.33-.89-.46-2.46-.7-4.72-.7h-4.42v6.37zm0 10.77h5.42c1.95 0 3.38-.24 4.27-.71.89-.47 1.34-1.32 1.34-2.54s-.51-2.14-1.54-2.62-3.02-.72-5.98-.72h-3.52v6.59zM288.71 1225.45l6.84 1.15c-.88 2.51-2.27 4.42-4.16 5.73-1.9 1.31-4.27 1.96-7.12 1.96-4.51 0-7.85-1.47-10.01-4.42-1.71-2.36-2.56-5.34-2.56-8.94 0-4.3 1.12-7.66 3.37-10.09 2.25-2.43 5.09-3.65 8.52-3.65 3.86 0 6.9 1.27 9.13 3.82 2.23 2.55 3.3 6.45 3.2 11.71h-17.19c.05 2.04.6 3.62 1.66 4.75s2.38 1.7 3.96 1.7c1.07 0 1.98-.29 2.71-.88s1.29-1.53 1.66-2.83zm.39-6.93c-.05-1.99-.56-3.5-1.54-4.53-.98-1.03-2.17-1.55-3.56-1.55-1.5 0-2.73.55-3.71 1.64-.98 1.09-1.46 2.57-1.44 4.44h10.25zM301.31 1207.78h6.4v3.81c.83-1.3 1.95-2.36 3.37-3.17 1.42-.81 2.99-1.22 4.71-1.22 3.01 0 5.57 1.18 7.67 3.54 2.1 2.36 3.15 5.65 3.15 9.86s-1.06 7.69-3.17 10.09c-2.12 2.4-4.68 3.6-7.69 3.6-1.43 0-2.73-.29-3.89-.85-1.16-.57-2.39-1.55-3.67-2.93v13.06h-6.86v-35.79zm6.79 12.52c0 2.91.58 5.07 1.73 6.46 1.16 1.39 2.56 2.09 4.22 2.09s2.92-.64 3.98-1.92c1.06-1.28 1.59-3.37 1.59-6.29 0-2.72-.55-4.74-1.64-6.05-1.09-1.32-2.44-1.98-4.05-1.98s-3.07.65-4.17 1.94c-1.11 1.29-1.66 3.21-1.66 5.75zM328.09 1233.71l9.35-13.35-8.96-12.57h8.37l4.59 7.13 4.83-7.13h8.06l-8.79 12.28 9.59 13.65h-8.42l-5.27-8.03-5.32 8.03h-8.03zM358.93 1207.78h6.86v9.5h9.81v-9.5h6.88v25.93h-6.88v-10.89h-9.81v10.89h-6.86v-25.93zM387.81 1220.38c0-2.28.56-4.48 1.68-6.62 1.12-2.13 2.71-3.76 4.77-4.88 2.06-1.12 4.36-1.68 6.9-1.68 3.92 0 7.14 1.27 9.64 3.82 2.51 2.55 3.76 5.77 3.76 9.66s-1.27 7.17-3.8 9.75-5.72 3.87-9.56 3.87c-2.38 0-4.64-.54-6.8-1.61s-3.8-2.65-4.92-4.72-1.68-4.6-1.68-7.58zm7.03.36c0 2.57.61 4.54 1.83 5.91s2.73 2.05 4.52 2.05 3.29-.68 4.5-2.05c1.21-1.37 1.82-3.35 1.82-5.96s-.61-4.49-1.82-5.86-2.71-2.05-4.5-2.05-3.3.68-4.52 2.05-1.83 3.34-1.83 5.91zM441.89 1215.44l-6.76 1.22c-.23-1.35-.74-2.37-1.55-3.05-.8-.68-1.85-1.03-3.14-1.03-1.71 0-3.07.59-4.09 1.77-1.02 1.18-1.53 3.15-1.53 5.92 0 3.08.52 5.25 1.55 6.52 1.03 1.27 2.42 1.9 4.16 1.9 1.3 0 2.37-.37 3.2-1.11.83-.74 1.42-2.01 1.76-3.82l6.74 1.15c-.7 3.09-2.04 5.43-4.03 7.01-1.99 1.58-4.65 2.37-7.98 2.37-3.79 0-6.82-1.2-9.07-3.59-2.25-2.39-3.38-5.7-3.38-9.94s1.13-7.61 3.39-10c2.26-2.38 5.32-3.58 9.18-3.58 3.16 0 5.67.68 7.53 2.04 1.86 1.36 3.2 3.43 4.02 6.21zM444.01 1207.78h23.46v5.54h-8.3v20.39h-6.86v-20.39h-8.3v-5.54zM471.72 1207.78h6.86v10.77h6.88c2.7 0 4.78.2 6.23.59 1.45.39 2.65 1.23 3.61 2.53.96 1.29 1.44 2.8 1.44 4.5 0 2.51-.86 4.39-2.58 5.65-1.72 1.26-4.29 1.89-7.73 1.89h-14.72v-25.93zm6.86 21.58h6.4c2 0 3.28-.33 3.85-.98.56-.65.84-1.42.84-2.32 0-1.25-.48-2.12-1.45-2.59-.97-.47-2.69-.71-5.16-.71h-4.47v6.59z"/></g><g><path class="uuid-36dd17e2-a2e4-4a57-9818-830626696931" d="m200.09 1383.19 7.01 2.22c-1.07 3.91-2.86 6.81-5.36 8.7-2.5 1.9-5.67 2.84-9.51 2.84-4.75 0-8.66-1.62-11.72-4.87-3.06-3.25-4.59-7.69-4.59-13.32 0-5.96 1.54-10.58 4.61-13.88 3.08-3.3 7.12-4.94 12.13-4.94 4.38 0 7.93 1.29 10.67 3.88 1.63 1.53 2.85 3.73 3.66 6.59l-7.15 1.71c-.42-1.86-1.31-3.32-2.65-4.39-1.34-1.07-2.97-1.61-4.89-1.61-2.65 0-4.81.95-6.46 2.86-1.65 1.9-2.48 4.99-2.48 9.25 0 4.53.81 7.75 2.44 9.67s3.74 2.88 6.35 2.88c1.92 0 3.57-.61 4.96-1.83 1.38-1.22 2.38-3.14 2.98-5.76zM212.98 1370.42h6.84v10.6c1.14-.13 1.94-.48 2.42-1.05.47-.57 1.04-1.81 1.71-3.74.88-2.55 1.84-4.19 2.88-4.91 1.04-.72 2.41-1.07 4.1-1.07.52 0 1.42.04 2.71.12l.02 4.54c-1.81 0-2.96.17-3.47.51-.5.36-1.05 1.42-1.64 3.2-.8 2.39-1.95 3.87-3.44 4.42 2.16.6 4 2.48 5.49 5.64.08.16.17.33.27.51l3.83 7.15h-7.37l-3.42-7.5c-.7-1.51-1.31-2.49-1.82-2.92-.51-.43-1.27-.65-2.28-.65v11.06h-6.84v-25.93zM240.74 1370.42h22.97v25.93h-6.84v-20.36h-9.35v11.65c0 2.96-.34 5.04-1.03 6.24-.68 1.2-1.44 1.98-2.27 2.36s-2.17.56-4 .56c-1.09 0-2.53-.15-4.32-.44v-5.05c.15 0 .53.02 1.15.05.72.05 1.27.07 1.66.07.93 0 1.5-.3 1.71-.92.21-.61.32-2.31.32-5.09v-14.99zM275.77 1378.33l-6.23-1.12c.7-2.51 1.9-4.36 3.61-5.57 1.71-1.2 4.25-1.81 7.62-1.81 3.06 0 5.34.36 6.84 1.09 1.5.72 2.55 1.64 3.16 2.76.61 1.11.92 3.16.92 6.14l-.07 8.01c0 2.28.11 3.96.33 5.04.22 1.08.63 2.24 1.23 3.48h-6.79c-.18-.46-.4-1.13-.66-2.03-.11-.41-.2-.67-.24-.81-1.17 1.14-2.43 1.99-3.76 2.56-1.33.57-2.76.85-4.27.85-2.67 0-4.77-.72-6.31-2.17s-2.31-3.28-2.31-5.49c0-1.46.35-2.77 1.05-3.92.7-1.15 1.68-2.03 2.94-2.64 1.26-.61 3.08-1.14 5.46-1.6 3.21-.6 5.43-1.16 6.67-1.68v-.68c0-1.32-.33-2.26-.98-2.82-.65-.56-1.88-.84-3.69-.84-1.22 0-2.17.24-2.86.72-.68.48-1.24 1.32-1.66 2.53zm9.18 5.57c-.88.29-2.27.64-4.17 1.05-1.9.41-3.15.81-3.74 1.2-.9.63-1.34 1.44-1.34 2.42s.36 1.79 1.07 2.49c.72.7 1.63 1.05 2.73 1.05 1.24 0 2.42-.41 3.54-1.22.83-.62 1.38-1.38 1.64-2.27.18-.59.27-1.7.27-3.34v-1.37zM319.89 1396.35h-19.63v6.84h-5.57v-12.45h2.81c1.17-1.3 2.14-3.34 2.91-6.1.76-2.77 1.22-7.5 1.37-14.21h20.92v20.31h2.78v12.45h-5.59v-6.84zm-3.98-5.61.02-14.67h-8.3c-.28 7.16-1.42 12.05-3.42 14.67h11.69z"/></g><g><path class="uuid-8b4b1dbc-b313-4e59-96f1-c62fbe3da5d2" d="M179.2 1522.77h28.47v35.79h-7.23v-29.79h-14.01v29.79h-7.23v-35.79zM213.41 1545.24c0-2.28.56-4.48 1.68-6.62 1.12-2.13 2.71-3.76 4.77-4.88 2.06-1.12 4.36-1.68 6.9-1.68 3.92 0 7.14 1.27 9.64 3.82 2.51 2.55 3.76 5.77 3.76 9.66s-1.27 7.17-3.8 9.75-5.72 3.87-9.56 3.87c-2.38 0-4.64-.54-6.8-1.61s-3.8-2.65-4.92-4.72-1.68-4.6-1.68-7.58zm7.03.36c0 2.57.61 4.54 1.83 5.91s2.73 2.05 4.52 2.05 3.29-.68 4.5-2.05c1.21-1.37 1.82-3.35 1.82-5.96s-.61-4.49-1.82-5.86-2.71-2.05-4.5-2.05-3.3.68-4.52 2.05-1.83 3.34-1.83 5.91zM266.31 1558.57h-19.63v6.84h-5.57v-12.45h2.81c1.17-1.3 2.14-3.34 2.91-6.1.76-2.77 1.22-7.5 1.37-14.21h20.92v20.31h2.78v12.45h-5.59v-6.84zm-3.98-5.62.02-14.67h-8.3c-.28 7.16-1.42 12.05-3.42 14.67h11.69zM276.69 1532.64h15.01c3.08 0 5.38.56 6.91 1.68 1.53 1.12 2.29 2.82 2.29 5.08 0 1.45-.42 2.71-1.26 3.78-.84 1.07-1.89 1.79-3.16 2.15 1.79.44 3.12 1.26 4 2.47.88 1.21 1.32 2.52 1.32 3.96 0 2.02-.74 3.66-2.22 4.92-1.48 1.26-3.67 1.89-6.57 1.89h-16.33v-25.93zm6.91 10.76h4.42c2.13 0 3.67-.27 4.63-.81.95-.54 1.43-1.38 1.43-2.54 0-1.09-.44-1.87-1.33-2.33-.89-.46-2.46-.7-4.72-.7h-4.42v6.37zm0 10.77h5.42c1.95 0 3.38-.24 4.27-.71.89-.47 1.34-1.32 1.34-2.54s-.51-2.14-1.54-2.62-3.02-.72-5.98-.72h-3.52v6.59zM311.82 1540.55l-6.23-1.12c.7-2.51 1.9-4.36 3.61-5.57 1.71-1.2 4.25-1.81 7.62-1.81 3.06 0 5.34.36 6.84 1.09 1.5.72 2.55 1.64 3.16 2.76.61 1.11.92 3.16.92 6.14l-.07 8.01c0 2.28.11 3.96.33 5.04.22 1.08.63 2.24 1.23 3.48h-6.79c-.18-.46-.4-1.13-.66-2.03-.11-.41-.2-.67-.24-.81-1.17 1.14-2.43 1.99-3.76 2.56-1.33.57-2.76.85-4.27.85-2.67 0-4.77-.72-6.31-2.17s-2.31-3.28-2.31-5.49c0-1.46.35-2.77 1.05-3.92.7-1.15 1.68-2.03 2.94-2.64 1.26-.61 3.08-1.14 5.46-1.6 3.21-.6 5.43-1.16 6.67-1.68v-.68c0-1.32-.33-2.26-.98-2.82-.65-.56-1.88-.84-3.69-.84-1.22 0-2.17.24-2.86.72-.68.48-1.24 1.32-1.66 2.53zm9.18 5.56c-.88.29-2.27.64-4.17 1.05-1.9.41-3.15.81-3.74 1.2-.9.63-1.34 1.44-1.34 2.42s.36 1.79 1.07 2.49c.72.7 1.63 1.05 2.73 1.05 1.24 0 2.42-.41 3.54-1.22.83-.62 1.38-1.38 1.64-2.27.18-.59.27-1.7.27-3.34v-1.37zM336.36 1532.64h22.97v25.93h-6.84v-20.36h-9.35v11.65c0 2.96-.34 5.04-1.03 6.24-.68 1.2-1.44 1.98-2.27 2.36s-2.17.56-4 .56c-1.09 0-2.53-.15-4.32-.44v-5.05c.15 0 .53.02 1.15.05.72.05 1.27.07 1.66.07.93 0 1.5-.3 1.71-.92.21-.61.32-2.31.32-5.09v-14.99z"/></g></g></g></svg>