<svg xmlns="http://www.w3.org/2000/svg" viewBox="0 0 6209.15 3600.35"><defs><pattern id="uuid-27be1289-46e7-4933-b0f6-89e40f2eb199" data-name="Новый образец узора 7" x="0" y="0" width="245.56" height="245.56" patternUnits="userSpaceOnUse"><path class="uuid-1f6b20e8-2a50-4e5f-9c82-2ddc1b63efbf" d="M0 0h245.56v245.56H0z"/><path class="uuid-0646eb20-8461-4ec9-b2fd-1f7a2d076133" d="M245.56 245.56v-4.82l-4.82 4.82h4.82zM229.91 245.56l15.65-15.65v-9.64l-25.29 25.29h9.64zM209.45 245.56l36.11-36.11v-9.64l-45.75 45.75h9.64zM188.99 245.56l56.57-56.57v-9.64l-66.21 66.21h9.64zM168.52 245.56l77.04-77.04v-9.63l-86.67 86.67h9.63zM148.06 245.56l97.5-97.5v-9.64L138.42 245.56h9.64zM127.6 245.56 245.56 127.6v-9.64l-127.6 127.6h9.64zM107.13 245.56l138.43-138.43V97.5L97.5 245.56h9.63zM86.67 245.56 245.56 86.67v-9.64L77.03 245.56h9.64zM66.21 245.56 245.56 66.21v-9.64L56.57 245.56h9.64zM45.74 245.56 245.56 45.74v-9.63L36.11 245.56h9.63zM25.28 245.56 245.56 25.28v-9.64L15.64 245.56h9.64zM0 245.56h4.82L245.56 4.82V0h-4.82L0 240.74v4.82zM0 229.91 229.91 0h-9.64L0 220.27v9.64zM0 209.45 209.45 0h-9.64L0 199.81v9.64zM0 188.99 188.99 0h-9.64L0 179.35v9.64zM0 168.52 168.52 0h-9.63L0 158.89v9.63zM0 148.06 148.06 0h-9.64L0 138.42v9.64zM0 127.6 127.6 0h-9.64L0 117.96v9.64zM0 107.13 107.13 0H97.5L0 97.5v9.63zM0 86.67 86.67 0h-9.64L0 77.03v9.64zM0 66.21 66.21 0h-9.64L0 56.57v9.64zM0 45.74 45.74 0h-9.63L0 36.11v9.63zM0 25.28 25.28 0h-9.64L0 15.64v9.64zM0 4.82 4.82 0H0v4.82z"/></pattern><pattern id="uuid-f991d775-b587-43f0-b10b-920762f70bac" data-name="Новый образец узора 12" x="0" y="0" width="245.56" height="245.56" patternUnits="userSpaceOnUse"><path class="uuid-1f6b20e8-2a50-4e5f-9c82-2ddc1b63efbf" d="M0 0h245.56v245.56H0z"/><path class="uuid-b6bd1b18-15b6-4423-9bda-764c6abaa699" d="M245.56 245.56v-4.82l-4.82 4.82h4.82zM229.91 245.56l15.65-15.65v-9.64l-25.29 25.29h9.64zM209.45 245.56l36.11-36.11v-9.64l-45.75 45.75h9.64zM188.99 245.56l56.57-56.57v-9.64l-66.21 66.21h9.64zM168.52 245.56l77.04-77.04v-9.63l-86.67 86.67h9.63zM148.06 245.56l97.5-97.5v-9.64L138.42 245.56h9.64zM127.6 245.56 245.56 127.6v-9.64l-127.6 127.6h9.64zM107.13 245.56l138.43-138.43V97.5L97.5 245.56h9.63zM86.67 245.56 245.56 86.67v-9.64L77.03 245.56h9.64zM66.21 245.56 245.56 66.21v-9.64L56.57 245.56h9.64zM45.74 245.56 245.56 45.74v-9.63L36.11 245.56h9.63zM25.28 245.56 245.56 25.28v-9.64L15.64 245.56h9.64zM0 245.56h4.82L245.56 4.82V0h-4.82L0 240.74v4.82zM0 229.91 229.91 0h-9.64L0 220.27v9.64zM0 209.45 209.45 0h-9.64L0 199.81v9.64zM0 188.99 188.99 0h-9.64L0 179.35v9.64zM0 168.52 168.52 0h-9.63L0 158.89v9.63zM0 148.06 148.06 0h-9.64L0 138.42v9.64zM0 127.6 127.6 0h-9.64L0 117.96v9.64zM0 107.13 107.13 0H97.5L0 97.5v9.63zM0 86.67 86.67 0h-9.64L0 77.03v9.64zM0 66.21 66.21 0h-9.64L0 56.57v9.64zM0 45.74 45.74 0h-9.63L0 36.11v9.63zM0 25.28 25.28 0h-9.64L0 15.64v9.64zM0 4.82 4.82 0H0v4.82z"/></pattern><pattern id="uuid-73a8050f-ca4f-491e-9b3f-97555075486b" data-name="Новый образец узора 10" x="0" y="0" width="245.56" height="245.56" patternUnits="userSpaceOnUse"><path class="uuid-1f6b20e8-2a50-4e5f-9c82-2ddc1b63efbf" d="M0 0h245.56v245.56H0z"/><path class="uuid-45cc94c1-51ac-4621-ab3f-3545ed297d9a" d="M245.56 245.56v-4.82l-4.82 4.82h4.82zM229.91 245.56l15.65-15.65v-9.64l-25.29 25.29h9.64zM209.45 245.56l36.11-36.11v-9.64l-45.75 45.75h9.64zM188.99 245.56l56.57-56.57v-9.64l-66.21 66.21h9.64zM168.52 245.56l77.04-77.04v-9.63l-86.67 86.67h9.63zM148.06 245.56l97.5-97.5v-9.64L138.42 245.56h9.64zM127.6 245.56 245.56 127.6v-9.64l-127.6 127.6h9.64zM107.13 245.56l138.43-138.43V97.5L97.5 245.56h9.63zM86.67 245.56 245.56 86.67v-9.64L77.03 245.56h9.64zM66.21 245.56 245.56 66.21v-9.64L56.57 245.56h9.64zM45.74 245.56 245.56 45.74v-9.63L36.11 245.56h9.63zM25.28 245.56 245.56 25.28v-9.64L15.64 245.56h9.64zM0 245.56h4.82L245.56 4.82V0h-4.82L0 240.74v4.82zM0 229.91 229.91 0h-9.64L0 220.27v9.64zM0 209.45 209.45 0h-9.64L0 199.81v9.64zM0 188.99 188.99 0h-9.64L0 179.35v9.64zM0 168.52 168.52 0h-9.63L0 158.89v9.63zM0 148.06 148.06 0h-9.64L0 138.42v9.64zM0 127.6 127.6 0h-9.64L0 117.96v9.64zM0 107.13 107.13 0H97.5L0 97.5v9.63zM0 86.67 86.67 0h-9.64L0 77.03v9.64zM0 66.21 66.21 0h-9.64L0 56.57v9.64zM0 45.74 45.74 0h-9.63L0 36.11v9.63zM0 25.28 25.28 0h-9.64L0 15.64v9.64zM0 4.82 4.82 0H0v4.82z"/></pattern><pattern id="uuid-9abc8b0e-8f2e-4609-938e-ca1d98d79f01" data-name="Новый образец узора 16" x="0" y="0" width="245.56" height="245.56" patternUnits="userSpaceOnUse"><path class="uuid-1f6b20e8-2a50-4e5f-9c82-2ddc1b63efbf" d="M0 0h245.56v245.56H0z"/><path class="uuid-a9ab703f-ad9b-4986-a69d-eb3212d56db3" d="M245.56 245.56v-4.82l-4.82 4.82h4.82zM229.91 245.56l15.65-15.65v-9.64l-25.29 25.29h9.64zM209.45 245.56l36.11-36.11v-9.64l-45.75 45.75h9.64zM188.99 245.56l56.57-56.57v-9.64l-66.21 66.21h9.64zM168.52 245.56l77.04-77.04v-9.63l-86.67 86.67h9.63zM148.06 245.56l97.5-97.5v-9.64L138.42 245.56h9.64zM127.6 245.56 245.56 127.6v-9.64l-127.6 127.6h9.64zM107.13 245.56l138.43-138.43V97.5L97.5 245.56h9.63zM86.67 245.56 245.56 86.67v-9.64L77.03 245.56h9.64zM66.21 245.56 245.56 66.21v-9.64L56.57 245.56h9.64zM45.74 245.56 245.56 45.74v-9.63L36.11 245.56h9.63zM25.28 245.56 245.56 25.28v-9.64L15.64 245.56h9.64zM0 245.56h4.82L245.56 4.82V0h-4.82L0 240.74v4.82zM0 229.91 229.91 0h-9.64L0 220.27v9.64zM0 209.45 209.45 0h-9.64L0 199.81v9.64zM0 188.99 188.99 0h-9.64L0 179.35v9.64zM0 168.52 168.52 0h-9.63L0 158.89v9.63zM0 148.06 148.06 0h-9.64L0 138.42v9.64zM0 127.6 127.6 0h-9.64L0 117.96v9.64zM0 107.13 107.13 0H97.5L0 97.5v9.63zM0 86.67 86.67 0h-9.64L0 77.03v9.64zM0 66.21 66.21 0h-9.64L0 56.57v9.64zM0 45.74 45.74 0h-9.63L0 36.11v9.63zM0 25.28 25.28 0h-9.64L0 15.64v9.64zM0 4.82 4.82 0H0v4.82z"/></pattern><style>.uuid-1c9df5c5-1803-497b-b257-8eb6b386dd8b{fill:url(#uuid-9abc8b0e-8f2e-4609-938e-ca1d98d79f01);stroke:#c69c6d;stroke-miterlimit:10;stroke-width:2px}.uuid-61513b16-82e9-4cf6-be3d-b52d09b478e6{stroke-miterlimit:10;stroke-width:2px}.uuid-1f6b20e8-2a50-4e5f-9c82-2ddc1b63efbf{fill:none}.uuid-a38a6fbe-315a-4e0f-b808-5c5d6336f363{fill:#91d4f5}.uuid-a9ab703f-ad9b-4986-a69d-eb3212d56db3{fill:#c69c6d}.uuid-712345a6-e50e-4cc0-8864-8fdba7f1d0bb{fill:#6987f2}.uuid-61513b16-82e9-4cf6-be3d-b52d09b478e6{stroke:#ffa043}.uuid-45cc94c1-51ac-4621-ab3f-3545ed297d9a{fill:#e84242}.uuid-2ea852bb-4da9-491f-81e2-f7153fafbf14{fill:#f2f2f2}.uuid-61513b16-82e9-4cf6-be3d-b52d09b478e6{fill:url(#uuid-27be1289-46e7-4933-b0f6-89e40f2eb199)}.uuid-511be5b6-b987-4ca0-bff8-e3e2659f66b1{fill:#ffc550}.uuid-b6bd1b18-15b6-4423-9bda-764c6abaa699{fill:#ccc}.uuid-0646eb20-8461-4ec9-b2fd-1f7a2d076133{fill:#ffa043}.uuid-d579788a-32aa-4415-bcd5-ab8405b8d678{fill:#9dff78}.uuid-215ecf3a-73ab-4738-ba74-a5a1dbbf6674{fill:gray}</style></defs><path style="fill:#1b0b18" d="M-.55 0H6208.6v3600.35H-.55z" id="uuid-cf80936d-ca76-499b-bdf6-b19dd8499a22" data-name="Фон"/><g id="uuid-c6a82f39-0052-4d22-b2f7-dc4dc6a2dcba" data-name="-2-1 Уровень"><path style="fill:#1b0b18;opacity:.7" d="M0-.25h6209.15v3600.61H0z"/><path class="uuid-61513b16-82e9-4cf6-be3d-b52d09b478e6" d="M1226.99 2973.82v27.97h-10.93v1.13h-10.09v-1.13h-87.7v4.03h12.7v40.97h24.17v32.89h-56.85v-73.86h9.89v-4.03h-9.89v-27.97h63.34v-1.23h10.08v1.23h55.28zM1171.71 2969.58h25.73v-26.19h-8.28v-7.84l2.92-2.93h5.36v-15.21h-5.36l-2.92-2.93v-4.47h-44.53v59.57h17v1.23h10.08v-1.23z"/><path class="uuid-61513b16-82e9-4cf6-be3d-b52d09b478e6" d="M1216.06 3005.82h10.93v54.85h-55.3v-54.85h34.28v-1.13h10.09v1.13z"/><path style="stroke:#ccc;fill:url(#uuid-f991d775-b587-43f0-b10b-920762f70bac);stroke-width:2px;stroke-miterlimit:10" d="M3706.3 1198.44v205.7h-190.47v-89.54h-13.66l-271.82 271.82v485.15h-93.34v-523.29l272.27-272.27v-77.57l10.33.01v6.27h12.28v-13.82h47.52v13.82h12.03v-6.27l214.86-.01z"/><path style="fill:url(#uuid-73a8050f-ca4f-491e-9b3f-97555075486b);stroke-width:3px;stroke:#e84242;stroke-miterlimit:10" d="M4095.32 1079.05v103.27h-603.88v-2.46h-12.03v11.39h-47.52v-11.39h-12.28v2.46H3160.4v-103.26h5.14l107.85-269.7 281.42 204.35h147.25l280.36-204.35 108.09 269.69h4.81z"/><path class="uuid-1c9df5c5-1803-497b-b257-8eb6b386dd8b" d="M3873.5 1623.91v149.75h-163.59v-2.24h-13.44v2.24h-118.65v-2.24h-13.44v2.24h-119.06l-7.39 7.39v47.45h-2.24v13.44h2.24v118.64h-2.24v13.44h2.24v119.72h-40.06V1990.6h-1.24v-10.08h1.24v-199.24l-7.6-7.6h-32.02v-39.62h51.71v2.24h49.02v-2.24h142.35v-143.92h14.76v-4.25H3587v-65.58h29.09v-4.25h-19.46v-37.15h-43.43v-37.16h135.85v37.16h-43.19v37.15h-19.69v4.25h28.87v65.58h-28.87v4.25h14.77v143.92h10.56v2.24h49.02v-2.24h133.13v-89.12h2.24v-49.02h-2.24v-41.37h39.84v59.28h1.13v10.08h-1.13z"/><path class="uuid-1c9df5c5-1803-497b-b257-8eb6b386dd8b" d="M3393.63 1980.51v-8.75h-20.6v-51.71h-45.2v77.89h65.8v-7.34h1.23v-10.09h-1.23zm-47.91-8.75v-25.52h9.42v25.52h-9.42zM3928.69 1606.42v-51.71h-45.21v51.71h-5.94v7.4h-1.14v10.09h1.14v8.7h72.73v-26.19h-21.58zm-27.31 0v-25.52h9.41v25.52h-9.41z"/><g id="uuid-5560a6e8-c034-47f6-b083-e33db6470f26" data-name="Образцы 2"><path style="stroke:#6987f2;fill:none;stroke-width:2px;stroke-miterlimit:10" d="M9.42 9.91h151.27v151.27H9.42z"/><path class="uuid-712345a6-e50e-4cc0-8864-8fdba7f1d0bb" d="M9.42 161.18h2.97l-2.97-2.97v2.97zM9.42 151.54l9.64 9.64h5.93L9.42 145.6v5.94zM9.42 138.93l22.24 22.25h5.94L9.42 133v5.93zM9.42 126.33l34.85 34.85h5.93L9.42 120.39v5.94zM9.42 113.72l47.45 47.46h5.94L9.42 107.79v5.93zM9.42 101.12l60.06 60.06h5.94l-66-66v5.94zM9.42 88.51l72.67 72.67h5.93l-78.6-78.6v5.93zM9.42 75.91l85.27 85.27h5.94L9.42 69.97v5.94zM9.42 63.3l97.88 97.88h5.93L9.42 57.37v5.93zM9.42 50.7 119.9 161.18h5.94L9.42 44.76v5.94zM9.42 38.09l123.09 123.09h5.93L9.42 32.15v5.94zM9.42 25.49l135.69 135.69h5.94L9.42 19.55v5.94zM9.42 9.91v2.97l148.3 148.3h2.97v-2.97L12.39 9.91H9.42zM19.06 9.91l141.63 141.63v-5.94L24.99 9.91h-5.93zM31.66 9.91l129.03 129.02V133L37.6 9.91h-5.94zM44.27 9.91l116.42 116.42v-5.94L50.2 9.91h-5.93zM56.87 9.91l103.82 103.81v-5.93L62.81 9.91h-5.94zM69.48 9.91l91.21 91.21v-5.94L75.42 9.91h-5.94zM82.09 9.91l78.6 78.6v-5.93L88.02 9.91h-5.93zM94.69 9.91l66 66v-5.94L100.63 9.91h-5.94zM107.3 9.91l53.39 53.39v-5.93L113.23 9.91h-5.93zM119.9 9.91l40.79 40.79v-5.94L125.84 9.91h-5.94zM132.51 9.91l28.18 28.18v-5.94L138.44 9.91h-5.93zM145.11 9.91l15.58 15.58v-5.94l-9.64-9.64h-5.94zM157.72 9.91l2.97 2.97V9.91h-2.97z"/><g><path style="stroke:#ffc550;fill:none;stroke-width:2px;stroke-miterlimit:10" d="M9.09 172.56h151.27v151.27H9.09z"/><path class="uuid-511be5b6-b987-4ca0-bff8-e3e2659f66b1" d="M9.42 323.82h2.97l-2.97-2.96v2.96zM9.42 314.19l9.64 9.63h5.93L9.42 308.25v5.94zM9.42 301.58l22.24 22.24h5.94L9.42 295.64v5.94zM9.42 288.98l34.85 34.84h5.93L9.42 283.04v5.94zM9.42 276.37l47.45 47.45h5.94L9.42 270.43v5.94zM9.42 263.76l60.06 60.06h5.94l-66-65.99v5.93zM9.42 251.16l72.67 72.66h5.93l-78.6-78.6v5.94zM9.42 238.55l85.27 85.27h5.94l-91.21-91.2v5.93zM9.42 225.95l97.88 97.87h5.93L9.42 220.01v5.94zM9.42 213.34 119.9 323.82h5.94L9.42 207.41v5.93zM9.42 200.74l123.09 123.08h5.93L9.42 194.8v5.94zM9.42 188.13l135.69 135.69h5.94L9.42 182.2v5.93zM9.42 172.56v2.97l148.3 148.29h2.97v-2.96l-148.3-148.3H9.42zM19.06 172.56l141.63 141.63v-5.94L24.99 172.56h-5.93zM31.66 172.56l129.03 129.02v-5.94L37.6 172.56h-5.94zM44.27 172.56l116.42 116.42v-5.94L50.2 172.56h-5.93zM56.87 172.56l103.82 103.81v-5.94l-97.88-97.87h-5.94zM69.48 172.56l91.21 91.2v-5.93l-85.27-85.27h-5.94zM82.09 172.56l78.6 78.6v-5.94l-72.67-72.66h-5.93zM94.69 172.56l66 65.99v-5.93l-60.06-60.06h-5.94zM107.3 172.56l53.39 53.39v-5.94l-47.46-47.45h-5.93zM119.9 172.56l40.79 40.78v-5.93l-34.85-34.85h-5.94zM132.51 172.56l28.18 28.18v-5.94l-22.25-22.24h-5.93zM145.11 172.56l15.58 15.57v-5.93l-9.64-9.64h-5.94zM157.72 172.56l2.97 2.97v-2.97h-2.97z"/></g><g><path style="stroke:#ffa043;fill:none;stroke-width:2px;stroke-miterlimit:10" d="M9.09 335.2h151.27v151.27H9.09z"/><path class="uuid-0646eb20-8461-4ec9-b2fd-1f7a2d076133" d="M9.09 486.47h2.97l-2.97-2.97v2.97zM9.09 476.83l9.64 9.64h5.94L9.09 470.9v5.93zM9.09 464.23l22.25 22.24h5.93L9.09 458.29v5.94zM9.09 451.62l34.85 34.85h5.94L9.09 445.69v5.93zM9.09 439.02l47.46 47.45h5.93L9.09 433.08v5.94zM9.09 426.41l60.06 60.06h5.94l-66-66v5.94zM9.09 413.81l72.67 72.66h5.94l-78.61-78.6v5.94zM9.09 401.2l85.27 85.27h5.94L9.09 395.26v5.94zM9.09 388.59l97.88 97.88h5.94L9.09 382.66v5.93zM9.09 375.99l110.49 110.48h5.93L9.09 370.05v5.94zM9.09 363.38l123.09 123.09h5.94L9.09 357.45v5.93zM9.09 350.78l135.7 135.69h5.93L9.09 344.84v5.94zM9.09 335.2v2.97l148.3 148.3h2.97v-2.97L12.06 335.2H9.09zM18.73 335.2l141.63 141.63v-5.93L24.67 335.2h-5.94zM31.34 335.2l129.02 129.03v-5.94L37.27 335.2h-5.93zM43.94 335.2l116.42 116.42v-5.93L49.88 335.2h-5.94zM56.55 335.2l103.81 103.82v-5.94L62.48 335.2h-5.93zM69.15 335.2l91.21 91.21v-5.94L75.09 335.2h-5.94zM81.76 335.2l78.6 78.61v-5.94L87.7 335.2h-5.94zM94.36 335.2l66 66v-5.94L100.3 335.2h-5.94zM106.97 335.2l53.39 53.39v-5.93l-47.45-47.46h-5.94zM119.58 335.2l40.78 40.79v-5.94l-34.85-34.85h-5.93zM132.18 335.2l28.18 28.18v-5.93l-22.24-22.25h-5.94zM144.79 335.2l15.57 15.58v-5.94l-9.64-9.64h-5.93zM157.39 335.2l2.97 2.97v-2.97h-2.97z"/></g><g><path style="stroke:#91d4f5;fill:none;stroke-width:2px;stroke-miterlimit:10" d="M9.09 497.85h151.27v151.27H9.09z"/><path class="uuid-a38a6fbe-315a-4e0f-b808-5c5d6336f363" d="M9.09 649.12h2.97l-2.97-2.97v2.97zM9.09 639.48l9.64 9.64h5.94L9.09 633.54v5.94zM9.09 626.87l22.25 22.25h5.93L9.09 620.94v5.93zM9.09 614.27l34.85 34.85h5.94L9.09 608.33v5.94zM9.09 601.66l47.46 47.46h5.93L9.09 595.73v5.93zM9.09 589.06l60.06 60.06h5.94l-66-66v5.94zM9.09 576.45l72.67 72.67h5.94l-78.61-78.6v5.93zM9.09 563.85l85.27 85.27h5.94L9.09 557.91v5.94zM9.09 551.24l97.88 97.88h5.94L9.09 545.3v5.94zM9.09 538.64l110.49 110.48h5.93L9.09 532.7v5.94zM9.09 526.03l123.09 123.09h5.94L9.09 520.09v5.94zM9.09 513.42l135.7 135.7h5.93L9.09 507.49v5.93zM9.09 497.85v2.97l148.3 148.3h2.97v-2.97l-148.3-148.3H9.09zM18.73 497.85l141.63 141.63v-5.94L24.67 497.85h-5.94zM31.34 497.85l129.02 129.02v-5.93L37.27 497.85h-5.93zM43.94 497.85l116.42 116.42v-5.94L49.88 497.85h-5.94zM56.55 497.85l103.81 103.81v-5.93l-97.88-97.88h-5.93zM69.15 497.85l91.21 91.21v-5.94l-85.27-85.27h-5.94zM81.76 497.85l78.6 78.6v-5.93L87.7 497.85h-5.94zM94.36 497.85l66 66v-5.94l-60.06-60.06h-5.94zM106.97 497.85l53.39 53.39v-5.94l-47.45-47.45h-5.94zM119.58 497.85l40.78 40.79v-5.94l-34.85-34.85h-5.93zM132.18 497.85l28.18 28.18v-5.94l-22.24-22.24h-5.94zM144.79 497.85l15.57 15.57v-5.93l-9.64-9.64h-5.93zM157.39 497.85l2.97 2.97v-2.97h-2.97z"/></g><g><path style="stroke:#e84242;fill:none;stroke-width:2px;stroke-miterlimit:10" d="M9.09 660.5h151.27v151.27H9.09z"/><path class="uuid-45cc94c1-51ac-4621-ab3f-3545ed297d9a" d="M9.09 811.76h2.97l-2.97-2.97v2.97zM9.09 802.13l9.64 9.63h5.94L9.09 796.19v5.94zM9.09 789.52l22.25 22.24h5.93L9.09 783.58v5.94zM9.09 776.91l34.85 34.85h5.94L9.09 770.98v5.93zM9.09 764.31l47.46 47.45h5.93L9.09 758.37v5.94zM9.09 751.7l60.06 60.06h5.94l-66-65.99v5.93zM9.09 739.1l72.67 72.66h5.94l-78.61-78.6v5.94zM9.09 726.49l85.27 85.27h5.94l-91.21-91.2v5.93zM9.09 713.89l97.88 97.87h5.94L9.09 707.95v5.94zM9.09 701.28l110.49 110.48h5.93L9.09 695.35v5.93zM9.09 688.68l123.09 123.08h5.94L9.09 682.74v5.94zM9.09 676.07l135.7 135.69h5.93L9.09 670.13v5.94zM9.09 660.5v2.96l148.3 148.3h2.97v-2.97L12.06 660.5H9.09zM18.73 660.5l141.63 141.63v-5.94L24.67 660.5h-5.94zM31.34 660.5l129.02 129.02v-5.94L37.27 660.5h-5.93zM43.94 660.5l116.42 116.41v-5.93L49.88 660.5h-5.94zM56.55 660.5l103.81 103.81v-5.94L62.48 660.5h-5.93zM69.15 660.5l91.21 91.2v-5.93L75.09 660.5h-5.94zM81.76 660.5l78.6 78.6v-5.94L87.7 660.5h-5.94zM94.36 660.5l66 65.99v-5.93L100.3 660.5h-5.94zM106.97 660.5l53.39 53.39v-5.94l-47.45-47.45h-5.94zM119.58 660.5l40.78 40.78v-5.93l-34.85-34.85h-5.93zM132.18 660.5l28.18 28.18v-5.94l-22.24-22.24h-5.94zM144.79 660.5l15.57 15.57v-5.94l-9.64-9.63h-5.93zM157.39 660.5l2.97 2.96v-2.96h-2.97z"/></g><g><path style="stroke:gray;fill:none;stroke-width:2px;stroke-miterlimit:10" d="M9.09 823.14h151.27v151.27H9.09z"/><path class="uuid-215ecf3a-73ab-4738-ba74-a5a1dbbf6674" d="M9.09 974.41h2.97l-2.97-2.97v2.97zM9.09 964.77l9.64 9.64h5.94L9.09 958.84v5.93zM9.09 952.17l22.25 22.24h5.93L9.09 946.23v5.94zM9.09 939.56l34.85 34.85h5.94L9.09 933.62v5.94zM9.09 926.96l47.46 47.45h5.93L9.09 921.02v5.94zM9.09 914.35l60.06 60.06h5.94l-66-66v5.94zM9.09 901.74l72.67 72.67h5.94l-78.61-78.6v5.93zM9.09 889.14l85.27 85.27h5.94L9.09 883.2v5.94zM9.09 876.53l97.88 97.88h5.94L9.09 870.6v5.93zM9.09 863.93l110.49 110.48h5.93L9.09 857.99v5.94zM9.09 851.32l123.09 123.09h5.94L9.09 845.39v5.93zM9.09 838.72l135.7 135.69h5.93L9.09 832.78v5.94zM9.09 823.14v2.97l148.3 148.3h2.97v-2.97l-148.3-148.3H9.09zM18.73 823.14l141.63 141.63v-5.93L24.67 823.14h-5.94zM31.34 823.14l129.02 129.03v-5.94L37.27 823.14h-5.93zM43.94 823.14l116.42 116.42v-5.94L49.88 823.14h-5.94zM56.55 823.14l103.81 103.82v-5.94l-97.88-97.88h-5.93zM69.15 823.14l91.21 91.21v-5.94l-85.27-85.27h-5.94zM81.76 823.14l78.6 78.6v-5.93L87.7 823.14h-5.94zM94.36 823.14l66 66v-5.94l-60.06-60.06h-5.94zM106.97 823.14l53.39 53.39v-5.93l-47.45-47.46h-5.94zM119.58 823.14l40.78 40.79v-5.94l-34.85-34.85h-5.93zM132.18 823.14l28.18 28.18v-5.93l-22.24-22.25h-5.94zM144.79 823.14l15.57 15.58v-5.94l-9.64-9.64h-5.93zM157.39 823.14l2.97 2.97v-2.97h-2.97z"/></g><g><path style="stroke:#ccc;fill:none;stroke-width:2px;stroke-miterlimit:10" d="M9.09 985.79h151.27v151.27H9.09z"/><path class="uuid-b6bd1b18-15b6-4423-9bda-764c6abaa699" d="M9.09 1137.06h2.97l-2.97-2.97v2.97zM9.09 1127.42l9.64 9.64h5.94l-15.58-15.58v5.94zM9.09 1114.81l22.25 22.25h5.93l-28.18-28.18v5.93zM9.09 1102.21l34.85 34.85h5.94l-40.79-40.79v5.94zM9.09 1089.6l47.46 47.46h5.93l-53.39-53.39v5.93zM9.09 1077l60.06 60.06h5.94l-66-66v5.94zM9.09 1064.39l72.67 72.67h5.94l-78.61-78.61v5.94zM9.09 1051.79l85.27 85.27h5.94l-91.21-91.21v5.94zM9.09 1039.18l97.88 97.88h5.94L9.09 1033.24v5.94zM9.09 1026.57l110.49 110.49h5.93L9.09 1020.64v5.93zM9.09 1013.97l123.09 123.09h5.94L9.09 1008.03v5.94zM9.09 1001.36l135.7 135.7h5.93L9.09 995.43v5.93zM9.09 985.79v2.97l148.3 148.3h2.97v-2.97l-148.3-148.3H9.09zM18.73 985.79l141.63 141.63v-5.94L24.67 985.79h-5.94zM31.34 985.79l129.02 129.02v-5.93L37.27 985.79h-5.93zM43.94 985.79l116.42 116.42v-5.94L49.88 985.79h-5.94zM56.55 985.79l103.81 103.81v-5.93l-97.88-97.88h-5.93zM69.15 985.79l91.21 91.21v-5.94l-85.27-85.27h-5.94zM81.76 985.79l78.6 78.6v-5.94L87.7 985.79h-5.94zM94.36 985.79l66 66v-5.94l-60.06-60.06h-5.94zM106.97 985.79l53.39 53.39v-5.94l-47.45-47.45h-5.94zM119.58 985.79l40.78 40.78v-5.93l-34.85-34.85h-5.93zM132.18 985.79l28.18 28.18v-5.94l-22.24-22.24h-5.94zM144.79 985.79l15.57 15.57v-5.93l-9.64-9.64h-5.93zM157.39 985.79l2.97 2.97v-2.97h-2.97z"/></g><g><path style="stroke:#f2f2f2;fill:none;stroke-width:2px;stroke-miterlimit:10" d="M9.09 1148.44h151.27v151.27H9.09z"/><path class="uuid-2ea852bb-4da9-491f-81e2-f7153fafbf14" d="M9.09 1299.7h2.97l-2.97-2.97v2.97zM9.09 1290.06l9.64 9.64h5.94l-15.58-15.57v5.93zM9.09 1277.46l22.25 22.24h5.93l-28.18-28.18v5.94zM9.09 1264.85l34.85 34.85h5.94l-40.79-40.78v5.93zM9.09 1252.25l47.46 47.45h5.93l-53.39-53.39v5.94zM9.09 1239.64l60.06 60.06h5.94l-66-65.99v5.93zM9.09 1227.04l72.67 72.66h5.94l-78.61-78.6v5.94zM9.09 1214.43l85.27 85.27h5.94l-91.21-91.2v5.93zM9.09 1201.83l97.88 97.87h5.94L9.09 1195.89v5.94zM9.09 1189.22l110.49 110.48h5.93L9.09 1183.28v5.94zM9.09 1176.61l123.09 123.09h5.94L9.09 1170.68v5.93zM9.09 1164.01l135.7 135.69h5.93L9.09 1158.07v5.94zM9.09 1148.44v2.96l148.3 148.3h2.97v-2.97l-148.3-148.29H9.09zM18.73 1148.44l141.63 141.62v-5.93L24.67 1148.44h-5.94zM31.34 1148.44l129.02 129.02v-5.94L37.27 1148.44h-5.93zM43.94 1148.44l116.42 116.41v-5.93L49.88 1148.44h-5.94zM56.55 1148.44l103.81 103.81v-5.94l-97.88-97.87h-5.93zM69.15 1148.44l91.21 91.2v-5.93l-85.27-85.27h-5.94zM81.76 1148.44l78.6 78.6v-5.94l-72.66-72.66h-5.94zM94.36 1148.44l66 65.99v-5.93l-60.06-60.06h-5.94zM106.97 1148.44l53.39 53.39v-5.94l-47.45-47.45h-5.94zM119.58 1148.44l40.78 40.78v-5.94l-34.85-34.84h-5.93zM132.18 1148.44l28.18 28.17v-5.93l-22.24-22.24h-5.94zM144.79 1148.44l15.57 15.57v-5.94l-9.64-9.63h-5.93zM157.39 1148.44l2.97 2.96v-2.96h-2.97z"/></g><g><path style="stroke:#9dff78;fill:none;stroke-width:2px;stroke-miterlimit:10" d="M9.09 1311.08h151.27v151.27H9.09z"/><path class="uuid-d579788a-32aa-4415-bcd5-ab8405b8d678" d="M9.09 1462.35h2.97l-2.97-2.97v2.97zM9.09 1452.71l9.64 9.64h5.94l-15.58-15.58v5.94zM9.09 1440.11l22.25 22.24h5.93l-28.18-28.18v5.94zM9.09 1427.5l34.85 34.85h5.94l-40.79-40.79v5.94zM9.09 1414.89l47.46 47.46h5.93l-53.39-53.39v5.93zM9.09 1402.29l60.06 60.06h5.94l-66-66v5.94zM9.09 1389.68l72.67 72.67h5.94l-78.61-78.6v5.93zM9.09 1377.08l85.27 85.27h5.94l-91.21-91.21v5.94zM9.09 1364.47l97.88 97.88h5.94L9.09 1358.54v5.93zM9.09 1351.87l110.49 110.48h5.93L9.09 1345.93v5.94zM9.09 1339.26l123.09 123.09h5.94L9.09 1333.32v5.94zM9.09 1326.66l135.7 135.69h5.93L9.09 1320.72v5.94zM9.09 1311.08v2.97l148.3 148.3h2.97v-2.97l-148.3-148.3H9.09zM18.73 1311.08l141.63 141.63v-5.94L24.67 1311.08h-5.94zM31.34 1311.08l129.02 129.03v-5.94L37.27 1311.08h-5.93zM43.94 1311.08l116.42 116.42v-5.94L49.88 1311.08h-5.94zM56.55 1311.08l103.81 103.81v-5.93l-97.88-97.88h-5.93zM69.15 1311.08l91.21 91.21v-5.94l-85.27-85.27h-5.94zM81.76 1311.08l78.6 78.6v-5.93l-72.66-72.67h-5.94zM94.36 1311.08l66 66v-5.94l-60.06-60.06h-5.94zM106.97 1311.08l53.39 53.39v-5.93l-47.45-47.46h-5.94zM119.58 1311.08l40.78 40.79v-5.94l-34.85-34.85h-5.93zM132.18 1311.08l28.18 28.18v-5.94l-22.24-22.24h-5.94zM144.79 1311.08l15.57 15.58v-5.94l-9.64-9.64h-5.93zM157.39 1311.08l2.97 2.97v-2.97h-2.97z"/></g><g><path style="fill:none;stroke-width:2px;stroke-miterlimit:10;stroke:#c69c6d" d="M9.09 1473.73h151.27V1625H9.09z"/><path class="uuid-a9ab703f-ad9b-4986-a69d-eb3212d56db3" d="M9.09 1624.99h2.97l-2.97-2.96v2.96zM9.09 1615.36l9.64 9.63h5.94l-15.58-15.57v5.94zM9.09 1602.75l22.25 22.24h5.93l-28.18-28.17v5.93zM9.09 1590.15l34.85 34.84h5.94l-40.79-40.78v5.94zM9.09 1577.54l47.46 47.45h5.93L9.09 1571.6v5.94zM9.09 1564.94l60.06 60.05h5.94l-66-65.99v5.94zM9.09 1552.33l72.67 72.66h5.94l-78.61-78.6v5.94zM9.09 1539.72l85.27 85.27h5.94l-91.21-91.2v5.93zM9.09 1527.12l97.88 97.87h5.94L9.09 1521.18v5.94zM9.09 1514.51l110.49 110.48h5.93L9.09 1508.58v5.93zM9.09 1501.91l123.09 123.08h5.94L9.09 1495.97v5.94zM9.09 1489.3l135.7 135.69h5.93L9.09 1483.37v5.93zM9.09 1473.73v2.97l148.3 148.29h2.97v-2.96l-148.3-148.3H9.09zM18.73 1473.73l141.63 141.63v-5.94L24.67 1473.73h-5.94zM31.34 1473.73l129.02 129.02v-5.93L37.27 1473.73h-5.93zM43.94 1473.73l116.42 116.42v-5.94L49.88 1473.73h-5.94zM56.55 1473.73l103.81 103.81v-5.94l-97.88-97.87h-5.93zM69.15 1473.73l91.21 91.21V1559l-85.27-85.27h-5.94zM81.76 1473.73l78.6 78.6v-5.94l-72.66-72.66h-5.94zM94.36 1473.73l66 65.99v-5.93l-60.06-60.06h-5.94zM106.97 1473.73l53.39 53.39v-5.94l-47.45-47.45h-5.94zM119.58 1473.73l40.78 40.78v-5.93l-34.85-34.85h-5.93zM132.18 1473.73l28.18 28.18v-5.94l-22.24-22.24h-5.94zM144.79 1473.73l15.57 15.57v-5.93l-9.64-9.64h-5.93zM157.39 1473.73l2.97 2.97v-2.97h-2.97z"/></g><g><path class="uuid-712345a6-e50e-4cc0-8864-8fdba7f1d0bb" d="M177.59 101.12v-35.5h7.23v29.47h17.97v6.03h-25.2zM230.83 87.96l7.01 2.22c-1.07 3.91-2.86 6.81-5.36 8.7-2.5 1.9-5.67 2.84-9.51 2.84-4.75 0-8.66-1.62-11.72-4.87-3.06-3.25-4.59-7.69-4.59-13.32 0-5.96 1.54-10.58 4.61-13.88 3.08-3.3 7.12-4.94 12.13-4.94 4.38 0 7.93 1.29 10.67 3.88 1.63 1.53 2.85 3.73 3.66 6.59l-7.15 1.71c-.42-1.86-1.31-3.32-2.65-4.39-1.34-1.07-2.97-1.61-4.89-1.61-2.65 0-4.81.95-6.46 2.86-1.65 1.9-2.48 4.99-2.48 9.25 0 4.53.81 7.75 2.44 9.67s3.74 2.88 6.35 2.88c1.92 0 3.57-.61 4.96-1.83 1.38-1.22 2.38-3.14 2.98-5.76zM240.94 101.12V94.6l18.8-23.22h-16.67v-6.05h26.2v5.62l-19.6 24.15h20.36v6.03h-29.08z"/></g><g><path class="uuid-511be5b6-b987-4ca0-bff8-e3e2659f66b1" d="M177.42 259.31v-35.79h7.23v14.09h14.16v-14.09h7.23v35.79h-7.23v-15.65h-14.16v15.65h-7.23zM236.4 246.15l7.01 2.22c-1.07 3.91-2.86 6.81-5.36 8.7-2.5 1.9-5.67 2.84-9.51 2.84-4.75 0-8.66-1.62-11.72-4.87-3.06-3.25-4.59-7.69-4.59-13.32 0-5.96 1.54-10.58 4.61-13.88 3.08-3.3 7.12-4.94 12.13-4.94 4.38 0 7.93 1.29 10.67 3.88 1.63 1.53 2.85 3.73 3.66 6.59l-7.15 1.71c-.42-1.86-1.31-3.32-2.65-4.39-1.34-1.07-2.97-1.61-4.89-1.61-2.65 0-4.81.95-6.46 2.86-1.65 1.9-2.48 4.99-2.48 9.25 0 4.53.81 7.75 2.44 9.67s3.74 2.88 6.35 2.88c1.92 0 3.57-.61 4.96-1.83 1.38-1.22 2.38-3.14 2.98-5.76zM246.51 259.31v-6.52l18.8-23.22h-16.67v-6.05h26.2v5.62l-19.6 24.15h20.36v6.03h-29.08zM279.32 249.77v-6.86h13.48v6.86h-13.48zM296.82 223.52h14.31c2.83 0 4.94.12 6.34.35 1.39.24 2.64.73 3.73 1.48 1.1.75 2.01 1.75 2.75 2.99.73 1.24 1.1 2.64 1.1 4.19 0 1.68-.45 3.21-1.36 4.61-.9 1.4-2.13 2.45-3.67 3.15 2.18.63 3.86 1.72 5.03 3.25 1.17 1.53 1.76 3.33 1.76 5.4 0 1.63-.38 3.21-1.13 4.75-.76 1.54-1.79 2.77-3.1 3.69-1.31.92-2.93 1.49-4.85 1.7-1.21.13-4.11.21-8.72.24h-12.18v-35.79zm7.23 5.96v8.28h4.74c2.82 0 4.57-.04 5.25-.12 1.24-.15 2.21-.57 2.92-1.28s1.06-1.64 1.06-2.8-.3-2.01-.92-2.7c-.61-.69-1.52-1.11-2.72-1.26-.72-.08-2.78-.12-6.18-.12h-4.15zm0 14.23v9.57h6.69c2.6 0 4.26-.07 4.96-.22 1.07-.2 1.95-.67 2.62-1.43.68-.76 1.01-1.77 1.01-3.04 0-1.07-.26-1.99-.78-2.73-.52-.75-1.27-1.29-2.26-1.64-.99-.34-3.12-.51-6.41-.51h-5.83z"/></g><g><path class="uuid-0646eb20-8461-4ec9-b2fd-1f7a2d076133" d="M177.42 420.47v-35.79h7.23v14.09h14.16v-14.09h7.23v35.79h-7.23v-15.65h-14.16v15.65h-7.23zM236.4 407.32l7.01 2.22c-1.07 3.91-2.86 6.81-5.36 8.7-2.5 1.9-5.67 2.84-9.51 2.84-4.75 0-8.66-1.62-11.72-4.87-3.06-3.25-4.59-7.69-4.59-13.32 0-5.96 1.54-10.58 4.61-13.88 3.08-3.3 7.12-4.94 12.13-4.94 4.38 0 7.93 1.29 10.67 3.88 1.63 1.53 2.85 3.73 3.66 6.59l-7.15 1.71c-.42-1.86-1.31-3.32-2.65-4.39-1.34-1.07-2.97-1.61-4.89-1.61-2.65 0-4.81.95-6.46 2.86-1.65 1.9-2.48 4.99-2.48 9.25 0 4.53.81 7.75 2.44 9.67s3.74 2.88 6.35 2.88c1.92 0 3.57-.61 4.96-1.83 1.38-1.22 2.38-3.14 2.98-5.76zM246.51 420.47v-6.52l18.8-23.22h-16.67v-6.05h26.2v5.62l-19.6 24.15h20.36v6.03h-29.08zM279.32 410.93v-6.86h13.48v6.86h-13.48zM329.08 420.47h-7.86l-3.12-8.13h-14.31l-2.95 8.13h-7.67l13.94-35.79h7.64l14.33 35.79zm-13.31-14.16-4.93-13.28-4.83 13.28h9.77z"/></g><g><path class="uuid-a38a6fbe-315a-4e0f-b808-5c5d6336f363" d="M177.39 583.12v-35.79h26.54v6.05h-19.31v7.93h17.97v6.03h-17.97v9.74h20v6.03H177.4zM207.64 583.12v-6.52l18.8-23.22h-16.67v-6.05h26.2v5.62l-19.6 24.15h20.36v6.03h-29.08z"/></g><g><path class="uuid-45cc94c1-51ac-4621-ab3f-3545ed297d9a" d="m175.56 734.12 7.03-.68c.42 2.36 1.28 4.09 2.58 5.2 1.29 1.11 3.04 1.66 5.24 1.66 2.33 0 4.08-.49 5.26-1.48 1.18-.99 1.77-2.14 1.77-3.46 0-.85-.25-1.57-.74-2.16-.5-.59-1.36-1.11-2.6-1.55-.85-.29-2.78-.81-5.79-1.56-3.87-.96-6.59-2.14-8.15-3.54-2.2-1.97-3.3-4.37-3.3-7.2 0-1.82.52-3.53 1.55-5.12 1.03-1.59 2.52-2.79 4.47-3.62 1.94-.83 4.29-1.25 7.04-1.25 4.49 0 7.87.99 10.14 2.95 2.27 1.97 3.46 4.6 3.58 7.89l-7.23.32c-.31-1.84-.97-3.16-1.99-3.97s-2.54-1.21-4.58-1.21-3.74.43-4.93 1.29c-.77.55-1.15 1.29-1.15 2.22 0 .85.36 1.57 1.07 2.17.91.77 3.12 1.56 6.64 2.39s6.12 1.69 7.8 2.58c1.68.89 3 2.1 3.96 3.64.95 1.54 1.43 3.44 1.43 5.7 0 2.05-.57 3.97-1.71 5.76-1.14 1.79-2.75 3.12-4.83 3.99-2.08.87-4.68 1.31-7.79 1.31-4.53 0-8-1.05-10.42-3.14-2.43-2.09-3.87-5.14-4.35-9.14zM210.76 745.77v-35.79h7.23v14.09h14.16v-14.09h7.23v35.79h-7.23v-15.65h-14.16v15.65h-7.23zM269.75 732.61l7.01 2.22c-1.07 3.91-2.86 6.81-5.36 8.7-2.5 1.9-5.67 2.84-9.51 2.84-4.75 0-8.66-1.62-11.72-4.87-3.06-3.25-4.59-7.69-4.59-13.32 0-5.96 1.54-10.58 4.61-13.88 3.08-3.3 7.12-4.94 12.13-4.94 4.38 0 7.93 1.29 10.67 3.88 1.63 1.53 2.85 3.73 3.66 6.59l-7.15 1.71c-.42-1.86-1.31-3.32-2.65-4.39-1.34-1.07-2.97-1.61-4.89-1.61-2.65 0-4.81.95-6.46 2.86-1.65 1.9-2.48 4.99-2.48 9.25 0 4.53.81 7.75 2.44 9.67s3.74 2.88 6.35 2.88c1.92 0 3.57-.61 4.96-1.83 1.38-1.22 2.38-3.14 2.98-5.76zM279.86 745.77v-6.52l18.8-23.22h-16.67v-6.05h26.2v5.62l-19.6 24.15h20.36v6.03h-29.08z"/></g><g><path class="uuid-215ecf3a-73ab-4738-ba74-a5a1dbbf6674" d="M176.8 872.62h7.23v8.54c0 2.77.1 4.6.31 5.51.2.9.81 1.69 1.82 2.36 1.01.67 2.49 1 4.44 1 1.55 0 2.92-.17 4.13-.5 1.2-.33 2.25-.83 3.12-1.48v-15.43h7.23v35.79h-7.23v-14.4c-1.46.65-2.91 1.14-4.32 1.48-1.42.33-2.81.5-4.17.5-3.56 0-6.55-.84-8.95-2.53-2.4-1.69-3.6-4.6-3.6-8.75v-12.08zM227.49 900.16l6.84 1.15c-.88 2.51-2.27 4.42-4.16 5.73-1.9 1.31-4.27 1.96-7.12 1.96-4.51 0-7.85-1.47-10.01-4.42-1.71-2.36-2.56-5.34-2.56-8.94 0-4.3 1.12-7.66 3.37-10.09 2.25-2.43 5.09-3.65 8.52-3.65 3.86 0 6.9 1.27 9.13 3.82 2.23 2.55 3.3 6.45 3.2 11.71h-17.19c.05 2.04.6 3.62 1.66 4.75s2.38 1.7 3.96 1.7c1.07 0 1.98-.29 2.71-.88s1.29-1.53 1.66-2.83zm.39-6.93c-.05-1.99-.56-3.5-1.54-4.53-.98-1.03-2.17-1.55-3.56-1.55-1.5 0-2.73.55-3.71 1.64-.98 1.09-1.46 2.57-1.44 4.44h10.25zM240.01 882.49h6.84v10.6c1.14-.13 1.94-.48 2.42-1.05.47-.57 1.04-1.81 1.71-3.74.88-2.55 1.84-4.19 2.88-4.91 1.04-.72 2.41-1.07 4.1-1.07.52 0 1.42.04 2.71.12l.02 4.54c-1.81 0-2.96.17-3.47.51-.5.36-1.05 1.42-1.64 3.2-.8 2.39-1.95 3.87-3.44 4.42 2.16.6 4 2.48 5.49 5.64.08.16.17.33.27.51l3.83 7.15h-7.37l-3.42-7.5c-.7-1.51-1.31-2.49-1.82-2.92-.51-.43-1.27-.65-2.28-.65v11.06H240v-25.93zM265.04 882.49h23.02v25.93h-6.86v-20.39h-9.3v20.39h-6.86v-25.93zM293.92 895.08c0-2.28.56-4.48 1.68-6.62 1.12-2.13 2.71-3.76 4.77-4.88 2.06-1.12 4.36-1.68 6.9-1.68 3.92 0 7.14 1.27 9.64 3.82 2.51 2.55 3.76 5.77 3.76 9.66s-1.27 7.17-3.8 9.75-5.72 3.87-9.56 3.87c-2.38 0-4.64-.54-6.8-1.61s-3.8-2.65-4.92-4.72-1.68-4.6-1.68-7.58zm7.03.37c0 2.57.61 4.54 1.83 5.91s2.73 2.05 4.52 2.05 3.29-.68 4.5-2.05c1.21-1.37 1.82-3.35 1.82-5.96s-.61-4.49-1.82-5.86-2.71-2.05-4.5-2.05-3.3.68-4.52 2.05-1.83 3.34-1.83 5.91zM325.88 882.49h6.59v16.28l10.55-16.28h6.74v25.93h-6.59v-16.58l-10.69 16.58h-6.59v-25.93zM356.52 882.49h6.86v9.5h9.81v-9.5h6.88v25.93h-6.88v-10.89h-9.81v10.89h-6.86v-25.93zM383.91 882.49h23.46v5.54h-8.3v20.39h-6.86v-20.39h-8.3v-5.54zM411.52 882.49h6.86v10.77h6.88c2.7 0 4.76.19 6.19.57 1.42.38 2.63 1.22 3.61 2.5.98 1.29 1.48 2.8 1.48 4.54 0 2.51-.86 4.39-2.59 5.65-1.73 1.26-4.31 1.89-7.76 1.89h-14.67v-25.93zm6.86 21.58h6.37c1.66 0 2.86-.26 3.61-.78s1.12-1.37 1.12-2.54c0-1.25-.48-2.11-1.45-2.58-.97-.46-2.71-.7-5.21-.7h-4.44v6.59zm22.07-21.58h6.86v25.93h-6.86v-25.93z"/></g><g><path class="uuid-b6bd1b18-15b6-4423-9bda-764c6abaa699" d="M185.45 1071.06v-29.74h-10.62v-6.05h28.44v6.05h-10.6v29.74h-7.23zM208.03 1035.27h28.47v35.79h-7.23v-29.79h-14.01v29.79h-7.23v-35.79z"/></g><g><path class="uuid-2ea852bb-4da9-491f-81e2-f7153fafbf14" d="M177.49 1197.92h28.47v35.79h-7.23v-29.79h-14.01v29.79h-7.23v-35.79zM211.69 1220.38c0-2.28.56-4.48 1.68-6.62 1.12-2.13 2.71-3.76 4.77-4.88 2.06-1.12 4.36-1.68 6.9-1.68 3.92 0 7.14 1.27 9.64 3.82 2.51 2.55 3.76 5.77 3.76 9.66s-1.27 7.17-3.8 9.75-5.72 3.87-9.56 3.87c-2.38 0-4.64-.54-6.8-1.61s-3.8-2.65-4.92-4.72-1.68-4.6-1.68-7.58zm7.03.36c0 2.57.61 4.54 1.83 5.91s2.73 2.05 4.52 2.05 3.29-.68 4.5-2.05c1.21-1.37 1.82-3.35 1.82-5.96s-.61-4.49-1.82-5.86-2.71-2.05-4.5-2.05-3.3.68-4.52 2.05-1.83 3.34-1.83 5.91zM243.89 1207.78h15.01c3.08 0 5.38.56 6.91 1.68 1.53 1.12 2.29 2.82 2.29 5.08 0 1.45-.42 2.71-1.26 3.78-.84 1.07-1.89 1.79-3.16 2.15 1.79.44 3.12 1.26 4 2.47.88 1.21 1.32 2.52 1.32 3.96 0 2.02-.74 3.66-2.22 4.92-1.48 1.26-3.67 1.89-6.57 1.89h-16.33v-25.93zm6.91 10.76h4.42c2.13 0 3.67-.27 4.63-.81.95-.54 1.43-1.38 1.43-2.54 0-1.09-.44-1.87-1.33-2.33-.89-.46-2.46-.7-4.72-.7h-4.42v6.37zm0 10.77h5.42c1.95 0 3.38-.24 4.27-.71.89-.47 1.34-1.32 1.34-2.54s-.51-2.14-1.54-2.62-3.02-.72-5.98-.72h-3.52v6.59zM288.91 1225.45l6.84 1.15c-.88 2.51-2.27 4.42-4.16 5.73-1.9 1.31-4.27 1.96-7.12 1.96-4.51 0-7.85-1.47-10.01-4.42-1.71-2.36-2.56-5.34-2.56-8.94 0-4.3 1.12-7.66 3.37-10.09 2.25-2.43 5.09-3.65 8.52-3.65 3.86 0 6.9 1.27 9.13 3.82 2.23 2.55 3.3 6.45 3.2 11.71h-17.19c.05 2.04.6 3.62 1.66 4.75s2.38 1.7 3.96 1.7c1.07 0 1.98-.29 2.71-.88s1.29-1.53 1.66-2.83zm.39-6.93c-.05-1.99-.56-3.5-1.54-4.53-.98-1.03-2.17-1.55-3.56-1.55-1.5 0-2.73.55-3.71 1.64-.98 1.09-1.46 2.57-1.44 4.44h10.25zM301.51 1207.78h6.4v3.81c.83-1.3 1.95-2.36 3.37-3.17 1.42-.81 2.99-1.22 4.71-1.22 3.01 0 5.57 1.18 7.67 3.54 2.1 2.36 3.15 5.65 3.15 9.86s-1.06 7.69-3.17 10.09c-2.12 2.4-4.68 3.6-7.69 3.6-1.43 0-2.73-.29-3.89-.85-1.16-.57-2.39-1.55-3.67-2.93v13.06h-6.86v-35.79zm6.79 12.52c0 2.91.58 5.07 1.73 6.46 1.16 1.39 2.56 2.09 4.22 2.09s2.92-.64 3.98-1.92c1.06-1.28 1.59-3.37 1.59-6.29 0-2.72-.55-4.74-1.64-6.05-1.09-1.32-2.44-1.98-4.05-1.98s-3.07.65-4.17 1.94c-1.11 1.29-1.66 3.21-1.66 5.75zM328.29 1233.71l9.35-13.35-8.96-12.57h8.37l4.59 7.13 4.83-7.13h8.06l-8.79 12.28 9.59 13.65h-8.42l-5.27-8.03-5.32 8.03h-8.03zM359.13 1207.78h6.86v9.5h9.81v-9.5h6.88v25.93h-6.88v-10.89h-9.81v10.89h-6.86v-25.93zM388.01 1220.38c0-2.28.56-4.48 1.68-6.62 1.12-2.13 2.71-3.76 4.77-4.88 2.06-1.12 4.36-1.68 6.9-1.68 3.92 0 7.14 1.27 9.64 3.82 2.51 2.55 3.76 5.77 3.76 9.66s-1.27 7.17-3.8 9.75-5.72 3.87-9.56 3.87c-2.38 0-4.64-.54-6.8-1.61s-3.8-2.65-4.92-4.72-1.68-4.6-1.68-7.58zm7.03.36c0 2.57.61 4.54 1.83 5.91s2.73 2.05 4.52 2.05 3.29-.68 4.5-2.05c1.21-1.37 1.82-3.35 1.82-5.96s-.61-4.49-1.82-5.86-2.71-2.05-4.5-2.05-3.3.68-4.52 2.05-1.83 3.34-1.83 5.91zM442.09 1215.44l-6.76 1.22c-.23-1.35-.74-2.37-1.55-3.05-.8-.68-1.85-1.03-3.14-1.03-1.71 0-3.07.59-4.09 1.77-1.02 1.18-1.53 3.15-1.53 5.92 0 3.08.52 5.25 1.55 6.52 1.03 1.27 2.42 1.9 4.16 1.9 1.3 0 2.37-.37 3.2-1.11.83-.74 1.42-2.01 1.76-3.82l6.74 1.15c-.7 3.09-2.04 5.43-4.03 7.01-1.99 1.58-4.65 2.37-7.98 2.37-3.79 0-6.82-1.2-9.07-3.59-2.25-2.39-3.38-5.7-3.38-9.94s1.13-7.61 3.39-10c2.26-2.38 5.32-3.58 9.18-3.58 3.16 0 5.67.68 7.53 2.04 1.86 1.36 3.2 3.43 4.02 6.21zM444.21 1207.78h23.46v5.54h-8.3v20.39h-6.86v-20.39h-8.3v-5.54zM471.92 1207.78h6.86v10.77h6.88c2.7 0 4.78.2 6.23.59 1.45.39 2.65 1.23 3.61 2.53.96 1.29 1.44 2.8 1.44 4.5 0 2.51-.86 4.39-2.58 5.65-1.72 1.26-4.29 1.89-7.73 1.89h-14.72v-25.93zm6.86 21.58h6.4c2 0 3.28-.33 3.85-.98.56-.65.84-1.42.84-2.32 0-1.25-.48-2.12-1.45-2.59-.97-.47-2.69-.71-5.16-.71h-4.47v6.59z"/></g><g><path class="uuid-d579788a-32aa-4415-bcd5-ab8405b8d678" d="m200.29 1383.19 7.01 2.22c-1.07 3.91-2.86 6.81-5.36 8.7-2.5 1.9-5.67 2.84-9.51 2.84-4.75 0-8.66-1.62-11.72-4.87-3.06-3.25-4.59-7.69-4.59-13.32 0-5.96 1.54-10.58 4.61-13.88 3.08-3.3 7.12-4.94 12.13-4.94 4.38 0 7.93 1.29 10.67 3.88 1.63 1.53 2.85 3.73 3.66 6.59l-7.15 1.71c-.42-1.86-1.31-3.32-2.65-4.39-1.34-1.07-2.97-1.61-4.89-1.61-2.65 0-4.81.95-6.46 2.86-1.65 1.9-2.48 4.99-2.48 9.25 0 4.53.81 7.75 2.44 9.67s3.74 2.88 6.35 2.88c1.92 0 3.57-.61 4.96-1.83 1.38-1.22 2.38-3.14 2.98-5.76zM213.18 1370.42h6.84v10.6c1.14-.13 1.94-.48 2.42-1.05.47-.57 1.04-1.81 1.71-3.74.88-2.55 1.84-4.19 2.88-4.91 1.04-.72 2.41-1.07 4.1-1.07.52 0 1.42.04 2.71.12l.02 4.54c-1.81 0-2.96.17-3.47.51-.5.36-1.05 1.42-1.64 3.2-.8 2.39-1.95 3.87-3.44 4.42 2.16.6 4 2.48 5.49 5.64.08.16.17.33.27.51l3.83 7.15h-7.37l-3.42-7.5c-.7-1.51-1.31-2.49-1.82-2.92-.51-.43-1.27-.65-2.28-.65v11.06h-6.84v-25.93zM240.94 1370.42h22.97v25.93h-6.84v-20.36h-9.35v11.65c0 2.96-.34 5.04-1.03 6.24-.68 1.2-1.44 1.98-2.27 2.36s-2.17.56-4 .56c-1.09 0-2.53-.15-4.32-.44v-5.05c.15 0 .53.02 1.15.05.72.05 1.27.07 1.66.07.93 0 1.5-.3 1.71-.92.21-.61.32-2.31.32-5.09v-14.99zM275.97 1378.33l-6.23-1.12c.7-2.51 1.9-4.36 3.61-5.57 1.71-1.2 4.25-1.81 7.62-1.81 3.06 0 5.34.36 6.84 1.09 1.5.72 2.55 1.64 3.16 2.76.61 1.11.92 3.16.92 6.14l-.07 8.01c0 2.28.11 3.96.33 5.04.22 1.08.63 2.24 1.23 3.48h-6.79c-.18-.46-.4-1.13-.66-2.03-.11-.41-.2-.67-.24-.81-1.17 1.14-2.43 1.99-3.76 2.56-1.33.57-2.76.85-4.27.85-2.67 0-4.77-.72-6.31-2.17s-2.31-3.28-2.31-5.49c0-1.46.35-2.77 1.05-3.92.7-1.15 1.68-2.03 2.94-2.64 1.26-.61 3.08-1.14 5.46-1.6 3.21-.6 5.43-1.16 6.67-1.68v-.68c0-1.32-.33-2.26-.98-2.82-.65-.56-1.88-.84-3.69-.84-1.22 0-2.17.24-2.86.72-.68.48-1.24 1.32-1.66 2.53zm9.18 5.57c-.88.29-2.27.64-4.17 1.05-1.9.41-3.15.81-3.74 1.2-.9.63-1.34 1.44-1.34 2.42s.36 1.79 1.07 2.49c.72.7 1.63 1.05 2.73 1.05 1.24 0 2.42-.41 3.54-1.22.83-.62 1.38-1.38 1.64-2.27.18-.59.27-1.7.27-3.34v-1.37zM320.09 1396.35h-19.63v6.84h-5.57v-12.45h2.81c1.17-1.3 2.14-3.34 2.91-6.1.76-2.77 1.22-7.5 1.37-14.21h20.92v20.31h2.78v12.45h-5.59v-6.84zm-3.98-5.61.02-14.67h-8.3c-.28 7.16-1.42 12.05-3.42 14.67h11.69z"/></g><g><path class="uuid-a9ab703f-ad9b-4986-a69d-eb3212d56db3" d="M179.41 1522.78h28.47v35.79h-7.23v-29.79h-14.01v29.79h-7.23v-35.79zM213.61 1545.24c0-2.28.56-4.48 1.68-6.62 1.12-2.13 2.71-3.76 4.77-4.88 2.06-1.12 4.36-1.68 6.9-1.68 3.92 0 7.14 1.27 9.64 3.82 2.51 2.55 3.76 5.77 3.76 9.66s-1.27 7.17-3.8 9.75-5.72 3.87-9.56 3.87c-2.38 0-4.64-.54-6.8-1.61s-3.8-2.65-4.92-4.72-1.68-4.6-1.68-7.58zm7.03.36c0 2.57.61 4.54 1.83 5.91s2.73 2.05 4.52 2.05 3.29-.68 4.5-2.05c1.21-1.37 1.82-3.35 1.82-5.96s-.61-4.49-1.82-5.86-2.71-2.05-4.5-2.05-3.3.68-4.52 2.05-1.83 3.34-1.83 5.91zM266.51 1558.57h-19.63v6.84h-5.57v-12.45h2.81c1.17-1.3 2.14-3.34 2.91-6.1.76-2.77 1.22-7.5 1.37-14.21h20.92v20.31h2.78v12.45h-5.59v-6.84zm-3.97-5.62.02-14.67h-8.3c-.28 7.16-1.42 12.05-3.42 14.67h11.69zM276.89 1532.64h15.01c3.08 0 5.38.56 6.91 1.68 1.53 1.12 2.29 2.82 2.29 5.08 0 1.45-.42 2.71-1.26 3.79-.84 1.07-1.89 1.79-3.16 2.15 1.79.44 3.12 1.26 4 2.46.88 1.21 1.32 2.52 1.32 3.96 0 2.02-.74 3.66-2.22 4.92-1.48 1.26-3.67 1.89-6.57 1.89h-16.33v-25.93zm6.91 10.76h4.42c2.13 0 3.67-.27 4.63-.8.95-.54 1.43-1.38 1.43-2.54 0-1.09-.44-1.87-1.33-2.33-.89-.46-2.46-.7-4.72-.7h-4.42v6.37zm0 10.77h5.42c1.95 0 3.38-.24 4.27-.71.89-.47 1.34-1.32 1.34-2.54s-.51-2.14-1.54-2.62-3.02-.72-5.98-.72h-3.52v6.59zM312.02 1540.55l-6.23-1.12c.7-2.51 1.9-4.36 3.61-5.57s4.25-1.81 7.62-1.81c3.06 0 5.34.36 6.84 1.09 1.5.72 2.55 1.64 3.16 2.76.61 1.11.92 3.16.92 6.14l-.07 8.01c0 2.28.11 3.96.33 5.04.22 1.08.63 2.24 1.23 3.48h-6.79c-.18-.46-.4-1.13-.66-2.03-.11-.41-.2-.67-.24-.8-1.17 1.14-2.43 1.99-3.76 2.56-1.33.57-2.76.86-4.27.86-2.67 0-4.77-.72-6.31-2.17s-2.31-3.28-2.31-5.49c0-1.46.35-2.77 1.05-3.92.7-1.15 1.68-2.03 2.94-2.64 1.26-.61 3.08-1.14 5.46-1.6 3.21-.6 5.43-1.16 6.67-1.69v-.68c0-1.32-.33-2.26-.98-2.82-.65-.56-1.88-.84-3.69-.84-1.22 0-2.17.24-2.86.72s-1.24 1.32-1.66 2.53zm9.18 5.57c-.88.29-2.27.64-4.17 1.05-1.9.41-3.15.81-3.74 1.2-.9.63-1.34 1.44-1.34 2.42s.36 1.79 1.07 2.49c.72.7 1.63 1.05 2.73 1.05 1.24 0 2.42-.41 3.54-1.22.83-.62 1.38-1.38 1.64-2.27.18-.59.27-1.7.27-3.34v-1.37zM336.56 1532.64h22.97v25.93h-6.84v-20.36h-9.35v11.64c0 2.96-.34 5.04-1.03 6.24-.68 1.2-1.44 1.98-2.27 2.36-.83.38-2.17.56-4 .56-1.09 0-2.53-.15-4.32-.44v-5.05c.15 0 .53.02 1.15.05.72.05 1.27.07 1.66.07.93 0 1.5-.3 1.71-.92.21-.61.32-2.31.32-5.09v-14.99z"/></g></g></g></svg>